<svg id="Layer_3" data-name="Layer 3" xmlns="http://www.w3.org/2000/svg" viewBox="0 0 2414.56 2100"><defs><style>.cls-1{fill:#fff;}.cls-14,.cls-16,.cls-19,.cls-2,.cls-20,.cls-21,.cls-4{fill:none;stroke-linecap:round;stroke-linejoin:round;}.cls-14,.cls-16,.cls-19,.cls-2,.cls-4{stroke:#231f20;}.cls-2{stroke-width:3.55px;}.cls-3{fill:#efe7dc;}.cls-20,.cls-4{stroke-width:3px;}.cls-5{fill:#91b6ed;}.cls-6{fill:#3856dd;}.cls-7{fill:#ff71af;}.cls-8{fill:#231f20;}.cls-9{fill:#f7f7f7;}.cls-10{fill:#ff9827;}.cls-11{fill:#e8d2ca;}.cls-12{fill:#191919;}.cls-13{fill:#fca7c0;}.cls-14{stroke-width:3.43px;}.cls-15{fill:#ffa1c3;}.cls-16{stroke-width:2.39px;}.cls-17{fill:#ed5a6c;}.cls-18{fill:#999687;}.cls-19{stroke-width:1.98px;}.cls-20,.cls-21{stroke:#fff;}.cls-21{stroke-width:2.41px;}</style></defs><path class="cls-1" d="M140.45,1467.69a71.66,71.66,0,0,0-36.11,9.88c-39,22.57-54.42,76.61-34.44,120.69,9.55,21.08,20.46,45.1,32.43,71.36,17,37.41,42.69,68.26,74.2,89.22a179.2,179.2,0,0,0,97.85,30.4h1.47a178.74,178.74,0,0,0,96.76-28.76c31.78-20.43,57.84-50.84,75.37-88,8.54-18.09,22.86-21.4,30.64-21.76s22.3,1.59,32.13,18.81l24.36,42.64c19.12,33.5,45.68,60.45,76.81,77.94A177.35,177.35,0,0,0,707,1813a180.08,180.08,0,0,0,93.11-31.48c29.76-20.29,54.29-49.59,70.95-84.74L883,1671.65c8.55-18,22.84-21.34,30.61-21.71s22.25,1.58,32.1,18.74L1004.93,1772c23.84,41.55,73,53.38,109.73,26.43s47.24-82.47,23.4-124l-59.26-103.27c-19.18-33.41-45.75-60.27-76.86-77.68a177.35,177.35,0,0,0-95-22.65,180.08,180.08,0,0,0-93,31.54c-29.72,20.29-54.22,49.56-70.86,84.66l-11.9,25.13c-8.56,18.06-22.88,21.35-30.65,21.71s-22.28-1.61-32.1-18.82l-24.36-42.64c-19.14-33.53-45.73-60.49-76.88-78A177.36,177.36,0,0,0,472,1471.59a180.23,180.23,0,0,0-93.16,31.61c-29.76,20.34-54.28,49.71-70.9,84.91-9,19.13-24.15,21.85-32.42,21.8s-23.36-3.07-32.14-22.35c-11.92-26.17-22.78-50.08-32.3-71.07C197.08,1485.5,169.27,1467.69,140.45,1467.69Z"/><path class="cls-2" d="M140.45,1467.69a71.66,71.66,0,0,0-36.11,9.88c-39,22.57-54.42,76.61-34.44,120.69,9.55,21.08,20.46,45.1,32.43,71.36,17,37.41,42.69,68.26,74.2,89.22a179.2,179.2,0,0,0,97.85,30.4h1.47a178.74,178.74,0,0,0,96.76-28.76c31.78-20.43,57.84-50.84,75.37-88,8.54-18.09,22.86-21.4,30.64-21.76s22.3,1.59,32.13,18.81l24.36,42.64c19.12,33.5,45.68,60.45,76.81,77.94A177.35,177.35,0,0,0,707,1813a180.08,180.08,0,0,0,93.11-31.48c29.76-20.29,54.29-49.59,70.95-84.74L883,1671.65c8.55-18,22.84-21.34,30.61-21.71s22.25,1.58,32.1,18.74L1004.93,1772c23.84,41.55,73,53.38,109.73,26.43s47.24-82.47,23.4-124l-59.26-103.27c-19.18-33.41-45.75-60.27-76.86-77.68a177.35,177.35,0,0,0-95-22.65,180.08,180.08,0,0,0-93,31.54c-29.72,20.29-54.22,49.56-70.86,84.66l-11.9,25.13c-8.56,18.06-22.88,21.35-30.65,21.71s-22.28-1.61-32.1-18.82l-24.36-42.64c-19.14-33.53-45.73-60.49-76.88-78A177.36,177.36,0,0,0,472,1471.59a180.23,180.23,0,0,0-93.16,31.61c-29.76,20.34-54.28,49.71-70.9,84.91-9,19.13-24.15,21.85-32.42,21.8s-23.36-3.07-32.14-22.35c-11.92-26.17-22.78-50.08-32.3-71.07C197.08,1485.5,169.27,1467.69,140.45,1467.69Z"/><rect class="cls-3" x="646.73" y="271.31" width="1008.21" height="601.18" rx="16.54"/><rect class="cls-4" x="646.73" y="271.31" width="1008.21" height="601.18" rx="16.54"/><path class="cls-4" d="M1655,287.85v38.39H646.73V287.85a16.54,16.54,0,0,1,16.54-16.53h975.14A16.54,16.54,0,0,1,1655,287.85Z"/><circle class="cls-5" cx="1618.92" cy="296.29" r="7.26"/><circle class="cls-5" cx="1552.19" cy="296.29" r="7.26"/><circle class="cls-5" cx="1585.55" cy="296.29" r="7.26"/><path class="cls-6" d="M1345.4,661.89V834.83L1223.11,712.55A172.41,172.41,0,0,1,1345.4,661.89Z"/><path class="cls-7" d="M1467.68,712.55,1345.4,834.83V661.89A172.39,172.39,0,0,1,1467.68,712.55Z"/><path class="cls-5" d="M1518.33,834.83H1345.4l122.28-122.28A172.36,172.36,0,0,1,1518.33,834.83Z"/><path class="cls-8" d="M1518.34,834.83a173.71,173.71,0,0,1-4.12,37.66H1383.06l-37.66-37.65h172.94Z"/><polygon class="cls-9" points="1383.06 872.49 1345.4 872.49 1345.4 834.84 1383.06 872.49"/><polygon class="cls-10" points="1345.4 834.84 1345.4 872.49 1307.74 872.49 1345.4 834.84"/><path class="cls-11" d="M1345.4,834.83h0l-37.65,37.65H1176.57a173.09,173.09,0,0,1-4.12-37.66Z"/><path class="cls-5" d="M1345.4,834.83h-173a172.37,172.37,0,0,1,50.66-122.28Z"/><circle class="cls-4" cx="917.19" cy="560.55" r="168.94" transform="translate(-127.73 812.73) rotate(-45)"/><rect class="cls-9" x="907.52" y="381.94" width="19.63" height="19.63"/><rect class="cls-8" x="907.52" y="719.67" width="19.63" height="19.63"/><rect class="cls-8" x="1076.39" y="550.81" width="19.63" height="19.63" transform="translate(1646.82 -525.58) rotate(90)"/><rect class="cls-8" x="738.66" y="550.81" width="19.63" height="19.63" transform="translate(1309.09 -187.85) rotate(90)"/><polygon class="cls-4" points="741.98 393.27 1088.7 389.94 1083.55 730.76 752.62 734.09 741.98 393.27"/><rect class="cls-8" x="907.52" y="381.94" width="19.63" height="19.63"/><rect class="cls-8" x="734.2" y="381.94" width="19.63" height="19.63"/><rect class="cls-8" x="1078.88" y="381.94" width="19.63" height="19.63"/><rect class="cls-8" x="1069.07" y="719.67" width="19.63" height="19.63"/><rect class="cls-8" x="744.01" y="719.67" width="19.63" height="19.63"/><rect class="cls-7" x="1479.23" y="359.09" width="64.91" height="64.35"/><rect class="cls-5" x="1544.14" y="359.09" width="65.46" height="64.35"/><rect class="cls-9" x="1479.23" y="423.43" width="64.91" height="64.35"/><rect class="cls-8" x="1544.14" y="423.43" width="65.46" height="64.35"/><rect class="cls-6" x="1479.23" y="487.78" width="64.91" height="64.35"/><rect class="cls-7" x="1544.14" y="487.78" width="65.46" height="64.35"/><rect class="cls-1" x="1479.23" y="552.12" width="64.91" height="64.35"/><rect class="cls-5" x="1544.14" y="552.12" width="65.46" height="64.35"/><rect class="cls-4" x="1479.23" y="359.09" width="64.91" height="64.35"/><rect class="cls-4" x="1544.14" y="359.09" width="65.46" height="64.35"/><rect class="cls-4" x="1479.23" y="423.43" width="64.91" height="64.35"/><rect class="cls-4" x="1544.14" y="423.43" width="65.46" height="64.35"/><rect class="cls-4" x="1479.23" y="487.78" width="64.91" height="64.35"/><rect class="cls-4" x="1544.14" y="487.78" width="65.46" height="64.35"/><rect class="cls-4" x="1479.23" y="552.12" width="64.91" height="64.35"/><rect class="cls-4" x="1544.14" y="552.12" width="65.46" height="64.35"/><path class="cls-8" d="M1326,528l-15.46-37.3-6.17-1.45.58,63-6.27.06-.58-63-5.3,1.56L1278,528.4a45.49,45.49,0,0,0,.78,41.84l4.86,9,18.67-.17h.28l18.66-.17,4.69-9.05A45.53,45.53,0,0,0,1326,528Z"/><rect class="cls-8" x="1283.74" y="583.27" width="37.61" height="14.8" transform="translate(-5.4 12.05) rotate(-0.53)"/><rect class="cls-8" x="1293.46" y="469.03" width="14.97" height="14.97" transform="translate(-4.34 12.03) rotate(-0.53)"/><rect class="cls-8" x="1360.55" y="400.56" width="14.97" height="14.97" transform="translate(-3.71 12.64) rotate(-0.53)"/><rect class="cls-8" x="1226.21" y="401.8" width="14.97" height="14.97" transform="translate(-3.73 11.41) rotate(-0.53)"/><path class="cls-4" d="M1368,408.79A67.17,67.17,0,1,1,1233.7,410"/><path class="cls-4" d="M1434.81,681l-49.27,44.77a7.42,7.42,0,0,0-.4,10.47h0a7.41,7.41,0,0,0,10.47.6l49.26-44.76Z"/><path class="cls-12" d="M1471.25,668.09l-19.56,17.77-10.06-11.08L1461.19,657c2.59-2.35,6.94-1.78,9.71,1.28a8.24,8.24,0,0,1,2.19,5.16A5.9,5.9,0,0,1,1471.25,668.09Z"/><rect class="cls-12" x="1438.65" y="670.7" width="9.2" height="25.42" transform="translate(-84.52 1148.12) rotate(-42.26)"/><polygon class="cls-13" points="2391.26 1736.98 2321.12 1766.83 2212.23 1813.17 2168.9 1803.46 2160.49 1664.91 2212.23 1660.81 2321.12 1707.14 2391.26 1736.98"/><path class="cls-13" d="M970.32,1660.81v152.36H888.21a70.11,70.11,0,0,1-70.1-70.11v-12.13a70.11,70.11,0,0,1,70.1-70.12Z"/><path class="cls-6" d="M2193.1,1786a29.36,29.36,0,0,1,13.13-24.5,29.43,29.43,0,0,1-.22-48.86,29.43,29.43,0,0,1,5.94-51.82H1089.12v152.36H2211.25A29.41,29.41,0,0,1,2193.1,1786Z"/><polygon class="cls-8" points="2391.26 1736.98 2321.12 1766.83 2321.12 1707.14 2391.26 1736.98"/><rect class="cls-11" x="970.32" y="1660.81" width="118.8" height="152.37"/><polygon class="cls-8" points="924.97 1813.17 970.32 1707.14 970.32 1813.17 924.97 1813.17"/><circle class="cls-7" cx="1240.16" cy="1466.85" r="190.66"/><circle class="cls-4" cx="1240.16" cy="1466.85" r="190.66"/><path class="cls-3" d="M2008.36,1665.59a95.59,95.59,0,0,1-96.24-83.61c-5.57-44.1-26.91-69.59-57.13-68.16-11,.52-47,6.67-48.82,63.94a95.58,95.58,0,1,1-191.06-6c1.11-35.24,8-68.52,20.45-98.92a244.69,244.69,0,0,1,51.8-79,237.55,237.55,0,0,1,325.41-12.91c49,42.71,79.76,104,89,177.14a95.58,95.58,0,0,1-82.86,106.79A96.62,96.62,0,0,1,2008.36,1665.59Z"/><path class="cls-2" d="M2008.36,1665.59a95.59,95.59,0,0,1-96.24-83.61c-5.57-44.1-26.91-69.59-57.13-68.16-11,.52-47,6.67-48.82,63.94a95.58,95.58,0,1,1-191.06-6c1.11-35.24,8-68.52,20.45-98.92a244.69,244.69,0,0,1,51.8-79,237.55,237.55,0,0,1,325.41-12.91c49,42.71,79.76,104,89,177.14a95.58,95.58,0,0,1-82.86,106.79A96.62,96.62,0,0,1,2008.36,1665.59Z"/><polygon class="cls-7" points="376.82 1088.08 297.09 1022.11 252.76 1115.61 234.1 1013.82 140.03 1056.96 191.16 966.99 91.38 939.57 188.38 903.51 129.57 818.36 227.05 853.1 236.73 750.07 289.08 839.33 362.72 766.63 345.44 868.66 448.59 860.3 369.77 927.36 454.16 987.25 350.67 987.96 376.82 1088.08"/><polygon class="cls-7" points="376.82 1088.08 297.09 1022.11 252.76 1115.61 234.1 1013.82 140.03 1056.96 191.16 966.99 91.38 939.57 188.38 903.51 129.57 818.36 227.05 853.1 236.73 750.07 289.08 839.33 362.72 766.63 345.44 868.66 448.59 860.3 369.77 927.36 454.16 987.25 350.67 987.96 376.82 1088.08"/><polygon class="cls-14" points="376.82 1088.08 297.09 1022.11 252.76 1115.61 234.1 1013.82 140.03 1056.96 191.16 966.99 91.38 939.57 188.38 903.51 129.57 818.36 227.05 853.1 236.73 750.07 289.08 839.33 362.72 766.63 345.44 868.66 448.59 860.3 369.77 927.36 454.16 987.25 350.67 987.96 376.82 1088.08"/><polygon class="cls-4" points="376.82 1088.08 297.09 1022.11 252.76 1115.61 234.1 1013.82 140.03 1056.96 191.16 966.99 91.38 939.57 188.38 903.51 129.57 818.36 227.05 853.1 236.73 750.07 289.08 839.33 362.72 766.63 345.44 868.66 448.59 860.3 369.77 927.36 454.16 987.25 350.67 987.96 376.82 1088.08"/><polygon class="cls-5" points="2036.24 816.3 1943.79 767.2 1970.92 868.3 1919.7 777.01 1887.86 876.74 1894.12 772.24 1813.42 838.92 1875.19 754.4 1771.25 766.87 1868.9 729.15 1774.72 683.45 1877.27 704.52 1822.75 615.15 1897.62 688.32 1900.07 583.66 1923.5 685.69 1982.14 598.97 1946.69 697.47 2042.91 656.23 1959.84 719.92 2063.08 737.24 1958.75 745.92 2036.24 816.3"/><path class="cls-8" d="M346,1165.67c41.05,83.19,163.32,126,395.22,114.34l358.91-28.23c29.51-102.45,26.83-166.45-98.75-189-133.6-2-268.78-4.49-359,7.11-26.68,3.43-149.76,2.51-149.76,2.51Z"/><polygon class="cls-15" points="1406.13 1613.52 1422.54 1736.01 1528.53 1736.01 1505.13 1613.52 1406.13 1613.52"/><path class="cls-11" d="M1440.84,1694.46l-27.94-21.28a15.86,15.86,0,0,0-25.43,11.48l-.9,12.64-46,44.45L1289.39,1752a42,42,0,0,0-32.32,30.32l-5.3,19.77h192.11c33.21-14.33,52.25-12.79,61.25,0h59.36a8,8,0,0,0,7.29-11.42c-2-27.42-13.61-53.27-31.42-78.09a14.62,14.62,0,0,0-23.4-.52l-7.49,9.58a18.92,18.92,0,0,1-26,3.67Z"/><path class="cls-11" d="M1251.77,1802.1v12.32a11.11,11.11,0,0,0,11.11,11.11h307.53a9.34,9.34,0,0,0,9-11.67l-9.51-37Z"/><polygon class="cls-15" points="1456.56 1613.52 1472.96 1736.01 1578.96 1736.01 1555.56 1613.52 1456.56 1613.52"/><polygon class="cls-8" points="1299.71 1307.87 1392.71 1637.25 1531.56 1637.25 1472.59 1297.52 1299.71 1307.87"/><path class="cls-8" d="M1834.36,1029.39l37.08,148.6a117.15,117.15,0,0,1-7.74,79c-16.85,35.15-46.54,51.46-87.76,50.86H1299.72l-11-38.73c-14.38-50.38,17.43-102.69,69-112.17.52-.09,1-.19,1.58-.27l304.35-57s104-76.83,170.77-70.36Z"/><path class="cls-8" d="M1885.64,1029.39l37.08,148.6a117.15,117.15,0,0,1-7.74,79c-16.85,35.15-46.54,51.46-87.76,50.86H1351l-11-38.73c-14.39-50.38,17.43-102.69,69-112.17l1.58-.27L1672,1117.38l30.6-27.61a238.79,238.79,0,0,1,183-60.39Z"/><path class="cls-8" d="M1774.3,604.08a19,19,0,0,1,13.91,18.49c-.29,7.9-5.62,15.18-4.94,23.06.29,3.4,1.71,6.75,1.19,10.13-1.13,7.48-11.08,10.39-18.22,7.88-2.08-.73-4.08-1.77-6.26-2.06-6.59-.87-12.06,5.12-18.57,6.51-7.27,1.56-15.28-3.87-16.54-11.2-.38-2.18-.24-4.48-1.09-6.52-1.94-4.68-8.21-6.22-10.52-10.74-3.64-7.09,4.6-14.49,5.89-22.36,2.17-13.23,8.77-20.64,22.91-24.71C1756.86,588.3,1761,600.77,1774.3,604.08Z"/><path class="cls-1" d="M1771.68,715.13c-14.25,19.49-29.37,38.43-48.29,53.31-11.22,8.81-24.09,16.23-38.23,18-.84.11-1.68.19-2.53.25-13.44,1-27.71-3.83-35.64-14.66-6-8.22-7.79-18.82-8-29-.15-6.15.21-12.32.29-18.47,0-1.32,0-2.63,0-3.94l10.37-2.37-10.75-34.88c-1.69.77-3.41,1.48-5.17,2.09-6.46,2.27-12,4.86-18.83,5.36-11.07.82-21.25-7.37-26.17-17.33-7.79-15.74-6.29-34.6-7.29-51.56-.83-13.79-2-28.28-.84-42.36.25-3.19.64-6.37,1.16-9.51a76.88,76.88,0,0,1,7.87-23.72c6.25-11.66,12.61-17.58,24.92-23.13a91.32,91.32,0,0,1,97.42,14c8.69,7.49,16.1,16.92,19.12,28,2.06,7.5,2,15.44,1,23.15a87.33,87.33,0,0,1-1.72,9.35,29.8,29.8,0,1,0-36.5,35.7,29.48,29.48,0,0,0,7.5,1,30.07,30.07,0,0,0,7.59-1c-1.53,1.44-3.12,2.85-4.74,4.21,5.85,30.74,13.79,58.65,30.12,75.28Z"/><path class="cls-15" d="M1771.68,715.13c-14.25,19.49-29.37,38.43-48.29,53.31-11.22,8.81-24.09,16.23-38.23,18-.84.11-1.68.19-2.53.25-13.44,1-27.71-3.83-35.64-14.66-6-8.22-7.79-18.82-8-29-.15-6.15.21-12.32.29-18.47,0-1.32,0-2.63,0-3.94l10.37-2.37-3-9.86-7.72-25c-1.69.77-3.41,1.48-5.17,2.09-6.46,2.27-12,4.86-18.83,5.36-11.07.82-21.25-7.37-26.17-17.33-6.24-12.6-6.52-27.22-6.9-41.25-.09-3.49-.19-6.94-.39-10.31-.83-13.79-2-28.28-.84-42.36.25-3.19.64-6.37,1.16-9.51a76.88,76.88,0,0,1,7.87-23.72c6.25-11.66,12.61-17.58,24.92-23.13a91.32,91.32,0,0,1,97.42,14c8.69,7.49,16.1,16.92,19.12,28,2.06,7.5,2,15.44,1,23.15a87.33,87.33,0,0,1-1.72,9.35,29.8,29.8,0,1,0-36.5,35.7,29.48,29.48,0,0,0,7.5,1,30.07,30.07,0,0,0,7.59-1c-1.53,1.44-3.12,2.85-4.74,4.21,5.85,30.74,13.79,58.65,30.12,75.28Z"/><path class="cls-15" d="M1592,773.79l-92.36,172.72-167.23,17.3h0c-16.3,1-113,50.74-123.78,55.4-3.93-.15-7.09,3.85-8.18,7.22-5,15.49-10.11,31.13-11.3,47.22-.15,2-.22,4.2.82,6s3.57,3.14,5.67,2.33c1.74-.67,2.55-2.42,3.19-4q9.95-24.66,19.91-49.33c-5.4,13.81-10.25,29.22-11.79,43.78a10.8,10.8,0,0,0,.42,5.56,4.83,4.83,0,0,0,4.83,2.9,6.68,6.68,0,0,0,3.52-2.07c7.79-7.43,12.13-16.77,15.79-26.51a150.74,150.74,0,0,0-5,19.52,13.09,13.09,0,0,0-.11,6,5.58,5.58,0,0,0,4.53,4c3,.31,5.35-2,7-4.23,7.44-9.55,12.72-20.2,17.23-31.15a199.91,199.91,0,0,0-6.76,26c-.58,3.15-.53,7.26,2.77,8.46a6.42,6.42,0,0,0,3.88,0c5.18-1.45,8-6.29,10.23-10.72a328.15,328.15,0,0,0,14.91-34.88c20.93,1.2,41.18-1.9,59.52-10.11h0l166.15,4.82h34.89a51.09,51.09,0,0,0,46.35-29.59l93.11-200.82Zm-354.83,262.94c1-2.48,2-4.94,3-7.34C1239.13,1031.8,1238.11,1034.26,1237.12,1036.73Z"/><path class="cls-16" d="M1237.12,1036.73c1-2.48,2-4.94,3-7.34C1239.13,1031.8,1238.11,1034.26,1237.12,1036.73Z"/><ellipse class="cls-8" cx="1632.16" cy="598.25" rx="3.79" ry="5.48"/><ellipse class="cls-8" cx="1588.94" cy="600.39" rx="3.79" ry="5.48"/><path class="cls-4" d="M1608.33,584.34l-.42,28.25c-7.8-1.51-12.54-.24-1.68,15.18"/><path class="cls-17" d="M1599.9,647.59c2.17,17,27.83,11.8,37.53-13.92C1610.86,633.48,1592.17,636,1599.9,647.59Z"/><path class="cls-1" d="M1599.9,647.59c8.46,6.92,22.54-2.2,37.53-13.92C1621.35,638.9,1607.12,643.82,1599.9,647.59Z"/><path class="cls-6" d="M1690.81,788.53v.21c-1.12,21.62-3.84,43.12-10.48,63.72s-15,40.67-20.83,61.51c-6.65,23.73-10.11,48.56-20.6,70.85l-144.08-48.49c7.64-23.87,15.77-48.24,31.37-67.85,5.42-6.81,11.66-12.94,16.85-19.93,10.27-13.8,16-30.36,21.4-46.7s10.64-33,20.13-47.34,24-26.35,41-28.62l5.52-.48a54.87,54.87,0,0,1,16.3,1c-.08,6.15-.44,12.32-.29,18.47.23,10.19,2,20.78,8,29C1663.1,784.7,1677.37,789.51,1690.81,788.53Z"/><path class="cls-8" d="M1620.93,581a30.12,30.12,0,0,0,5.06-.81,33.56,33.56,0,0,1,17.26,1.38c2.28.79,4.55,1.82,7,1.77s5-1.64,5.2-4a4.74,4.74,0,0,0-1.87-3.87,12.55,12.55,0,0,0-4-2,55.47,55.47,0,0,0-22.81-3.23c-2.93.26-8.52,1.41-10.34,4.11C1614,577.86,1616.83,581.08,1620.93,581Z"/><path class="cls-8" d="M1603.7,583.89c-.19,2.4-2.79,4-5.21,4.05s-4.68-1-7-1.77a34.28,34.28,0,0,0-10.94-1.94c-4.25-3.69-2.93-6.76,1.16-9.51a59.61,59.61,0,0,1,16.1,3.31,12.45,12.45,0,0,1,4,2A4.78,4.78,0,0,1,1603.7,583.89Z"/><path class="cls-8" d="M1760.35,572c-.22,19.19-11.9,35.94-26.33,48.59-3.31,2.91-4.59,7.54-4.82,11.93s.4,8.82.13,13.22c-.7,11.21-6.38,27.94-17.2,24.93-7.57-2.11-12.86-9.21-15.27-16.69-2.14-6.62-2.46-13.64-3-20.6a29.48,29.48,0,0,0,7.5,1,29.8,29.8,0,1,0-29.29-35.25c-.34-.29-.68-.58-1-.88a12.85,12.85,0,0,1-3.55-4.39c-.9-2.15-.72-4.57-.6-6.89a95.08,95.08,0,0,0-.75-17.36,17.2,17.2,0,0,0-2-6.76c-1.53-2.49-4.11-4.13-6.63-5.61-6.34-3.73-13-7.16-18.27-12.26s-9.22-12-8.18-19.25l-13.33,19.65a66,66,0,0,1-7.79,10,33.52,33.52,0,0,1-23.55,9.63c-1.87,0-3.92-.27-5.18-1.65-1.63-.4-1.75-1.1-1.91-2.78-1-10,4.06-19.76,10.68-27.34,9.31-10.66,23.37-18.52,37.31-16,5.11-9.36,13.19-17.72,22.86-22.2s21.52-4.82,30.8.44c11.33,6.42,17.8,20.12,30.09,24.43,4,1.39,8.29,1.66,12.31,3,5.58,1.82,10.31,5.54,14.86,9.24,7,5.71,14.08,11.8,18.08,19.9C1759.37,558.18,1760.42,565.17,1760.35,572Z"/><path class="cls-6" d="M1904.56,1093.61l-253.23-3.84s-8.43-145.23-10.11-145.08c-47.22-3.93-32.6-63.52-16.3-112.43l.28-108.36,14.07-3.23c.08,7.46-.48,15-.3,22.41.23,10.19,2,20.78,8,29,8.43,11.51,24,16.22,38.16,14.41s27-9.23,38.24-18c18.92-14.88,34-33.82,48.3-53.31l47.88,2.87c28.18,33.76,49.78,107.53,64.51,223Z"/><path class="cls-4" d="M1667.08,998.1s-24.18-53.56-25.86-53.41c-47.22-3.93-32.6-63.52-16.3-112.43l.28-80.11"/><path class="cls-15" d="M1768.83,773.79l-92.36,172.72-123.15,12.74h0l-44.07,4.56a16.73,16.73,0,0,0-2.27.34l-.54.12c-.37.08-.75.17-1.15.28l-.62.16c-1.67.47-3.61,1.09-5.78,1.86l-1.67.6-2.66,1-2.83,1.11c-1.42.57-2.91,1.17-4.44,1.81l-1.23.51c-1.21.5-2.44,1-3.7,1.57l-3.39,1.46-2.31,1-6,2.66-1.22.55-1.79.82-1.35.61-4.34,2c-1.49.69-3,1.38-4.49,2.09-2,1-4.1,1.92-6.16,2.89-2.67,1.26-5.35,2.53-8,3.81l-1,.49-8.53,4.11-1.87.9-7.63,3.72-2.79,1.36-1.18.58-2.33,1.14-3.41,1.67-3.82,1.88-1.08.53-.86.43-1.72.84-2,1-5.57,2.74-2.52,1.23-3.06,1.5-.71.35c-3.71,1.8-6.4,3.09-7.75,3.67h0c-3.93-.15-7.08,3.85-8.18,7.22-5,15.49-10.1,31.13-11.3,47.22-.15,2-.21,4.2.83,6s3.56,3.14,5.67,2.33c1.73-.67,2.54-2.42,3.18-4q10-24.66,19.91-49.33c-5.39,13.81-10.25,29.22-11.79,43.78a10.69,10.69,0,0,0,.43,5.56,4.81,4.81,0,0,0,4.82,2.9,6.75,6.75,0,0,0,3.53-2.07c7.78-7.43,12.12-16.77,15.78-26.5a153.49,153.49,0,0,0-5,19.51,13.22,13.22,0,0,0-.11,6,5.6,5.6,0,0,0,4.54,4c3,.31,5.34-2,7-4.23,7.44-9.55,12.73-20.2,17.24-31.15a196.77,196.77,0,0,0-6.76,26c-.59,3.15-.53,7.26,2.77,8.46a6.39,6.39,0,0,0,3.87,0c5.18-1.45,8-6.29,10.24-10.72a332.32,332.32,0,0,0,14.91-34.88c20.92,1.2,41.17-1.9,59.52-10.11h0l166.15,4.82h34.9a51.1,51.1,0,0,0,46.35-29.6l6.49-14,10.29-22.18,76.33-164.62ZM1414,1036.73c1-2.48,1.94-4.94,3-7.34C1416,1031.8,1415,1034.26,1414,1036.73Z"/><path class="cls-6" d="M1817.92,976.84c10.49-22.29,14-47.12,20.61-70.84,5.84-20.85,14.17-40.91,20.82-61.51s9.36-42.11,10.48-63.73a103.44,103.44,0,0,0-.18-13.41c-2.35-30.24-29.27-52.57-59.48-49.92l-5.52.49c-17.06,2.26-31.56,14.27-41.05,28.62s-14.76,31-20.14,47.33-11.13,32.9-21.39,46.71c-5.19,7-11.44,13.12-16.86,19.92-15.6,19.62-23.72,44-31.37,67.86Z"/><rect class="cls-18" x="954.58" y="1082.24" width="1020.58" height="22.73"/><rect class="cls-8" x="1510.08" y="1068.01" width="13.79" height="4.78"/><rect class="cls-8" x="1533.36" y="1068.01" width="13.79" height="4.78"/><rect class="cls-8" x="1556.64" y="1068.01" width="13.79" height="4.78"/><rect class="cls-8" x="1579.92" y="1068.01" width="13.79" height="4.78"/><rect class="cls-8" x="1603.2" y="1068.01" width="13.79" height="4.78"/><rect class="cls-8" x="1626.48" y="1068.01" width="13.79" height="4.78"/><rect class="cls-8" x="1649.76" y="1068.01" width="13.79" height="4.78"/><path class="cls-11" d="M1535.45,1072.62H1210L1166.74,846.5A10.55,10.55,0,0,1,1177.1,834h304a10.54,10.54,0,0,1,10.35,8.57Z"/><polygon class="cls-11" points="1209.95 1072.62 1209.95 1081.8 1672.01 1081.8 1672.01 1072.62 1535.45 1072.62 1209.95 1072.62"/><polyline class="cls-4" points="1209.95 1072.62 1535.45 1071.74 1535.45 1082.24"/><rect class="cls-8" x="964.9" y="1068.01" width="13.79" height="4.78"/><rect class="cls-8" x="941.62" y="1068.01" width="13.79" height="4.78"/><rect class="cls-8" x="918.34" y="1068.01" width="13.79" height="4.78"/><rect class="cls-8" x="895.06" y="1068.01" width="13.79" height="4.78"/><rect class="cls-8" x="871.78" y="1068.01" width="13.79" height="4.78"/><rect class="cls-8" x="848.5" y="1068.01" width="13.79" height="4.78"/><rect class="cls-8" x="825.22" y="1068.01" width="13.79" height="4.78"/><path class="cls-8" d="M953.33,1072.62h325.5L1322,846.5A10.55,10.55,0,0,0,1311.68,834h-304a10.54,10.54,0,0,0-10.35,8.57Z"/><polygon class="cls-8" points="1278.83 1072.62 1278.83 1081.8 816.77 1081.8 816.77 1072.62 953.33 1072.62 1278.83 1072.62"/><polyline class="cls-19" points="1278.83 1072.62 953.33 1071.74 953.33 1082.24"/><path class="cls-4" d="M1743.46,793.87c-5.38,16.34-11.13,32.9-21.39,46.71-5.19,7-11.44,13.12-16.86,19.92-15.6,19.62-23.72,44-31.37,67.86l8.5,2.86"/><path class="cls-15" d="M1734.89,604.58a33.47,33.47,0,1,1-.89-7.72A33.52,33.52,0,0,1,1734.89,604.58Z"/><path class="cls-4" d="M1695.6,626.78a22.94,22.94,0,0,1-17.15-22.2,23.27,23.27,0,0,1,.38-4.2,22.93,22.93,0,0,1,45.47,4.2"/><line class="cls-4" x1="1676.48" y1="946.51" x2="1694.07" y2="944.69"/><polygon class="cls-8" points="1639.39 682.56 1671.58 660.77 1643.64 698.45 1639.39 682.56"/><polygon class="cls-8" points="1780.79 964.35 1770.5 986.53 1742.64 951.49 1780.79 964.35"/><path class="cls-4" d="M1856.43,853.22c-6,17.57-12.89,34.89-17.9,52.78-6.65,23.72-10.12,48.55-20.61,70.84l-38.72-13"/><line class="cls-4" x1="462.07" y1="1380.16" x2="459.27" y2="1780.27"/><path class="cls-15" d="M742.44,1572l-45.6,115.2c-44.55,53.88-85.32,13.54-127-4.14l49.49-113.2Z"/><path class="cls-11" d="M788.76,1721.49c125.53-6.37,138.86,25.25,127,65.39l-359,.83c-20.08,0-1.28-47.39,1.11-52.78,3.34-7.58,4.13-15.16,3.93-22.91-.32-12.66-3.27-25.78-2-40.13.43-4.87,1.27-10.06,4.63-13.6,5.92-6.25,16.32-4.33,24.06-.58,19.46,9.41,33.82,26.76,51.78,38.78,2.07,1.39,4.34,2.75,6.83,2.76,3.43,0,6.28-2.48,8.78-4.83l48.43-45.49c3.4-3.19,7.3-6.58,12-6.53,8,.08,12.13,10,11.72,18s-3.16,16.33-.26,23.81Z"/><path class="cls-11" d="M915.79,1786.88l.44.34c17.26,13.4,7.63,41.12-14.22,41.17l-331.28.77c-21.72,0-31.51-27.27-14.63-40.93l.64-.52Z"/><line class="cls-4" x1="556.74" y1="1787.71" x2="808.68" y2="1787.71"/><path class="cls-4" d="M752,1729.43c4.17,2.79,9.22,4,13.41,6.77,7.52,5,11.07,14,16.19,21.36a54.65,54.65,0,0,0,32.85,22c4.34,1,9.3,1.24,12.84-1.47,3-2.28,4.2-6.17,4.76-9.87,1.06-7.17,0-14.93-4.31-20.74-7.32-9.82-21.27-11.35-31.61-17.9-10.67-6.76-17-18.55-26.39-27-7.87-7.1-27.08-17.51-38.62-13.45a2.19,2.19,0,0,0-1.18,3.18C736.94,1704.21,740.39,1721.68,752,1729.43Z"/><path class="cls-4" d="M755.54,1716.61c3.88.81,7.9.94,11.71,2.05,5.2,1.5,9.7,4.73,14.28,7.61a125.84,125.84,0,0,0,56.3,18.79,14.4,14.4,0,0,0,5.16-.24c4.66-1.36,6.92-7.25,5.47-11.89s-5.66-8-10.17-9.78-9.41-2.36-14.18-3.31c-15.2-3-29.44-10-41.9-19.24-5.44-4-10.88-8.61-17.54-9.79-3.49-.61-7.1-.24-10.6-.77-8.61-1.32-17.52-8-25.13-3.71C726.08,1700.08,743.72,1714.15,755.54,1716.61Z"/><path class="cls-4" d="M727.92,1686.69c.51,5.66-1.7,11.33-1,17,1.13,9.58,10,16.46,12.81,25.7,2.32,7.72.11,16.2,2.11,24,1.78,7,6.67,12.64,11,18.42a127,127,0,0,1,15.66,28"/><path class="cls-15" d="M922.91,913.25c25.56-.17,42.6-10.49,64.85-22.2,6.36-3.34,13.15-6.78,20.32-6.27,13.26,1,27.26,3,40.69.92,5-.79,13.93-2.33,16.77-7.36,5.68-10.05-9.51-9.71-15.42-9.78-8.43-.1-17,.63-25.22-1.21,6.08,1.36,18.55-3,25.08-4.16,9.43-1.62,19.07-5.89,27.53-10.21a19,19,0,0,0,6-4.25c2.44-2.86,1.88-6-1.19-8.3a17.56,17.56,0,0,0-6.37-2.59,11.34,11.34,0,0,0,7.57-5.4c2.5-4.33,2.07-8.92-2.32-11.43-4.67-2.67-10.5-2.18-15.74-.94,1.37-3.32,5.89-5.42,5.39-9-.34-2.41-2.89-3.78-5.2-4.55-13.16-4.4-27.51-1.61-41.09,1.21-27.26,5.66-61.12-2.63-82.08,15.43-13.46,11.59-30.35,15.88-46,24.34-7.86,4.27-16.46,9.43-18.76,18.07-2.5,9.42-.38,21.44,5.21,29.16,7.59,10.5,16.5,13.56,28.38,17.35a32,32,0,0,0,9.41,1.14C921.51,913.25,922.21,913.26,922.91,913.25Z"/><path class="cls-15" d="M896,849.36c-49.3,18.51-115.8,38-163.49,53.6L613,942l-8.81-25.78-114.05-11,31,129.22c27.47,65.82,68.88,64,116.36,32.79,25.67-16.87,54.12-30.55,80.85-45.65,29.95-16.91,171.27-91.47,201.22-108.38Z"/><path class="cls-15" d="M699.92,636.72a19.35,19.35,0,0,1-5.23-12.91c-.46-9.28-.26-4.71-.94-14C691,572,666.6,534.92,626.62,530.47c-13.61-1.51-27.41.46-40.72,3.72a80.92,80.92,0,0,0-17.3,5.93c-9.1,4.6-16.63,11.94-22.54,20.26-11.1,15.65-18.28,35.13-16.3,54.51s14.58,37,28.47,50.08a167.83,167.83,0,0,0,35.26,25.4c9.81,5.27,20.27,9.59,30.33,14.51,10.43,5.1,21.13,9.89,32.45,12.67,5.72,1.41,12,1.19,17.19-1.57,8.89-4.72,12.58-15.36,15-25.12a319.79,319.79,0,0,0,6.74-35.14S722.28,656.71,699.92,636.72Z"/><path class="cls-15" d="M642.48,693.32c-6,24.07-13.45,46.61-24.37,65.66l-91.89-32.83C538,709.74,548.88,685,559.31,656.71Z"/><path class="cls-8" d="M677.1,628.42c0,3.05,1.52,5.52,3.38,5.52s3.38-2.47,3.38-5.52-1.51-5.53-3.38-5.53S677.1,625.37,677.1,628.42Z"/><path class="cls-8" d="M692.36,615.45c-1.34,1.34-3.71,1.46-5.85,1.34a48.7,48.7,0,0,1-12.16-2.27,13.36,13.36,0,0,1-5.77-3.15c-1.45-1.56-1.91-3.93-.5-5.3a6.47,6.47,0,0,1,3-1.33,48.11,48.11,0,0,1,7.42-1.26,22,22,0,0,1,9,.72C692.35,605.85,696.1,611.72,692.36,615.45Z"/><path class="cls-8" d="M648.9,630.41c5.26.55,10-3.94,11.51-9,1.7-5.73.06-11.82-.31-17.62-.81-12.67-3.61-16.29,5.83-21.12,8-4.08,16.1-.39,21-11.32C701,540,643.17,529.11,625.22,524.82c-21.26-5.08-52.39-7.39-67.51,11.74a11.23,11.23,0,0,1-2.93,3,11.67,11.67,0,0,1-2.91,1c-20.25,5.46-29.93,31.78-30.54,50.66-.83,25.65,12.76,45.76,23.55,67.65,2.3,4.66,4.62,9.4,5.69,14.49l-5.81,19.3a27.81,27.81,0,0,0,19-17.79c14.13,1.78,27,1.06,30.93-16.56Z"/><path class="cls-15" d="M905.55,1117.38c48.78-24.43,158-88.34,176.72-97.72,28-14,60.54-14.19,91.36-18.31,7.15-1,14.51-2,20.76-5.59,20.23-11.68,32.55-33.68,47.28-51.28a183.25,183.25,0,0,0,17.47-24.82c2.89-4.93,8.08-17.11,2.36-22.15-2.76-2.43-7.09-.51-10,1.8-10.09,8.16-19,21.81-24.69,33.31,7.37-14.82,14.1-29.89,19.1-45.63,1.27-4,1.83-9.3-1.79-11.37-3.2-1.84-7.17.45-9.88,3a49,49,0,0,0-7.72,9.15l3.3-15.44c.67-3.09,1.14-6.83-1.2-9-9.62-8.76-31.5,32-35.25,37.89q5.71-12.06,10.67-24.46c1.23-3.07,2.41-6.61.92-9.56-1.76-3.48-6.67-4.34-10.27-2.83s-6.2,4.7-8.56,7.82c-6.55,8.65-12.19,17.77-18.09,26.86-3.21,4.94-9.26,16.53-16,17.28-29.59,3.26-25.34-1.49-53.68,7.63-8.3,2.67-17,5.92-23,12L837,1019.74Z"/><path class="cls-15" d="M1140.13,1001.44c4.38-.25,8.71-.81,12.47-1.29Q1192.77,995,1233,990c7.51-1,42.5-1.53,36.82-17.11a10.55,10.55,0,0,0-4.54-5c-9.28-5.91-21.17-5.28-32.09-3.86-15.47,2-30.43,2.33-45.23-3a84.36,84.36,0,0,0-68.13,5.37c-4.87,2.67-6.09,9.72-6.51,15.26C1111.92,999.82,1126.3,1002.21,1140.13,1001.44Z"/><path class="cls-15" d="M954.6,1064.53C930.29,1115.9,895.85,1139,838.17,1097l-93.69-94.25,103.14-49.92,20.93,17.44Z"/><path class="cls-8" d="M470.81,1319.64C266.18,1331.49,269.13,1186.74,328.5,1042l255.85,88.37Z"/><path class="cls-8" d="M703.89,759C750,769.1,782.65,817.6,807.05,859.52l63.43,96.33-114.9,94.48L650.84,918.73Z"/><path class="cls-8" d="M638.07,1076.14l79.66-313.06L543.56,718.17c-60.15-15.52-123.73,10-155.59,63.33a121.51,121.51,0,0,0-6.48,12.3c-29.81,65.85-48.8,157.73-66.87,256.53-5,27.09-35.23,62.09-14.87,82.44L632,1123.51Z"/><line class="cls-20" x1="672.35" y1="941.42" x2="636.92" y2="901.49"/><polygon class="cls-8" points="637.64 711.22 610.44 696.16 633.72 723.56 637.64 711.22"/><path class="cls-15" d="M967.19,1567.35l-10.3,118.87c-27.53,55.63-79.42,14.14-125.46-4l14.69-116.79Z"/><polygon class="cls-8" points="1122.2 1307.87 1002.16 1627.52 791.36 1627.52 903.93 1311.7 1122.2 1307.87"/><polygon class="cls-8" points="933.8 1307.87 757.29 1627.52 549.76 1627.52 715.53 1311.7 933.8 1307.87"/><path class="cls-11" d="M1040.71,1721.49c125.53-6.37,138.86,25.25,127,65.39l-359.06.83c-20.08,0-1.27-47.39,1.11-52.78,3.35-7.58,4.14-15.16,3.94-22.91-.32-12.66-3.27-25.78-2-40.13.43-4.87,1.27-10.06,4.63-13.6,5.91-6.25,16.32-4.33,24.06-.58,19.46,9.41,33.82,26.76,51.78,38.78,2.07,1.39,4.34,2.75,6.83,2.76,3.43,0,6.28-2.48,8.78-4.83l48.43-45.49c3.4-3.19,7.29-6.58,12-6.53,8,.08,12.13,10,11.72,18s-3.16,16.33-.26,23.81Z"/><path class="cls-11" d="M1167.74,1786.88l.44.34c17.26,13.4,7.63,41.12-14.22,41.17l-331.28.77c-21.72,0-31.51-27.27-14.64-40.93l.64-.52Z"/><path class="cls-4" d="M813.14,1723.26a45.09,45.09,0,0,1-3.35,11.67c-2.38,5.39-21.19,52.83-1.11,52.78h0l-.64.52c-16.87,13.66-7.08,41,14.64,40.93"/><path class="cls-8" d="M364.9,1232c41.05,83.19,163.32,126,395.22,114.34L1119,1318.05c29.51-102.45,26.83-166.44-98.75-189-133.6-2-464-17.88-464-17.88Z"/><path class="cls-20" d="M642.48,1111.21s244.2,15.88,377.8,17.88c51.19,1.83,83.94,15.34,95.28,42.42"/><line class="cls-20" x1="701.72" y1="1344.24" x2="930.78" y2="1332.86"/><path class="cls-20" d="M470.81,1319.64c-38-15.38-66.45-31.23-82.11-58"/><path class="cls-6" d="M693.88,583.28V563.06a43.52,43.52,0,0,0-34.69-42.66A252.75,252.75,0,0,0,557,520.2a43.44,43.44,0,0,0-34.66,43.92l-.68,19.16Z"/><path class="cls-6" d="M788.59,584.67h-267a1.51,1.51,0,0,1,0-3h267a1.51,1.51,0,0,1,0,3Z"/><path class="cls-20" d="M856.28,1444.38c-.77,5.17,41-106.12,41-106.12"/><path class="cls-1" d="M685.43,670.28c-3.81-4.82-13.88-10-16.31-10.89-1.93-.74-4.15-1.35-6-.4-2.1,1.09-2.76,4-2,6.2a12.51,12.51,0,0,0,4.34,5.5,47.09,47.09,0,0,0,7.76,5.19c2.83,1.5,6.11,2.73,9.17,1.78C687.75,676,687.74,673.2,685.43,670.28Z"/><path class="cls-4" d="M1225.94,964.88h-37.23a166.15,166.15,0,0,0-74.31-8.28"/><line class="cls-4" x1="1228.89" y1="928.35" x2="1208.83" y2="959.33"/><line class="cls-4" x1="1226.57" y1="887.73" x2="1191.81" y2="946.2"/><line class="cls-4" x1="1193.42" y1="901.22" x2="1173.8" y2="932.32"/><path class="cls-4" d="M605.2,584.81V505.34a5.56,5.56,0,0,1,5.56-5.56h7.72a5.56,5.56,0,0,1,5.56,5.56v79.47"/><circle class="cls-18" cx="614.01" cy="625.46" r="42.52" transform="translate(-262.43 617.36) rotate(-45)"/><path class="cls-1" d="M619.1,625.25h0a8.42,8.42,0,0,1-8.42,8.42h-31a35.33,35.33,0,0,1,.1-16.85h30.87A8.42,8.42,0,0,1,619.1,625.25Z"/><path class="cls-4" d="M649.27,625.46A35.27,35.27,0,1,1,614,590.2,35.26,35.26,0,0,1,649.27,625.46Z"/><line class="cls-4" x1="1168.18" y1="1787.22" x2="808.68" y2="1787.22"/><path class="cls-4" d="M1002.17,1729.43c4.17,2.79,9.22,4,13.4,6.77,7.53,5,11.08,14,16.2,21.36a54.66,54.66,0,0,0,32.84,22c4.35,1,9.31,1.24,12.84-1.47,3-2.28,4.21-6.17,4.76-9.87,1.07-7.17,0-14.93-4.3-20.74-7.32-9.82-21.27-11.35-31.61-17.9-10.67-6.76-17-18.55-26.39-27-7.87-7.1-27.09-17.51-38.63-13.45a2.2,2.2,0,0,0-1.17,3.18C987.13,1704.21,990.58,1721.68,1002.17,1729.43Z"/><path class="cls-4" d="M1005.73,1716.61c3.88.81,7.9.94,11.7,2.05,5.21,1.5,9.7,4.73,14.29,7.61a125.84,125.84,0,0,0,56.3,18.79,14.35,14.35,0,0,0,5.15-.24c4.67-1.36,6.93-7.25,5.48-11.89s-5.66-8-10.17-9.78-9.41-2.36-14.18-3.31c-15.2-3-29.44-10-41.9-19.24-5.44-4-10.88-8.61-17.54-9.79-3.49-.61-7.1-.24-10.6-.77-8.61-1.32-17.52-8-25.13-3.71C976.27,1700.08,993.91,1714.15,1005.73,1716.61Z"/><path class="cls-4" d="M978.11,1686.69c.51,5.66-1.7,11.33-1,17,1.12,9.58,10,16.46,12.81,25.7,2.32,7.72.11,16.2,2.11,24,1.77,7,6.67,12.64,11,18.42a127,127,0,0,1,15.66,28"/><path class="cls-15" d="M914.56,847.27c6-9,12.25-18.32,21.27-24.35,9.67-6.46,21.52-8.53,33-10.44l48.39-8.08c6.23-1,14.28-1.2,17,4.51,1.72,3.63.13,8.13-2.72,11s-6.7,4.35-10.44,5.81L991.84,837c-4.82,1.87-9.69,3.77-13.94,6.71-8.09,5.58-13.33,14.44-20.92,20.68C944.27,874.86,927,876.6,911.22,877,887.7,877.7,907.19,858.37,914.56,847.27Z"/><path class="cls-4" d="M1017.21,804.4c6.23-1,14.28-1.2,17,4.51,1.72,3.63.13,8.13-2.72,11s-6.7,4.35-10.44,5.81L991.84,837c-4.82,1.87-9.69,3.77-13.94,6.71-8.09,5.58-13.33,14.44-20.92,20.68"/><line class="cls-4" x1="1065.51" y1="820.07" x2="1003.36" y2="835.29"/><line class="cls-4" x1="1076" y1="837.84" x2="1015.17" y2="850.33"/><line class="cls-4" x1="1027.5" y1="867.61" x2="1015.17" y2="867.61"/><path class="cls-5" d="M598.68,1297.52c26,0,46.21,24.57,43.47,52.74-1.58,16.23-5.56,29.9-14.46,29.9H296.41c-8.84,0-12.82-13.64-14.42-29.83-2.78-28.2,17.46-52.81,43.46-52.81Z"/><line class="cls-4" x1="272.77" y1="1780.27" x2="656.14" y2="1780.27"/><circle class="cls-8" cx="272.77" cy="1802.1" r="26.34"/><circle class="cls-8" cx="459.27" cy="1802.1" r="26.34"/><circle class="cls-8" cx="642.48" cy="1802.1" r="26.34"/><path class="cls-5" d="M1908.3,1297.52c26,0,46.21,24.57,43.47,52.74-1.58,16.23-5.56,29.9-14.46,29.9H1606c-8.84,0-12.82-13.64-14.42-29.83-2.78-28.2,17.45-52.81,43.46-52.81Z"/><polygon class="cls-8" points="1351 1307.87 1444 1637.25 1582.86 1637.25 1523.88 1297.52 1351 1307.87"/><path class="cls-21" d="M1672,1117.38l-261.53,39.31-1.58.28c-51.52,9.48-83.34,61.79-69,112.17l11,38.73,93,329.38"/><path class="cls-11" d="M1491.26,1694.46l-27.93-21.28a15.86,15.86,0,0,0-25.43,11.48l-.91,12.64-46,44.45L1339.82,1752a42,42,0,0,0-32.32,30.32l-5.3,19.77h192.11c33.21-14.33,52.25-12.79,61.25,0h59.36a8,8,0,0,0,7.29-11.42c-2-27.42-13.61-53.27-31.42-78.09a14.62,14.62,0,0,0-23.4-.52l-7.49,9.58a18.92,18.92,0,0,1-26,3.67Z"/><path class="cls-4" d="M1437,1697.3l-46,44.45L1339.82,1752a42,42,0,0,0-32.32,30.32l-5.3,19.77"/><path class="cls-11" d="M1302.2,1802.1v12.32a11.1,11.1,0,0,0,11.11,11.11h307.53a9.34,9.34,0,0,0,9.05-11.67l-9.51-37Z"/><line class="cls-4" x1="1766.16" y1="1380.16" x2="1763.36" y2="1780.27"/><line class="cls-4" x1="1576.86" y1="1780.27" x2="1960.23" y2="1780.27"/><circle class="cls-8" cx="1576.86" cy="1802.1" r="26.34"/><circle class="cls-8" cx="1763.36" cy="1802.1" r="26.34"/><circle class="cls-8" cx="1946.57" cy="1802.1" r="26.34"/><rect class="cls-18" x="1091.75" y="1104.97" width="30.45" height="734.95"/><rect class="cls-18" x="1793.01" y="1104.97" width="30.45" height="734.95"/><line class="cls-4" x1="1680.58" y1="594.91" x2="1708.65" y2="623.02"/></svg>