<svg id="Layer_3" data-name="Layer 3" xmlns="http://www.w3.org/2000/svg" viewBox="0 0 2377.3 2100"><defs><style>.cls-1{fill:#91b6ed;}.cls-10,.cls-2{fill:none;stroke-linecap:round;stroke-linejoin:round;stroke-width:5px;}.cls-2{stroke:#231f20;}.cls-3{fill:#ff71af;}.cls-4{fill:#1c1919;}.cls-5{fill:#3856dd;}.cls-6{fill:#f4a2a2;}.cls-7{fill:#ead9d0;}.cls-8{fill:#231f20;}.cls-9{fill:#fff;}.cls-10{stroke:#fff;}.cls-11{fill:#e8d2ca;}</style></defs><path class="cls-1" d="M878.15,1488.78a238.2,238.2,0,0,0-169.57-70.24H671.8a89.41,89.41,0,0,1-89.31-89.31v-66.47A299.21,299.21,0,0,0,283.1,963.37H202.75V893L68.08,1027.7l134.67,134.66V1092H283.1c94.15,0,170.74,76.59,170.74,170.73v66.47a218,218,0,0,0,218,218h36.78a111.29,111.29,0,0,1,111.16,111.16l-.94,228.91H943.08l5.31-228.91A238.2,238.2,0,0,0,878.15,1488.78Z"/><path class="cls-2" d="M1587.88,307.17,1453.21,172.5,1318.55,307.17h70.34V480a200.49,200.49,0,0,0-190.05,200.19V1776.48H1327.5V680.16a71.88,71.88,0,0,1,71.8-71.8,118.38,118.38,0,0,0,118.24-118.24V307.17Z"/><polygon class="cls-3" points="337.41 592.48 202.75 727.15 337.41 861.82 337.41 592.48"/><path class="cls-3" d="M1126.21,1783.55H997.55V827.24c0-7.66-5.14-14.13-11.22-14.13s-11.23,6.47-11.23,14.13v704.94c0,64.16-71.6,163.26-159.61,163.26s-159.61-73.24-159.61-163.26V387.77c0-13.34-9.38-24.19-20.92-24.19S614,374.43,614,387.77V540.43c0,65.43-24.66,127.07-69.42,173.55a238.71,238.71,0,0,1-76.29,53.35,232.73,232.73,0,0,1-94.22,19.76H297.84V658.44h76.27c61.36,0,111.28-52.94,111.28-118V387.77c0-84.28,67.1-152.84,149.57-152.84s149.57,68.56,149.57,152.84V1532.18c0,19.08,13.89,34.61,31,34.61s31-15.53,31-34.61V827.24c0-78.73,62.75-142.78,139.88-142.78s139.88,64,139.88,142.78Z"/><polygon class="cls-4" points="1517.54 307.17 1468.55 307.17 1517.54 336.3 1517.54 307.17"/><polygon class="cls-4" points="337.41 790.9 337.41 727.15 364.17 790.97 337.41 790.9"/><path d="M520,348.23a3.86,3.86,0,0,1-1.28-2.91,5.19,5.19,0,0,1,1.8-3.12L523,343c-.16,1.16-.32,2.29-.49,3.46C521.74,347,520.9,347.58,520,348.23Z"/><path d="M531.88,335.41c-.11.57-.23,1.14-.34,1.69,1.79,1.38,1.8,1.4.9,4.47a10.67,10.67,0,0,1-2.41-4.95C529.82,335.43,530.16,335.21,531.88,335.41Z"/><path d="M554.37,294.51a21.79,21.79,0,0,1,2.44-.69c.11,0,.42.39.43.61.07,1-.82,1.36-1.51,1.75-.33.18-1.13.18-1.26,0C554.24,295.8,554.38,295.22,554.37,294.51Z"/><path d="M516,398.31a3.58,3.58,0,0,1,2.21,1.21,2.12,2.12,0,0,1-.07,2C516.59,401.11,516.48,399.78,516,398.31Z"/><path d="M523.44,328.32c-1.19-.75-1.35-1.4-.81-2.24a2.93,2.93,0,0,1,3.85-1.28,5.39,5.39,0,0,0-2.18,1.14A3.25,3.25,0,0,0,523.44,328.32Z"/><path d="M507.2,393.19c-.33-1.68-.66-3.37-1-5.24,1.5.85,2,2.89,1.49,5.12Z"/><path d="M531,348c.91,1.85.84,2.1-.29,3.3a2.33,2.33,0,0,1-.84-1.64A3,3,0,0,1,531,348Z"/><path d="M522.32,410.46c-.54-1.74-1.11-3.49-1.65-5.34a1.22,1.22,0,0,1,1.48.9,20.36,20.36,0,0,1,.74,3.25c.05.35-.39.77-.6,1.17Z"/><path d="M539.54,305c.06,1.34.15,2.44.21,3.5-1-.24-2-1.13-1.88-1.82A2,2,0,0,1,539.54,305Z"/><path d="M545.42,312.71c.93-.76.38-3.09,2.65-2.58C547.39,312.18,547,312.58,545.42,312.71Z"/><path d="M524.56,399.09c-1.29,1.77-2.9.3-4.72.8C521.49,398,523.11,399.13,524.56,399.09Z"/><path d="M544.74,299.15c-.83-2.08-.27-3,2.58-4.43C546.39,296.26,545.57,297.65,544.74,299.15Z"/><path d="M538.42,338.42a3.77,3.77,0,0,1-1,2.36,9.19,9.19,0,0,1-2,1.65c-.19-1.11.84-1.37,1.33-2Z"/><path d="M555.1,291.53c.27-1.18.51-2.41,1.71-3.17C557.37,289.69,557.1,290.08,555.1,291.53Z"/><path d="M527,333.1l-1.14,1.07-1,1c-.66-.65-.76-1.33-.19-1.93A1.69,1.69,0,0,1,527,333.1Z"/><path d="M542,330.5a3.14,3.14,0,0,1-.88,3.26C540.35,332.24,541,331.31,542,330.5Z"/><path d="M531.8,364.14c.83.94,1.41,1.88.68,3.21A3,3,0,0,1,531.8,364.14Z"/><path d="M504.45,376.54c.17-.86.26-1.73.51-2.57.32-1,.53-1,1.74-.11-.7.95-1.29,1.91-1.93,2.88Z"/><path d="M529.82,323.79a2.88,2.88,0,0,1-.67,2.75c-.51.68-.94.28-1.3-.42Z"/><path d="M500.07,384.53c0,.94,0,1.9-.08,2.81a3.8,3.8,0,0,1-1.19,2.5l.58-2.66Z"/><path d="M535.89,381.06c0,1,0,2,.09,3.08-1.11-1-.69-2-.53-3.06Z"/><path d="M543.71,332.9c.13-1.21.12-1.2,1.17-1.62C544.83,332.29,544.84,332.27,543.71,332.9Z"/><path d="M532.62,380.78c-.79-.7-1.17-1.42-.59-2.12l.61,0Z"/><polygon points="576.61 278.17 574.36 278.87 574.18 278.37 576.43 277.56 576.61 278.17"/><path d="M521.21,360.84c-1.59-.8-1.57-.41-.31-1.72C521,359.81,521.12,360.33,521.21,360.84Z"/><polygon points="543.02 343.73 542.15 345.7 541.68 345.51 542.4 343.42 543.02 343.73"/><path d="M532.82,345.09c0-.52-.15-.92,0-1.14s.72-.51.91-.41c.62.34.28.74-.07,1C533.48,344.74,533.23,344.83,532.82,345.09Z"/><path d="M549.58,297l2-1c-.6,1.08-.59,1.08-1.8,1.36Z"/><path d="M514.48,395.72l-1.18-1.82c1.39.21,1.54.85,1.66,1.51Z"/><path d="M533.46,351.08l.62-1.38c.54.89.31,1.26-.18,1.56Z"/><path d="M510.93,399.81l1.28-1.44c.3,1.33-.21,1.65-.86,1.86Z"/><path d="M530.2,359.6c.38-.09.66-.24.82-.17a.58.58,0,0,1,.22.57.69.69,0,0,1-.6.25C530.49,360.23,530.4,359.91,530.2,359.6Z"/><path d="M547.3,300.14a2.94,2.94,0,0,1,.68.12,9.2,9.2,0,0,1,0,1.05c-.16-.05-.44-.06-.48-.16A4.67,4.67,0,0,1,547.3,300.14Z"/><path d="M534.26,309.13c.38,0,.76,0,1.14,0a.83.83,0,0,1,.06.35c-.36.15-.73.27-1.1.39Z"/><path d="M541.68,328l-1.14,1.19c-.11-.37-.25-.62-.19-.68a10.57,10.57,0,0,1,1-.87Z"/><path d="M509.51,389a10.86,10.86,0,0,1,1.13-.13,3.09,3.09,0,0,1,.12.53l-1.19.16Z"/><polygon points="547.17 333.81 546.6 334.54 546.28 334.32 546.81 333.5 547.17 333.81"/><polygon points="557.62 303.83 555.91 303.54 555.96 303.03 557.7 303.18 557.62 303.83"/><polygon points="528.54 351.34 528.04 352.61 527.65 352.49 528.03 351.11 528.54 351.34"/><path d="M526.37,360.76c.32-.73.5-1,.64-1.34l.34.06c0,.25.11.52,0,.72S527,360.41,526.37,360.76Z"/><polygon points="540.95 339.95 540.25 341.15 539.89 340.97 540.48 339.73 540.95 339.95"/><polygon points="530.31 321.41 529.24 322.38 528.97 322.1 529.94 321.02 530.31 321.41"/><polygon points="518.28 352.95 517.07 352.43 517.24 351.99 518.49 352.43 518.28 352.95"/><path d="M514.11,374.75c.34-.13.66-.34.75-.27a.76.76,0,0,1,.25.66c0,.16-.36.26-.56.39C514.43,375.32,514.3,375.1,514.11,374.75Z"/><path d="M529.69,397.68l.1.9-.35,0c-.06-.29-.09-.59-.13-.89Z"/><path d="M537.18,353.59l-.21.85c-.12,0-.33-.09-.34-.13a7.12,7.12,0,0,1,0-.8Z"/><polygon points="537.79 368.67 537.9 367.48 538.35 367.55 538.19 368.73 537.79 368.67"/><path d="M516.51,395l-.76-.91.18-.24a2.26,2.26,0,0,1,.63.36,1.66,1.66,0,0,1,.21.65Z"/><path d="M558.16,307.08c-.08-.28-.22-.55-.16-.6a2.06,2.06,0,0,1,.63-.31c.08.2.3.51.24.59S558.45,307,558.16,307.08Z"/><polygon points="522.23 388.08 523.36 388.42 523.27 388.78 522.07 388.56 522.23 388.08"/><polygon points="566.95 289.97 567.76 289.42 567.98 289.7 567.21 290.38 566.95 289.97"/><polygon points="543.47 310.43 544.29 309.94 544.51 310.22 543.76 310.85 543.47 310.43"/><polygon points="528.57 408.9 528.11 408.1 528.4 407.92 529 408.65 528.57 408.9"/><polygon points="590.78 270.14 589.34 270.16 589.32 269.89 590.72 269.72 590.78 270.14"/><path d="M522.29,410.44c-.11.53-.06,1.15-.93,1.38-.15-.86.5-1.06,1-1.36Z"/><path d="M521,352.91c.12.33.28.58.23.64a2.19,2.19,0,0,1-.59.37c-.08-.16-.26-.37-.22-.46S520.77,353.14,521,352.91Z"/><polygon points="510.51 383.5 511 384.7 510.64 384.86 510.15 383.66 510.51 383.5"/><path d="M515.79,387.41c-.06.51,0,.77-.07,1a3.1,3.1,0,0,1-.36-.53S515.49,387.74,515.79,387.41Z"/><path d="M528.83,330.27c-.06.33-.05.57-.15.67s-.33,0-.5,0c0-.13,0-.31.05-.38A3.23,3.23,0,0,1,528.83,330.27Z"/><path d="M525.28,328.37a2.55,2.55,0,0,1,.11-.51c0-.05.22,0,.34,0a3,3,0,0,1,0,.52S525.48,328.36,525.28,328.37Z"/><polygon points="535.6 406.86 535.17 406.06 535.46 405.91 536.02 406.62 535.6 406.86"/><path d="M527.05,401.61a6.61,6.61,0,0,1,.34.64s-.16.14-.25.22l-.5-.69Z"/><polygon points="514.07 370.73 513.54 371.71 513.3 371.6 513.72 370.57 514.07 370.73"/><path d="M523.32,330.5l.33-.13,0,.48c-.12,0-.28,0-.33,0S523.33,330.62,523.32,330.5Z"/><path d="M535.76,293.3l.41-.12c0,.19,0,.41,0,.54s-.32.09-.48.13C535.68,293.66,535.72,293.47,535.76,293.3Z"/><path d="M526.49,380.3l.44-.24c.06.1.2.24.17.28a1.78,1.78,0,0,1-.4.31Z"/><path d="M531.17,387.9c.09.07.25.15.23.21s-.15.16-.23.25c-.08-.07-.25-.16-.24-.21S531.09,388,531.17,387.9Z"/><path d="M509.74,371.16c.05.13.15.26.12.36s-.17.15-.27.22c0-.11-.15-.24-.12-.35S509.64,371.24,509.74,371.16Z"/><path d="M527,355l-.21-.3.38-.22a.79.79,0,0,1,.09.34C527.22,354.9,527.07,354.94,527,355Z"/><path d="M508.28,365.11c0,.09.17.27.15.29a2.6,2.6,0,0,1-.38.27c0-.13-.09-.27-.05-.37S508.18,365.17,508.28,365.11Z"/><path d="M533.77,398.64l.33.11c-.05.09-.08.24-.17.27s-.22-.06-.33-.1Z"/><path d="M530.13,396.4c.08-.14.14-.23.19-.33a2.13,2.13,0,0,1,.38.35c0,.05-.09.18-.14.27Z"/><path d="M510,324.3l.06.18-.31.09c0-.07,0-.16.06-.2S510,324.32,510,324.3Z"/><path d="M492.07,385.6a3.5,3.5,0,0,1,.24-.3s.14.1.14.14a3.15,3.15,0,0,1-.09.42Z"/><path d="M538.32,310.82l.16-.07a2.52,2.52,0,0,1,.12.29l-.16.07Z"/><path d="M565.3,311.87v-.3c.11,0,.25,0,.31.11s0,.19,0,.3Z"/><path d="M514.33,408.59l.18.25-.14.1c-.07-.08-.12-.17-.18-.25Z"/><path d="M543,307.82a2.39,2.39,0,0,1,.13-.28s.1,0,.15,0a2.39,2.39,0,0,1-.13.28Z"/><path d="M533.84,353.36a1.13,1.13,0,0,1,.31.06s0,.15,0,.17a1.57,1.57,0,0,1-.3.12Z"/><path d="M529.5,386.65l-.26-.19c.08-.07.16-.2.25-.2s.18.11.26.18Z"/><path d="M548.33,315.61l.18.07-.22.22s-.09-.11-.09-.16S548.29,315.65,548.33,315.61Z"/><path d="M544.86,303.72c0-.1-.14-.23-.11-.31s.19-.12.29-.17.14.23.11.3S545,303.66,544.86,303.72Z"/><path d="M522.37,351.16l.18.07-.21.2c0-.05-.1-.1-.09-.15S522.33,351.2,522.37,351.16Z"/><path d="M540.18,364c.12,0,.23,0,.34,0s.09.13.07.14a1.13,1.13,0,0,1-.26.16Z"/><path d="M523.66,359.85l.1-.16.18.23c-.06,0-.11.07-.16.06S523.7,359.89,523.66,359.85Z"/><path d="M504.24,354.65l.28-.16a1.2,1.2,0,0,1,.07.18,2.61,2.61,0,0,1-.27.19Z"/><path d="M515.75,367.15l.17-.08.07.28c-.07,0-.15,0-.19,0S515.77,367.2,515.75,367.15Z"/><path d="M529.55,374.37s-.13,0-.15-.08,0-.1,0-.15l.25.12Z"/><path d="M525.07,299.6l.3-.16c0,.11,0,.22,0,.34s-.14.1-.15.09A2.61,2.61,0,0,1,525.07,299.6Z"/><path d="M536.18,387.23c.09,0,.22.1.24.17s-.06.18-.1.27c-.08-.06-.21-.11-.23-.18S536.15,387.31,536.18,387.23Z"/><path d="M514.6,398.67l-.25.26a2.24,2.24,0,0,1-.11-.34s.08-.1.13-.15Z"/><path d="M528.33,415.75c0,.06,0,.13,0,.16s-.11,0-.17.08l0-.26Z"/><path d="M517.28,418.42l.23-.19a1.24,1.24,0,0,0,.1.13l-.23.2Z"/><path d="M566.12,282.1a1.55,1.55,0,0,1-.21.23s-.09-.06-.14-.09A2.39,2.39,0,0,1,566,282S566.08,282.07,566.12,282.1Z"/><path d="M558.12,299.82c0-.05-.06-.11,0-.15s.09-.07.14-.1l.08.26Z"/><path d="M571,280.18l.1.15-.27.17a.8.8,0,0,1-.08-.14A2,2,0,0,1,571,280.18Z"/><path d="M526.27,342.61c-.1,0-.21-.05-.31-.09a.86.86,0,0,1,0-.17,1.81,1.81,0,0,1,.31.09A1,1,0,0,1,526.27,342.61Z"/><path d="M518.3,341.49v.2l-.28-.08c0-.06.06-.14.11-.16S518.24,341.47,518.3,341.49Z"/><path d="M562.47,295.82h-.33c0-.06,0-.16,0-.19a1.82,1.82,0,0,1,.31-.16Z"/><path d="M559.43,292.56l.29.08a1,1,0,0,1-.05.16,1.53,1.53,0,0,1-.29-.07Z"/><path d="M525.24,348.62l.07-.16.28.12a2.2,2.2,0,0,1-.25.17A1.15,1.15,0,0,0,525.24,348.62Z"/><path d="M523.46,350.28l-.13-.12.23-.14c0,.06.06.12,0,.17S523.51,350.25,523.46,350.28Z"/><path d="M561.18,285.6s.07.14.06.15a1.87,1.87,0,0,1-.28.16c0-.05-.07-.14-.06-.15Z"/><path d="M539.68,331.06c-.11,0-.21.07-.32.09s-.08-.14-.06-.17a1.37,1.37,0,0,1,.23-.25Z"/><path d="M574.41,298.88c.05,0,.13,0,.15.08s0,.1,0,.16l-.24-.12Z"/><path d="M541.17,360.72l.11.13-.24.08c0-.05,0-.12,0-.15S541.11,360.74,541.17,360.72Z"/><polygon points="512.09 365.34 512.1 365.18 512.22 365.27 512.09 365.34"/><path d="M520.53,350c.06,0,.13,0,.16,0s0,.1.06.15l-.26,0Z"/><polygon points="586.35 267.22 586.16 267.28 586.21 267.13 586.35 267.22"/><polygon points="573.05 272.09 573.18 272.17 573.03 272.24 573.05 272.09"/><polygon points="532.22 307.1 532.28 306.98 532.35 307.09 532.22 307.1"/><path d="M503.06,397.06l-.15.1-.07-.31c.06,0,.14,0,.18,0S503.05,397,503.06,397.06Z"/><path d="M532.67,396.76l.16-.07,0,.23s-.13,0-.17,0S532.69,396.81,532.67,396.76Z"/><path d="M513.62,381.7s.08-.12.13-.12.1.06.15.1l-.22.2Z"/><path d="M554.69,309.49l-.18,0,.12-.27c0,.05.12.09.13.14S554.72,309.43,554.69,309.49Z"/><path d="M542.16,306a.34.34,0,0,1,0,.17s-.1.05-.16.07l0-.28Z"/><path d="M517.79,362.42l.17-.09,0,.3c-.07,0-.15,0-.18,0S517.8,362.49,517.79,362.42Z"/><path d="M515.7,313.33c0,.05.11.1.1.15s-.08.11-.12.17l-.17-.24Z"/><polygon points="519.75 403.31 519.81 403.19 519.89 403.29 519.75 403.31"/><path d="M605.12,289.28a1.25,1.25,0,0,1,.25.09,1.11,1.11,0,0,0,0,.13l-.25-.09S605.1,289.32,605.12,289.28Z"/><path d="M502.93,370.42l.09-.13s.1.07.1.1-.05.09-.08.13Z"/><path d="M531.77,391.08l.15.1-.23.16s-.07-.11-.05-.15S531.72,391.12,531.77,391.08Z"/><path d="M538.93,314.11c0-.06,0-.13,0-.17s.1-.05.15-.07l.06.26Z"/><polygon class="cls-4" points="202.75 1092.03 202.75 1029.93 236.72 1092.03 202.75 1092.03"/><path class="cls-1" d="M1444.82,1787.43H1316.17V895.78c0-78.55,63.91-142.45,142.45-142.45s142.46,63.9,142.46,142.45v642.06a22.69,22.69,0,0,0,45.38,0V611.05c0-93.43,76-169.44,169.44-169.44s169.44,76,169.44,169.44V793.54a74.09,74.09,0,0,0,74,74h135V996.2h-135a202.67,202.67,0,0,1-202.66-202.66V611.05a40.79,40.79,0,1,0-81.57,0l-1.67,1127.78c0,83.45-68.43,148.43-151.88,148.43S1483,1803.09,1483,1719.64l-10.57-823.86a13.81,13.81,0,0,0-27.61,0Z"/><polygon class="cls-1" points="2168.21 801.75 2302.88 936.41 2168.21 1071.08 2168.21 801.75"/><path class="cls-1" d="M1884.82,503.9a7.29,7.29,0,0,1,6.18-.54,7.8,7.8,0,0,1,2.57,2,12.76,12.76,0,0,1,2.21,3.44l-3,4c-2-1.14-4-2.07-6.08-3.09C1886.18,507.87,1885.51,506,1884.82,503.9Z"/><path class="cls-1" d="M1899.74,534.12l-2.75-1.85c-3.86,2.16-3.8,2.05-8.45-1.66a20.65,20.65,0,0,1,5.28-1.07,17.4,17.4,0,0,1,5.19.43C1901.28,530.49,1901.43,531.25,1899.74,534.12Z"/><path class="cls-1" d="M1941.05,613c-.72,1.75-1.28,3.16-2,4.49-.1.18-1.09.15-1.44-.1-1.66-1.17-1-2.91-.75-4.4.13-.73,1.1-1.93,1.57-1.87C1939.26,611.26,1940,612.19,1941.05,613Z"/><path class="cls-1" d="M1790.47,490.89c-.67,4.73-2.17,5.84-5.67,4.88C1785.26,492.68,1787.8,492.33,1790.47,490.89Z"/><path class="cls-1" d="M1919,525c2.28-1.48,3.56-1.2,4.65.52,1.77,2.92,1.6,5.43-.83,8C1923.21,529.94,1922.89,526.83,1919,525Z"/><path class="cls-1" d="M1798.51,472.93c3.24-1,6.52-2,10.26-2.94a6.51,6.51,0,0,1-3.85,3.17,13.18,13.18,0,0,1-6.09.6Z"/><path class="cls-1" d="M1878.4,524.14c-1.93.31-3,.45-3.72.14a2,2,0,0,1-.93-.81,10.5,10.5,0,0,1-.88-1.55c1.46-.73,2.53-1,3.36-.65S1877.71,522.56,1878.4,524.14Z"/><path class="cls-1" d="M1769,506.17c1.57-.79,3.14-1.57,4.75-2.31s3.25-1.52,4.94-2.25a2.32,2.32,0,0,1-1.31,3,43.46,43.46,0,0,1-6,2.27c-.66.2-1.59-.51-2.4-.81Z"/><path class="cls-1" d="M1943.15,577.52c-2.19-1.54-4-2.76-5.71-3.93,1.45-1.21,4-1.81,5-.8C1943.74,574.13,1943.76,575.78,1943.15,577.52Z"/><path class="cls-1" d="M1924.4,577.61c.08,2.29,4.32,4.15.88,7C1922.89,581.23,1922.73,580.24,1924.4,577.61Z"/><path class="cls-1" d="M1791,507.6c-3.63-2.11-1.28-5.49-2.65-8.88C1792.42,501.41,1790.6,504.8,1791,507.6Z"/><path class="cls-1" d="M1945.94,592.87c2,.67,3.26,1.51,3.8,2.94a6.61,6.61,0,0,1,.31,2.64,23.61,23.61,0,0,1-.65,3.82C1948.28,599,1947.13,596,1945.94,592.87Z"/><path class="cls-1" d="M1889.21,543.22c-3.36-1.61-3.88-4.71-4.47-7.94,2,.43,1.71,2.35,2.33,3.69S1888.53,541.78,1889.21,543.22Z"/><path class="cls-1" d="M1944.61,617.74c1.44,1.83,3,3.64,2.69,6.31C1944.63,623.32,1944.31,622.48,1944.61,617.74Z"/><path class="cls-1" d="M1907.62,527.37c-.78-2-1.37-3.7-2.1-5.45,1.68-.71,2.91-.28,3.57,1.23S1909.41,526.1,1907.62,527.37Z"/><path class="cls-1" d="M1899.56,555.3a5.7,5.7,0,0,1-4.7-4.09C1898.1,551.16,1899,553.08,1899.56,555.3Z"/><path class="cls-1" d="M1850.93,519.52c-1.86,1.39-3.5,2.27-5.36.84a4.64,4.64,0,0,1,2.87-1.41A6.55,6.55,0,0,1,1850.93,519.52Z"/><path class="cls-1" d="M1831.92,465.67a49,49,0,0,1,5.36,1.12c2.1.6,2.09,1,.22,3.36-2-1.3-4-2.68-6-3.86Z"/><path class="cls-1" d="M1921.76,540.24c-2.49-.51-3.39-2.12-4.24-3.61s.26-1.91,1.8-1.93c.38.82.79,1.64,1.18,2.55S1921.3,539.14,1921.76,540.24Z"/><path class="cls-1" d="M1814.88,457.71c-2,.1-4,.35-5.83.28a8.19,8.19,0,0,1-5.35-1.94l5.59.74C1811.16,457.07,1813,457.4,1814.88,457.71Z"/><path class="cls-1" d="M1824,526.6l-1.18.07-1.21.14c-.8.09-1.59.14-2.41.25a3.2,3.2,0,0,1,2.35-1.55,7.32,7.32,0,0,1,2.42.26Z"/><path class="cls-1" d="M1894,556.33c1.88,1.16,1.93,1.16,1.59,3.23C1894,558.67,1894,558.71,1894,556.33Z"/><path class="cls-1" d="M1824.44,520.27a4.76,4.76,0,0,1,1.72-1.62,1.37,1.37,0,0,1,1.7.42l-.06,1.17C1826.71,520.18,1825.55,520.26,1824.44,520.27Z"/><polygon class="cls-1" points="1942.87 665.89 1943.53 661.5 1944.54 661.61 1944.07 666.07 1942.87 665.89"/><path class="cls-1" d="M1860.71,500.42c2-2.77,1.35-2.89,3.27,0C1862.66,500.42,1861.71,500.37,1860.71,500.42Z"/><path class="cls-1" d="M1876.37,547.52c-.8-1-1.66-1.82-2.5-2.71l.71-.68c.93.83,1.91,1.62,2.81,2.54Z"/><path class="cls-1" d="M1882.12,529c.89.3,1.69.33,2,.74s.37,1.58,0,1.84c-1,.88-1.49,0-1.77-.76A11.31,11.31,0,0,1,1882.12,529Z"/><path class="cls-1" d="M1943.17,602.8l-1,4.19c-.89-2.22-.91-2.21.16-4.35Z"/><path class="cls-1" d="M1795.09,487.42l3.25-2.59c-.13,2.72-1.32,3.11-2.57,3.44Z"/><path class="cls-1" d="M1871.42,526.9l1.93,1.76c-1.89.52-2.34,0-2.53-1.06Z"/><path class="cls-1" d="M1786.39,481.6c.88.58,1.74,1.14,3.08,2.06-2.48.94-3.22.07-3.78-1.16Z"/><path class="cls-1" d="M1859.1,517.66c0,.73.08,1.28-.12,1.56a1.06,1.06,0,0,1-1.06.25,1.34,1.34,0,0,1-.12-1.19C1857.91,518,1858.48,517.93,1859.1,517.66Z"/><path class="cls-1" d="M1941.3,595.52c-.51.46-.93.94-1,.88a15.92,15.92,0,0,1-1.55-1.3c.28-.19.63-.6.84-.54A9.1,9.1,0,0,1,1941.3,595.52Z"/><path class="cls-1" d="M1942.52,563.9a21,21,0,0,1-1.22,1.89,1.39,1.39,0,0,1-.62-.33c.15-.77.34-1.52.53-2.29Z"/><path class="cls-1" d="M1903.94,556.86l-.88-2.85c.73.13,1.27.11,1.32.26a20.62,20.62,0,0,1,.47,2.34Z"/><path class="cls-1" d="M1807.3,476.58a20.12,20.12,0,0,1,.43,2.16,5.93,5.93,0,0,1-1,.31l-.52-2.28Z"/><polygon class="cls-1" points="1889.26 561.36 1888.58 559.87 1889.24 559.51 1890.1 561.01 1889.26 561.36"/><polygon class="cls-1" points="1923.12 606.43 1925.67 604.24 1926.36 604.92 1923.99 607.33 1923.12 606.43"/><path class="cls-1" d="M1874.18,517.89c-.63-.53-1.26-1-1.93-1.52l.46-.66c.75.41,1.47.89,2.19,1.36Z"/><path class="cls-1" d="M1858.83,510.24c1.13.85,1.61,1.18,2.08,1.56l-.26.6c-.42-.06-1,.07-1.26-.14S1859.17,511.52,1858.83,510.24Z"/><path class="cls-1" d="M1884.49,546.46c-.46-.69-1-1.32-1.47-2l.6-.5c.55.61,1.12,1.2,1.65,1.83Z"/><path class="cls-1" d="M1925.44,543.27c-.21-.93-.46-1.85-.72-2.76l.73-.22c.36.89.69,1.8,1,2.71Z"/><polygon class="cls-1" points="1876.75 498.1 1878.29 496.08 1879.07 496.65 1877.64 498.78 1876.75 498.1"/><path class="cls-1" d="M1835.56,484.44c.25.64.65,1.25.5,1.44a1.58,1.58,0,0,1-1.29.5c-.32-.07-.5-.69-.75-1.07Z"/><path class="cls-1" d="M1794.87,517.07l-1.62.44c0-.24-.16-.67-.15-.67.53-.19,1.07-.34,1.6-.49Z"/><path class="cls-1" d="M1864.76,532.36l-1.2-.72c.15-.19.36-.55.43-.54a9.76,9.76,0,0,1,1.28.36Z"/><polygon class="cls-1" points="1841.66 530.21 1843.33 530.44 1843.06 531.25 1841.43 530.94 1841.66 530.21"/><path class="cls-1" d="M1796.82,491.2l1.58-1.61.5.3a3.93,3.93,0,0,1-.56,1.26,3.19,3.19,0,0,1-1.2.52Z"/><path class="cls-1" d="M1917.62,603.27c.53.22,1.09.34,1.1.49a4.15,4.15,0,0,1-.3,1.3c-.41-.12-1.14-.17-1.18-.36C1917.15,604.32,1917.44,603.85,1917.62,603.27Z"/><polygon class="cls-1" points="1810.91 501.01 1810.45 503.23 1809.78 503.11 1810.01 500.76 1810.91 501.01"/><polygon class="cls-1" points="1932.91 637.73 1932.85 639.67 1932.16 639.72 1931.99 637.67 1932.91 637.73"/><polygon class="cls-1" points="1930.18 577.2 1929.98 579.05 1929.28 579.06 1929.2 577.16 1930.18 577.2"/><polygon class="cls-1" points="1773.71 517.7 1775.08 516.57 1775.51 517.08 1774.29 518.44 1773.71 517.7"/><polygon class="cls-1" points="1950.65 694.52 1950.93 692.07 1951.47 692.09 1951.46 694.48 1950.65 694.52"/><path class="cls-1" d="M1769,506.11c-1,0-2.2.24-2.88-1.39,1.59-.49,2.15.66,2.85,1.45Z"/><path class="cls-1" d="M1875.49,503.3c-.67.07-1.22.25-1.3.12a4.42,4.42,0,0,1-.4-1.29c.33-.08.82-.32,1-.19A4.88,4.88,0,0,1,1875.49,503.3Z"/><path class="cls-1" d="M1818.19,477.77l-2.31,1.05-.36-.67c.76-.37,1.54-.71,2.32-1.06Z"/><path class="cls-1" d="M1811.24,488.48c-1,0-1.47,0-2,0a6.81,6.81,0,0,1,1-.76C1810.31,487.68,1810.58,488,1811.24,488.48Z"/><path class="cls-1" d="M1911.2,532.88c-.53-.39-1-.56-1-.83s.21-.61.33-.92c.22.13.56.22.63.41A5.68,5.68,0,0,1,1911.2,532.88Z"/><path class="cls-1" d="M1917.42,528.2a4.38,4.38,0,0,1,.84.63c.07.09-.15.41-.23.62a6,6,0,0,1-.89-.5A4,4,0,0,1,1917.42,528.2Z"/><polygon class="cls-1" points="1779.52 530.58 1780.88 529.57 1781.24 530.09 1780.07 531.34 1779.52 530.58"/><path class="cls-1" d="M1787,512.91a9.33,9.33,0,0,1-1.1.8c-.07,0-.31-.28-.47-.43l1.15-1.12Z"/><polygon class="cls-1" points="1843.44 484.64 1841.57 483.49 1841.81 483.03 1843.78 483.99 1843.44 484.64"/><path class="cls-1" d="M1915.18,522.88v.69l-.91-.32c.08-.2.11-.53.26-.59S1915,522.79,1915.18,522.88Z"/><path class="cls-1" d="M1965.65,586.45l-.31.79c-.27-.25-.66-.46-.75-.77s.23-.61.36-.92Z"/><path class="cls-1" d="M1825.22,508.4c.13.28.27.56.41.85-.17.12-.42.38-.49.32a3.58,3.58,0,0,1-.53-.75Z"/><path class="cls-1" d="M1812.49,518.22c-.11.17-.23.5-.32.48s-.31-.26-.46-.4c.11-.18.23-.51.33-.5S1812.34,518.07,1812.49,518.22Z"/><path class="cls-1" d="M1842.93,476.18c-.26.08-.53.27-.74.22s-.29-.35-.43-.54c.24-.09.51-.27.72-.22S1842.78,476,1842.93,476.18Z"/><path class="cls-1" d="M1868.64,513.4l.63-.25.18.78c-.22,0-.49.12-.64,0S1868.69,513.6,1868.64,513.4Z"/><path class="cls-1" d="M1855.55,474.38c-.19.07-.57.26-.62.22a4.42,4.42,0,0,1-.5-.77c.25,0,.56-.13.76,0S1855.44,474.17,1855.55,474.38Z"/><path class="cls-1" d="M1794.12,525.17l-.12.66c-.18-.08-.45-.12-.52-.27s0-.44.09-.66Z"/><path class="cls-1" d="M1797.3,517.65l.63.3a3.48,3.48,0,0,1-.54.78c-.08.08-.34-.13-.52-.21C1797,518.22,1797.16,517.93,1797.3,517.65Z"/><path class="cls-1" d="M1936.46,504.15l-.39,0,0-.65c.12.1.29.18.35.3S1936.47,504,1936.46,504.15Z"/><path class="cls-1" d="M1811.53,442.44a7.66,7.66,0,0,1,.68.41s-.18.28-.28.29a6.91,6.91,0,0,1-.9-.11Z"/><path class="cls-1" d="M1935.36,568.55l-.06.35a5.69,5.69,0,0,1-.59-.16s0-.22.06-.33Z"/><path class="cls-1" d="M1901.7,608l.43.39c-.18.11-.38.32-.55.31s-.28-.24-.43-.37Z"/><path class="cls-1" d="M1770.36,490.35l-.44.41c-.07-.09-.23-.23-.22-.24a5.55,5.55,0,0,1,.42-.42Z"/><path class="cls-1" d="M1934.8,579.52c.09.18.2.35.28.54,0,0-.17.11-.26.17a5.52,5.52,0,0,1-.28-.54S1934.71,579.58,1934.8,579.52Z"/><path class="cls-1" d="M1867.4,526.5a3.16,3.16,0,0,1-.31.54s-.27,0-.28-.07a2.33,2.33,0,0,1,0-.59Z"/><path class="cls-1" d="M1814.43,514.81l.31-.54c.13.15.35.28.37.46s-.18.35-.28.53Z"/><path class="cls-1" d="M1916.54,578.89l-.32.18-.1-.56c.13,0,.29,0,.36,0S1916.53,578.77,1916.54,578.89Z"/><path class="cls-1" d="M1938.88,587.4c.2.06.52.06.59.2s0,.44-.08.67c-.21-.07-.52-.07-.6-.22S1938.84,587.62,1938.88,587.4Z"/><path class="cls-1" d="M1878.05,506.66l-.22.29-.26-.48c.11,0,.24-.12.32-.09S1878,506.57,1878.05,506.66Z"/><path class="cls-1" d="M1847.16,535a4.39,4.39,0,0,1-.15.6s-.23.16-.25.12a2.81,2.81,0,0,1-.09-.47Z"/><path class="cls-1" d="M1861.56,505.44l.24.23-.47.26c0-.11-.09-.24,0-.33S1861.47,505.49,1861.56,505.44Z"/><path class="cls-1" d="M1878.56,470.42l.26.63c-.13,0-.37.06-.39,0a4.54,4.54,0,0,1-.32-.62Z"/><path class="cls-1" d="M1850.21,488.39l.13.34-.57.08c0-.12,0-.27.1-.35S1850.09,488.41,1850.21,488.39Z"/><path class="cls-1" d="M1835.05,514.19c0-.09.09-.24.15-.27s.17,0,.25,0l-.23.46Z"/><path class="cls-1" d="M1968,560.6l-.06.74a3.79,3.79,0,0,1-.6-.38.6.6,0,0,1,0-.38A4.66,4.66,0,0,1,1968,560.6Z"/><path class="cls-1" d="M1814.25,527.79c-.09.17-.15.43-.26.48s-.29-.09-.44-.15c.08-.17.14-.43.25-.48S1814.1,527.73,1814.25,527.79Z"/><path class="cls-1" d="M1789.45,488.34l-.56-.42a3.37,3.37,0,0,1,.64-.3c.08,0,.21.12.31.2Z"/><path class="cls-1" d="M1760.62,519.16c-.1,0-.22.1-.3.06s-.13-.19-.19-.29l.48-.12Z"/><path class="cls-1" d="M1752.37,498.78l.43.39c-.08.08-.21.23-.22.23s-.29-.25-.43-.38Z"/><path class="cls-1" d="M1946.31,645.12a4,4,0,0,1-.15-.57s.19-.08.29-.12a3.8,3.8,0,0,1,.15.58A1.8,1.8,0,0,1,1946.31,645.12Z"/><path class="cls-1" d="M1928.48,612.1c.11,0,.25,0,.3.12s0,.21,0,.32l-.48-.19Z"/><path class="cls-1" d="M1944.49,654.7h-.34v-.59a1.49,1.49,0,0,1,.31,0A2.83,2.83,0,0,1,1944.49,654.7Z"/><path class="cls-1" d="M1891.18,518.94a4.57,4.57,0,0,1,.38-.49s.19.1.29.16a5.85,5.85,0,0,1-.38.49S1891.28,519,1891.18,518.94Z"/><path class="cls-1" d="M1898.52,505.15l-.36-.17.32-.47c.09.11.23.23.24.34S1898.59,505.05,1898.52,505.15Z"/><path class="cls-1" d="M1929.19,623.63l.41-.49c.09.09.26.19.25.28a3.35,3.35,0,0,1-.13.69Z"/><path class="cls-1" d="M1937.79,623l-.48.33a2.6,2.6,0,0,1-.18-.26,4,4,0,0,1,.46-.35Z"/><path class="cls-1" d="M1881,513.35l.25.21-.39.43a4.61,4.61,0,0,1-.15-.53A1.36,1.36,0,0,1,1881,513.35Z"/><path class="cls-1" d="M1879.09,509.1l.29-.18.13.52c-.12,0-.26,0-.33,0S1879.12,509.21,1879.09,509.1Z"/><path class="cls-1" d="M1946.36,633.77a2.17,2.17,0,0,1-.31-.07,4.09,4.09,0,0,1,.07-.6c.1,0,.3,0,.3.07A4.07,4.07,0,0,1,1946.36,633.77Z"/><path class="cls-1" d="M1900.67,551a6,6,0,0,1,.13-.61s.31,0,.34,0a3,3,0,0,1,.21.6Z"/><path class="cls-1" d="M1910.49,639.19c-.1.06-.21.18-.29.17s-.17-.15-.25-.23l.46-.27Z"/><path class="cls-1" d="M1851.2,537.28l-.25.18,0-.45c.08,0,.19,0,.23,0S1851.21,537.18,1851.2,537.28Z"/><polygon class="cls-1" points="1854.43 481.71 1854.76 481.78 1854.56 482 1854.43 481.71"/><path class="cls-1" d="M1881.13,503.84c0,.11,0,.25-.05.3s-.21,0-.32,0l.08-.5Z"/><polygon class="cls-1" points="1957.4 687.9 1957.36 687.6 1957.63 687.71 1957.4 687.9"/><polygon class="cls-1" points="1956.45 664.68 1956.21 664.82 1956.21 664.54 1956.45 664.68"/><polygon class="cls-1" points="1948.03 562.98 1948.16 563.24 1947.9 563.22 1948.03 562.98"/><path class="cls-1" d="M1790,465.77l-.23-.27.59-.2c0,.12.05.27,0,.35S1790.09,465.73,1790,465.77Z"/><path class="cls-1" d="M1797.24,522.61l.16.29-.4.14c0-.11,0-.26,0-.33S1797.15,522.64,1797.24,522.61Z"/><path class="cls-1" d="M1822,483.66c.08.09.22.17.24.26s-.12.19-.18.29l-.4-.42Z"/><path class="cls-1" d="M1918.25,595.29l.27-.25.25.51c-.12,0-.27.08-.36,0S1918.3,595.39,1918.25,595.29Z"/><path class="cls-1" d="M1938.62,580.47c-.09-.07-.23-.11-.26-.2s0-.22.07-.33l.45.31Z"/><path class="cls-1" d="M1858.84,493.43l.13.34h-.6c0-.12,0-.28.1-.34S1858.7,493.43,1858.84,493.43Z"/><path class="cls-1" d="M1952.18,525.06c-.12,0-.26.09-.35,0s-.14-.26-.21-.4l.58-.07Z"/><polygon class="cls-1" points="1781.87 499.33 1782.13 499.4 1781.95 499.59 1781.87 499.33"/><path class="cls-1" d="M1917.41,730.69c0,.23,0,.47,0,.69,0,0-.17,0-.26,0,0-.23,0-.46,0-.69Z"/><path class="cls-1" d="M1844.86,463.09l.26.18c-.07.07-.14.18-.22.19s-.17-.11-.26-.17Z"/><path class="cls-1" d="M1807.08,519.8l-.14.31-.32-.4c.08-.06.17-.16.25-.14S1807,519.72,1807.08,519.8Z"/><path class="cls-1" d="M1929.4,565.77c.11,0,.26.05.3.12s0,.22,0,.33l-.49-.19Z"/><path class="cls-1" d="M1631.83,1634.42c1.05-2.68,2.73-3.58,5.81-2.57.24,1,.48,2,.68,2.83l-3.55,1.4C1633.84,1635.56,1632.85,1635.06,1631.83,1634.42Z"/><path class="cls-1" d="M1651.26,1637.19l-1.76,1.07c.1,1.27.14,1.91-.3,2.43a3.44,3.44,0,0,1-1.09.76,14.68,14.68,0,0,1-2.18.92,15.75,15.75,0,0,1,2.8-5.7C1649.59,1635.57,1650,1635.67,1651.26,1637.19Z"/><path class="cls-1" d="M1691,1604.72c1-.36,1.75-.7,2.57-1,.11,0,.51.37.56.61.21,1.14-.75,1.62-1.48,2.09-.37.22-1.25.26-1.41,0C1691,1606.12,1691.1,1605.49,1691,1604.72Z"/><path class="cls-1" d="M1576.71,1626.56c-1.85,2-3.08,2.07-4.45.34C1573.55,1625.68,1574.92,1626.35,1576.71,1626.56Z"/><path class="cls-1" d="M1649.85,1625c-.41-1.52-.16-2.14.71-2.39,1.45-.42,2.58.08,3.67,1.8C1652.52,1623.64,1651.15,1623.28,1649.85,1625Z"/><path class="cls-1" d="M1585.8,1620c1.73.25,3.43.55,5.33.78-1.33,1.34-3.5,1.07-5.41-.27Z"/><path class="cls-1" d="M1637.93,1645.23c-1.58,1.9-2,2-4.11,1.5C1634.72,1644.91,1635.52,1644.61,1637.93,1645.23Z"/><path class="cls-1" d="M1560.75,1625.18c2.11.67,4.16,1.4,6.39,2a1.4,1.4,0,0,1-1.83.82,26.44,26.44,0,0,1-3.74-1.53c-.39-.2-.53-.88-.78-1.34Z"/><path class="cls-1" d="M1674.7,1613c-.21,1.37-.46,2.48-.72,3.57-.87-.64-1.62-2-1.34-2.59a1.47,1.47,0,0,1,.82-.82A2.47,2.47,0,0,1,1674.7,1613Z"/><path class="cls-1" d="M1678.36,1623.11c.64-.24,1.06-1,1.56-1.59a1.58,1.58,0,0,1,2.26-.33C1680.74,1623.26,1680.12,1623.56,1678.36,1623.11Z"/><path class="cls-1" d="M1571.41,1634.65c-1.3-2.31,1.21-3,1.63-5.1C1574.25,1632.22,1572.17,1633.19,1571.41,1634.65Z"/><path class="cls-1" d="M1680.84,1608.69c-.34-1.13-.42-1.92,0-2.51s1.27-1,2.69-1.53c-.43.72-.85,1.41-1.31,2S1681.34,1608,1680.84,1608.69Z"/><path class="cls-1" d="M1654.2,1644.69c-2.16,1.58-4.54,1.32-6.81.88,1-1,2.15-.38,3.24-.48S1653,1644.83,1654.2,1644.69Z"/><path class="cls-1" d="M1691.33,1601.51c.05-1.27,0-2.52,1-3.48C1693.33,1599.28,1693.16,1599.77,1691.33,1601.51Z"/><path class="cls-1" d="M1649.27,1631.52l-3.13-.2c0-1,.47-1.58,1.32-1.56S1649,1630.3,1649.27,1631.52Z"/><path class="cls-1" d="M1664.71,1639.6a4.4,4.4,0,0,1-1.3,1.7,4.88,4.88,0,0,1-1,.58,6.37,6.37,0,0,1-1.29.34C1661.79,1640.36,1663.09,1639.83,1664.71,1639.6Z"/><path class="cls-1" d="M1617,1652.05a4.13,4.13,0,0,1-4.53,1.13C1613.84,1651.86,1615.39,1651.93,1617,1652.05Z"/><path class="cls-1" d="M1602.34,1621.42c.76.33,1.55.52,2.29.85s.88.63-.15,1.92c-.82-.81-1.62-1.58-2.39-2.45Z"/><path class="cls-1" d="M1657.61,1625.83a2.66,2.66,0,0,1-.92,1.41,3.83,3.83,0,0,1-1.26.52c-.86.23-1-.43-.84-1.27C1655.48,1626.32,1656.42,1626.16,1657.61,1625.83Z"/><path class="cls-1" d="M1596.3,1615.19c-1.61-.51-3.46-.6-4.08-2.78C1593.56,1613.42,1594.92,1614.25,1596.3,1615.19Z"/><path class="cls-1" d="M1591.46,1655.14l-4.81-1c1.74-.8,3.27-.05,4.84.49Z"/><path class="cls-1" d="M1664.63,1643c1.13-1.12,1.12-1.12,2.56-.93C1666.35,1643,1666.34,1643,1664.63,1643Z"/><path class="cls-1" d="M1592.37,1651.59c1.16-.66,2.21-.84,3.18,0l-.08.67C1594.41,1652.07,1593.4,1651.81,1592.37,1651.59Z"/><path class="cls-1" d="M1705.83,1579.25c-.42.73-.84,1.46-1.29,2.18l-.51-.29c.41-.73.8-1.48,1.19-2.23Z"/><path class="cls-1" d="M1618.65,1639.8c.59-1.9.12-1.77,1.91-.7C1619.8,1639.38,1619.22,1639.63,1618.65,1639.8Z"/><polygon class="cls-1" points="1652.66 1652.72 1649.36 1653.67 1649.18 1653.14 1652.44 1651.99 1652.66 1652.72"/><path class="cls-1" d="M1642.44,1645.13c.56-.36.91-.76,1.26-.77s1.1.29,1.13.52c.11.78-.6.76-1.2.67A8.89,8.89,0,0,1,1642.44,1645.13Z"/><path class="cls-1" d="M1686,1607.28c.7-.28,1.42-.57,2.13-.88-.6,1.12-.62,1.12-1.9,1.31Z"/><path class="cls-1" d="M1580.07,1626.33c.65-.08,1.3-.17,2.37-.35-.82,1.33-1.56,1.2-2.28,1Z"/><path class="cls-1" d="M1635.7,1649.31l2.15-.18c-.75,1-1.4,1-2.1.71Z"/><path class="cls-1" d="M1577.79,1620.81l.75,2c-1.45-.33-1.51-1-1.36-1.74Z"/><path class="cls-1" d="M1622.83,1649.31c.26.39.58.65.54.84s-.48.43-.7.39a.85.85,0,0,1-.57-.58C1622.08,1649.79,1622.48,1649.61,1622.83,1649.31Z"/><path class="cls-1" d="M1683.46,1610.25c.36.12.71.18.71.24a5.88,5.88,0,0,1-.1,1.11c-.18-.08-.48-.15-.51-.27A6.11,6.11,0,0,1,1683.46,1610.25Z"/><path class="cls-1" d="M1668.45,1614.69c.36.18.73.34,1.08.54a.76.76,0,0,1-.06.37c-.39,0-.78-.1-1.17-.16Z"/><path class="cls-1" d="M1666.2,1637c-.57.17-1.15.32-2,.51.16-.43.19-.75.29-.78.52-.11,1-.18,1.57-.27Z"/><path class="cls-1" d="M1589,1624c-.09.41-.17.83-.29,1.23a2.14,2.14,0,0,1-.57-.07l.28-1.31Z"/><polygon class="cls-1" points="1667.61 1645.87 1666.33 1646.29 1666.18 1645.89 1667.48 1645.35 1667.61 1645.87"/><polygon class="cls-1" points="1694.64 1615.24 1692.68 1614.91 1692.79 1614.31 1694.81 1614.45 1694.64 1615.24"/><polygon class="cls-1" points="1632.56 1644.54 1630.8 1644.56 1630.76 1644.1 1632.57 1643.91 1632.56 1644.54"/><path class="cls-1" d="M1620,1645.46l1.91.35,0,.38a2.68,2.68,0,0,1-.92.22C1620.84,1646.37,1620.66,1646.06,1620,1645.46Z"/><polygon class="cls-1" points="1655 1647.89 1653.02 1648.39 1652.88 1647.96 1654.79 1647.35 1655 1647.89"/><polygon class="cls-1" points="1659.33 1624.05 1657.87 1624.2 1657.79 1623.78 1659.2 1623.46 1659.33 1624.05"/><polygon class="cls-1" points="1626.46 1634.5 1626.59 1633.04 1627.08 1633.06 1627.07 1634.53 1626.46 1634.5"/><path class="cls-1" d="M1602.58,1632.29c.1.39.3.76.2.86a.85.85,0,0,1-.76.21c-.18-.06-.25-.42-.36-.66Z"/><path class="cls-1" d="M1570.42,1640.52l-1.17-.43c0-.13.14-.37.15-.37.39.12.78.26,1.16.4Z"/><path class="cls-1" d="M1634.72,1654.3l-1.34.23c0-.14-.08-.38,0-.4.37-.16.76-.27,1.14-.4Z"/><polygon class="cls-1" points="1611.59 1659.22 1613.59 1659.25 1613.61 1659.75 1611.6 1659.67 1611.59 1659.22"/><path class="cls-1" d="M1579.82,1628.73c.43-.1.87-.23,1.3-.35l.18.3a2.37,2.37,0,0,1-.66.47,2,2,0,0,1-.79-.09Z"/><path class="cls-1" d="M1694.7,1619.2c0-.35-.14-.68-.06-.74a3.33,3.33,0,0,1,.83-.39c.06.25.26.63.16.73A2.72,2.72,0,0,1,1694.7,1619.2Z"/><polygon class="cls-1" points="1585.32 1637.74 1584.51 1638.8 1584.11 1638.55 1584.81 1637.37 1585.32 1637.74"/><polygon class="cls-1" points="1703.63 1596.59 1704.29 1595.6 1704.64 1595.79 1704.06 1596.91 1703.63 1596.59"/><polygon class="cls-1" points="1677.15 1619.99 1678.19 1619.79 1678.33 1620.16 1677.31 1620.53 1677.15 1619.99"/><polygon class="cls-1" points="1558.19 1631.9 1559.36 1632.05 1559.37 1632.45 1558.17 1632.46 1558.19 1631.9"/><polygon class="cls-1" points="1706.58 1562.45 1706.04 1563.74 1705.75 1563.64 1706.12 1562.34 1706.58 1562.45"/><path class="cls-1" d="M1560.79,1625.17c-.46-.45-1.11-.83-.73-1.77.92.46.7,1.16.69,1.78Z"/><path class="cls-1" d="M1627.46,1637.39c-.3.25-.52.51-.6.48a2.53,2.53,0,0,1-.6-.49c.14-.14.3-.42.41-.4A2.72,2.72,0,0,1,1627.46,1637.39Z"/><polygon class="cls-1" points="1594.09 1626.67 1592.72 1626.85 1592.67 1626.42 1594.03 1626.23 1594.09 1626.67"/><path class="cls-1" d="M1588.3,1631.14l-1.1-.44a3.85,3.85,0,0,1,.7-.19C1588,1630.51,1588,1630.73,1588.3,1631.14Z"/><path class="cls-1" d="M1652.73,1630.67c-.29.23-.44.44-.59.44s-.29-.22-.43-.34c.1-.1.2-.27.3-.27A3,3,0,0,1,1652.73,1630.67Z"/><path class="cls-1" d="M1651.19,1626.45a2,2,0,0,1,.4-.33c.05,0,.18.15.27.24a2.49,2.49,0,0,1-.34.38S1651.34,1626.59,1651.19,1626.45Z"/><polygon class="cls-1" points="1555.8 1639.75 1557.03 1639.98 1557.01 1640.36 1555.8 1640.31 1555.8 1639.75"/><path class="cls-1" d="M1567.2,1635.49a7,7,0,0,1-.92-.1c-.06,0-.07-.24-.1-.37l1.06,0Z"/><path class="cls-1" d="M1607,1632.58l-1-.66.13-.27c.36.18.71.38,1.07.54Z"/><path class="cls-1" d="M1648.38,1626.55l.32.17-.29.4c-.08-.1-.23-.19-.23-.28S1648.31,1626.65,1648.38,1626.55Z"/><path class="cls-1" d="M1672.08,1600.56l.38,0c0,.15,0,.37,0,.45s-.29,0-.44,0Z"/><path class="cls-1" d="M1594.07,1644.94l.24.56c-.14,0-.37.15-.41.1a2.22,2.22,0,0,1-.34-.52Z"/><path class="cls-1" d="M1582.54,1647.32c-.13.06-.3.2-.37.16s-.18-.23-.27-.36c.13-.06.3-.2.37-.16S1582.45,1647.19,1582.54,1647.32Z"/><path class="cls-1" d="M1606.79,1627.71c-.13,0-.27.15-.37.12s-.14-.21-.2-.32c.12,0,.26-.15.36-.12S1606.72,1627.6,1606.79,1627.71Z"/><path class="cls-1" d="M1627.44,1644.43l.27-.32.43.31c-.12.08-.24.21-.37.22S1627.55,1644.51,1627.44,1644.43Z"/><path class="cls-1" d="M1612.78,1626c-.08.06-.25.21-.27.19a1.84,1.84,0,0,1-.26-.4c.12,0,.25-.12.35-.08S1612.72,1625.88,1612.78,1626Z"/><path class="cls-1" d="M1567,1644l-.33.26c-.09-.12-.25-.25-.24-.35s.19-.17.3-.26Z"/><path class="cls-1" d="M1571.8,1641.72l.31.39a2.64,2.64,0,0,1-.61.17c-.08,0-.19-.2-.28-.31Z"/><path class="cls-1" d="M1643.3,1611l0,.18-.21-.21s.08-.09.12-.09S1643.25,1611,1643.3,1611Z"/><path class="cls-1" d="M1598.07,1606.43c0,.11.11.21.15.32s-.12.13-.16.11a1.46,1.46,0,0,1-.29-.17Z"/><path class="cls-1" d="M1671.79,1618.25h.19c0,.11,0,.22,0,.33h-.18Z"/><path class="cls-1" d="M1702.37,1625l.13-.42c.13,0,.32,0,.36.11s-.07.27-.11.42Z"/><path class="cls-1" d="M1567.68,1619.11h-.35a1.11,1.11,0,0,1,0-.19,1.94,1.94,0,0,1,.34,0Z"/><path class="cls-1" d="M1677.48,1617.1a2.41,2.41,0,0,1,.21-.24s.09.06.14.1-.13.17-.21.25Z"/><path class="cls-1" d="M1633,1650.85a2.3,2.3,0,0,1,.1.35.28.28,0,0,1-.23.08,1.7,1.7,0,0,1-.34-.26Z"/><path class="cls-1" d="M1584.79,1646.05l.34-.21c.08.12.22.26.2.36s-.21.14-.32.21Z"/><path class="cls-1" d="M1680.25,1627.3l.16.15-.34.17c0-.07,0-.16,0-.21S1680.18,1627.34,1680.25,1627.3Z"/><path class="cls-1" d="M1680.4,1613.43c0-.12-.11-.28-.06-.35s.22-.07.34-.11c0,.12.1.28.06.35S1680.52,1613.4,1680.4,1613.43Z"/><path class="cls-1" d="M1629.85,1638.08v.21l-.3-.13c0-.05.07-.14.12-.16S1629.8,1638.05,1629.85,1638.08Z"/><path class="cls-1" d="M1620.26,1661.29a2,2,0,0,1,.17.36s-.18.13-.21.11a2,2,0,0,1-.39-.24Z"/><path class="cls-1" d="M1620.42,1642.29l.21.07-.22.25c0-.06-.12-.11-.12-.17S1620.37,1642.34,1620.42,1642.29Z"/><path class="cls-1" d="M1621.72,1619.89l.17.26c-.05,0-.13.13-.14.12a2.23,2.23,0,0,1-.19-.24Z"/><path class="cls-1" d="M1610.85,1634.4l.09.19-.31.08a.36.36,0,0,1,0-.21S1610.78,1634.42,1610.85,1634.4Z"/><path class="cls-1" d="M1601.93,1649.58s.06-.14.12-.15.14,0,.21,0l-.17.26Z"/><path class="cls-1" d="M1662.34,1601.38l.27,0c0,.1,0,.21,0,.31s-.13,0-.14,0S1662.38,1601.49,1662.34,1601.38Z"/><path class="cls-1" d="M1581.93,1653c-.11.06-.22.18-.33.17s-.25-.15-.38-.23c.12-.06.23-.18.34-.17S1581.81,1652.9,1581.93,1653Z"/><path class="cls-1" d="M1577,1625l-.13-.38a2.57,2.57,0,0,1,.4.06s.06.13.09.2Z"/><path class="cls-1" d="M1551.32,1626.51c-.06,0-.15-.07-.16-.12s0-.13,0-.2l.27.18Z"/><path class="cls-1" d="M1556.92,1615.14v.33h-.18a1.82,1.82,0,0,1,0-.33Z"/><path class="cls-1" d="M1699.16,1589a3,3,0,0,1-.08.32.92.92,0,0,1-.18,0,1.57,1.57,0,0,1,.08-.31S1699.1,1589,1699.16,1589Z"/><path class="cls-1" d="M1695.49,1610.43c0-.06-.07-.13,0-.18s.1-.08.15-.12l.1.29Z"/><path class="cls-1" d="M1702.49,1584.72l.18.07-.13.31-.17-.08A2.08,2.08,0,0,1,1702.49,1584.72Z"/><path class="cls-1" d="M1640.6,1637.53c0-.12-.08-.23-.1-.35s.11,0,.18-.08.08.23.1.34S1640.67,1637.5,1640.6,1637.53Z"/><path class="cls-1" d="M1637.08,1629.3l-.17.1-.08-.32c.07,0,.15,0,.2,0S1637.07,1629.23,1637.08,1629.3Z"/><path class="cls-1" d="M1700.21,1604.92l-.37.07c0-.08,0-.18,0-.23a1.84,1.84,0,0,1,.34-.27Z"/><path class="cls-1" d="M1696.21,1602l.34,0a.62.62,0,0,1,0,.18,1.83,1.83,0,0,1-.33,0Z"/><path class="cls-1" d="M1633.91,1639.89l.2,0v.34a2.19,2.19,0,0,1-.3-.16A1,1,0,0,1,1633.91,1639.89Z"/><path class="cls-1" d="M1631.26,1638.84l.07-.19.26.18c0,.05-.1.12-.16.12S1631.32,1638.88,1631.26,1638.84Z"/><path class="cls-1" d="M1695.91,1594.24l.13.12c-.07.09-.15.17-.22.25l-.13-.13C1695.76,1594.39,1695.84,1594.32,1695.91,1594.24Z"/><path class="cls-1" d="M1662,1638.78l-.38-.1s0-.19.06-.21a2.84,2.84,0,0,1,.42-.09Z"/><path class="cls-1" d="M1715,1602.91c.07,0,.16,0,.2,0s0,.15,0,.22l-.32,0Z"/><path class="cls-1" d="M1626.18,1661.47l-.15.17-.26-.23a.59.59,0,0,1,.24-.07C1626.08,1661.34,1626.12,1661.43,1626.18,1661.47Z"/><polygon class="cls-1" points="1612.64 1630.24 1612.8 1630.25 1612.72 1630.39 1612.64 1630.24"/><path class="cls-1" d="M1630.25,1635.71s.09.11.08.16-.08.08-.13.12l-.14-.26Z"/><polygon class="cls-1" points="1701.81 1564.93 1701.79 1565.1 1701.65 1565 1701.81 1564.93"/><polygon class="cls-1" points="1698.29 1577.03 1698.44 1577.01 1698.38 1577.15 1698.29 1577.03"/><polygon class="cls-1" points="1667.15 1611.77 1667.25 1611.68 1667.28 1611.82 1667.15 1611.77"/><path class="cls-1" d="M1584.2,1614.17v-.2l.29.07c0,.06,0,.14-.1.16S1584.26,1614.18,1584.2,1614.17Z"/><path class="cls-1" d="M1570.07,1644.05v.2l-.32-.09c0-.06,0-.14.11-.16S1570,1644,1570.07,1644.05Z"/><path class="cls-1" d="M1595.13,1630.52c0,.06.1.12.09.17s-.09.1-.14.14l-.16-.29Z"/><path class="cls-1" d="M1689.92,1621.89l-.21-.06.23-.3c0,.06.12.11.12.17S1690,1621.83,1689.92,1621.89Z"/><path class="cls-1" d="M1677.12,1614.91c0,.06,0,.15,0,.18s-.12,0-.18,0l0-.29Z"/><path class="cls-1" d="M1616.25,1636.25l.12.17-.33.09c0-.07,0-.16,0-.2S1616.17,1636.27,1616.25,1636.25Z"/><path class="cls-1" d="M1650.92,1607.41c0,.06,0,.15,0,.19s-.1,0-.15.05l0-.32Z"/><polygon class="cls-1" points="1569.54 1627.43 1569.64 1627.56 1569.48 1627.57 1569.54 1627.43"/><path class="cls-1" d="M1730.41,1547.32a2.59,2.59,0,0,1,.11-.37l.15,0c0,.13-.07.26-.11.38Z"/><path class="cls-1" d="M1608.15,1620.19l.1.11s-.06.1-.1.1-.07-.06-.1-.09Z"/><path class="cls-1" d="M1578,1646.37l-.2.1-.13-.32c.08,0,.18,0,.23,0S1578,1646.3,1578,1646.37Z"/><path class="cls-1" d="M1671.11,1621.81c0-.06,0-.15,0-.17s.11,0,.18,0l0,.29Z"/><polygon class="cls-4" points="2168.21 994.82 2168.21 941.5 2143.48 994.82 2168.21 994.82"/><path class="cls-5" d="M1743,1388.57l-31.86,145.79,2.06,255.83H947.07l-17.5-92L916.11,1650l-342.34.39,96.65-252.51L711.6,1301c61.88-137.45,220.29-181.14,364.92-138.7a557,557,0,0,1,104.06,42.56c106.3-31.39,212.59-63.45,318.67-79C1649.75,1103.89,1775.51,1240,1743,1388.57Z"/><path class="cls-6" d="M1352.12,940.16c16.77-23.47,30.18-49.28,38.69-76.54,8.08-25.85,7.18-46.72,5.49-72.83-2.94-45.19-17.47-98.92-56.5-128.15-44.75-33.5-103.19-52.74-160.08-51a238.33,238.33,0,0,0-126.44,41.63c-40.15,27.61-59.59,65.71-68.34,112-7.42,39.19-5.23,79.55.86,119,3.94,25.43-.31,45.09.55,70.79s4.73,51.91,17.27,74.66c22.91,41.56,58.67,65.57,110,61.22C1209.22,1082.81,1299.66,1013.58,1352.12,940.16Z"/><path class="cls-6" d="M810.89,1063.61c1.61-7.51-261.41,601-270.65,643.63l254.31,67.21c96.88-253.37,165-492.81,206.38-737-6.61-78.86-19.37-99.62-16.72-178.65.8-23.89-10.77-111.73,0-133.28,7.11-14.23,42.6-68,39.88-73.89-5-10.73-19.23-16-30-11.06.75-9.51.63-20.93-7.32-26.2-8.52-5.64-19.78-.21-28.4,5.28,10.14-10.53,11.66-26.7-7.71-24.81-7.77.76-14.62,5.26-21,9.8-28,20-56.55,58.23-81.83,81.4,4.28-15.44,21.86-84.4-18.44-59.64-18.92,11.63-25.4,42.29-30.77,62.1a538.53,538.53,0,0,0-10.74,230.85Z"/><circle class="cls-6" cx="1328.33" cy="851.31" r="86.53"/><path class="cls-7" d="M1033.33,704.26h92.51V833.79H1048C1048.38,784.78,1049.41,735.05,1033.33,704.26Z"/><path class="cls-2" d="M828.3,875c22,29.44,44.17,59.09,60.52,92s26.72,69.7,23.63,106.34"/><path class="cls-2" d="M1062.36,902.65c-35.21-16.18-13.31-39.26,0-61.31V749.18"/><path class="cls-8" d="M1416.18,755.67c-1.75,8.38-3.58,16.59-5.21,24.43-8,38.49-9.74,81.52-24.7,118.13-14,34.29-36,70-56.85,99.54-1.94,2.74-4,5.55-6.88,7.21-6.36,3.63-17-2.4-19.47-8.63-1.35-3.4-1-7.21-.55-10.83,7.55-54.6,54.35-101.32,48.9-156.17-1.42-14.27-10.37-38-26.25-42.57-15.38-4.39-25.53,14-31.56,25.34q-7.89,14.93-15.8,29.84c-2.37,4.48-5,9.24-9.61,11.4a16.57,16.57,0,0,1-8.1,1.28c-16.49-1-28.8-16.53-33.12-32.47s-2.91-32.83-4.58-49.27c-.36-3.56-1-7.36-3.48-9.93-2.11-2.18-5.19-3.08-8.15-3.76-30.66-7.06-64.87-2.11-96-.85-16.63.67-34,1.2-49.18-5.53-20.23-9-33.45-29.24-53.13-39.33-14.76-7.58-32-8.82-47.2-15.53s-28.93-22.82-23.82-38.6c2.59-8,7.48-11,7.7-19.06.2-7.07-4.44-14.84-4.31-22.48.2-12.48,7-25.76,18.93-29.48,9.5-3,20.19.55,29.57-2.78,14.45-5.13,18.76-22.91,27-35.87,9.77-15.44,30.54-25.47,46.91-17.34,7.13,3.53,12.79,10.06,20.52,11.93,9.21,2.22,18.73-2.92,25.43-9.63s11.59-15,18.3-21.73c22.48-22.39,64.92-19,83.5,6.76,10.74,14.87,16.51,37,34.46,40.73,13,2.74,18.29-8.39,30.49-13.76,23.24-10.23,53.73,1.9,63.6,25.31,6.52,15.48,4.53,33,5.56,49.78.45,7.18,1.75,14.91,6.93,19.9,8.71,8.38,22.91,4.84,34.75,7.25,20,4.08,31.93,25.91,32.63,46.26C1424.08,714.46,1420.37,735.56,1416.18,755.67Z"/><path class="cls-6" d="M1382.74,1207.32c-133.47,81.62-238.59,124.44-272.5,69.88,13.4-34,20.32-63.53,22.8-90,3.47-37.13-1.89-68.16-10.58-96.89l223.4-162.87L1377.7,1169Z"/><circle class="cls-7" cx="943.08" cy="789.71" r="124.29"/><circle class="cls-7" cx="1199.75" cy="789.71" r="124.29"/><path class="cls-6" d="M911.92,1650.26,826.41,1790.1H523.62c-2.61-31.12,8-78.91,26.69-106.95l20.27-32.89Z"/><polygon class="cls-6" points="1701.05 1541.13 1668.47 1629.71 1668.45 1629.74 1643.14 1698.58 1612.65 1790.19 1299.03 1790.19 1425.36 1336.38 1701.05 1541.13"/><path class="cls-6" d="M1451.66,1163.54c-23.63,15.49-46.68,30.17-68.92,43.78-133.47,81.62-238.59,124.44-272.5,69.88-11.17-18-14.62-46.47-8.82-87.65l31.62-2.34L1377.7,1169Z"/><polygon class="cls-5" points="1342.11 1629.71 1756.31 1629.71 1736.03 1336.38 1425.36 1336.38 1342.11 1629.71"/><path class="cls-6" d="M1295.28,1790.19,1344.11,1062c-29-38.36-29.59-90.31-29.89-138.37-.17-24.79,0-51-1.84-77-1.92-26.87-6-53.5-14.85-78-16.29-45-45.55-85.29-59.51-131.18-1.7-5.59-3-12,.06-17,9.11-14.67,25.06-1.62,38.5,14.71,14.06.11,28.07,5.21,40,12.9A116.9,116.9,0,0,1,1332,660.22c22.92-2.29,46.73,3,74,37.2,19.79,16.3,45.65,46,56.35,69.43,11.51,25.31,19.51,52.15,25.26,79.8,13,62.51,14.58,129,19.75,190.78l90,752.76Z"/><path class="cls-2" d="M1276.57,635.21c31.32,36.17,55.6,90.65,77.72,150.73"/><path class="cls-2" d="M1332,660.23c30.06,33.69,53,73,71.34,116"/><line class="cls-2" x1="1408.07" y1="698.41" x2="1446.04" y2="779.64"/><circle class="cls-7" cx="916.42" cy="789.71" r="124.29"/><circle class="cls-2" cx="916.42" cy="789.71" r="124.29"/><circle class="cls-8" cx="916.42" cy="789.71" r="112.94"/><path class="cls-9" d="M843.56,800c33.23,50.84,81.47,43.25,138.87,0C929.77,755.35,882.83,750.81,843.56,800Z"/><circle class="cls-8" cx="897.49" cy="794.01" r="28.26"/><circle class="cls-7" cx="1173.09" cy="789.71" r="124.29"/><circle class="cls-2" cx="1173.09" cy="789.71" r="124.29"/><circle class="cls-8" cx="1173.09" cy="789.71" r="112.94"/><path class="cls-9" d="M1098.25,800c33.22,50.84,81.46,43.25,138.86,0C1184.45,755.35,1137.51,750.81,1098.25,800Z"/><circle class="cls-8" cx="1152.17" cy="794.01" r="28.26"/><path class="cls-2" d="M1289.53,733.5c8,35.17,28.28,132.19,27,151.23-1.88,28.46-3.76,57.12-.34,85.44s2.46,60.63,20.39,82.81l-5,184.44"/><path class="cls-2" d="M999.44,1021.29c-9.34-28.39-10.29-74.84-12.9-115.11"/><line class="cls-10" x1="915.1" y1="1650.35" x2="898.08" y2="1535.89"/><polygon class="cls-8" points="1122.46 1090.32 1214.15 1058.77 1134.22 1136.87 1122.46 1090.32"/><line class="cls-2" x1="1070.65" y1="944.33" x2="1123.33" y2="922.53"/><path class="cls-11" d="M971.73,323.09l-66.45-5.83q-.43-45,26.6-73.69t78.48-30.36q54.3-1.77,79.95,22.9t26.75,58.54q.86,26.36-10.46,44.57t-38.8,40.61q-19.42,15.92-23.43,23.92t-3.33,29l-62.06,2-.32-10q-.9-27.68,2.2-39.86t25.74-32.43q18.87-16.8,25.86-28.66t6.47-28q-.48-14.83-9.77-21.86a32.82,32.82,0,0,0-21.44-6.62Q970.22,268.6,971.73,323.09Zm4.35,134,69.3-2.25,2.09,64.44-69.3,2.25Z"/><path class="cls-11" d="M1908.6,1182.9l-32.87-16.58q9-23.14,28.71-32.33t46.44.48q28.2,10.2,36.3,28.09t1.73,35.49q-5,13.68-14.47,20.7t-28.2,12.88q-13.21,4.2-16.9,7.47t-7.65,14.21l-32.22-11.66,1.87-5.18q5.21-14.37,9.28-20t19.83-11.36q13.11-4.74,19.12-9.4a28.14,28.14,0,0,0,9-13q2.78-7.7-.54-13.2a18.14,18.14,0,0,0-9.64-7.78Q1919,1154.67,1908.6,1182.9Zm-25.18,69.57,36,13L1907.3,1299l-36-13Z"/><path class="cls-11" d="M1742.47,284.45l-25.93-13.07q7.08-18.26,22.64-25.5t36.63.38q22.25,8.06,28.63,22.16t1.37,28q-3.9,10.8-11.42,16.33t-22.24,10.16q-10.43,3.3-13.33,5.89t-6,11.21l-25.42-9.2,1.48-4.08q4.11-11.34,7.32-15.76t15.64-9q10.34-3.75,15.08-7.42a22.1,22.1,0,0,0,7.14-10.29q2.19-6.07-.43-10.41a14.24,14.24,0,0,0-7.6-6.13Q1750.64,262.17,1742.47,284.45Zm-19.86,54.87L1751,349.59l-9.55,26.4-28.38-10.27Z"/><path class="cls-11" d="M2089.36,1561.1,2057.94,1526q21.48-23.38,49.26-25.13t55.08,22.22q28.81,25.29,30.14,50.37T2178,1616.57q-12.27,14-26.89,17.91t-39.58,2.2q-17.68-1.17-23.61,1t-15.73,13.36l-32.94-28.91,4.64-5.29q12.88-14.68,20.37-19.47t28.9-4.29q17.82.45,27.15-2.29t16.86-11.32q6.91-7.87,5.51-16a23.12,23.12,0,0,0-7.85-13.75Q2114.88,1532.29,2089.36,1561.1Zm-62.4,71.12,36.79,32.28-30,34.21L1997,1666.43Z"/><path class="cls-11" d="M211.49,1518.42l-59.08,32q-25.35-37.56-18.6-76.7t49.07-69.13q44.64-31.67,79.9-25.19t55,34.32q15.36,21.67,16,43.26t-10,55.69q-7.47,24.18-6.39,33.12t13.35,26.25l-51,36.19-5.81-8.2q-16.14-22.75-20.31-34.72t3.61-41.55q6.52-24.6,5.8-38.45t-10.14-27.15q-8.65-12.2-20.36-12.93a33,33,0,0,0-21.69,6.35Q179.93,1473.49,211.49,1518.42Zm78.12,110.17,57-40.41,37.58,53-57,40.4Z"/><path class="cls-6" d="M846.35,1759.19c13.6-21.86-119.43-289.57-169.65-285-35.75,3.22-155.15,294.3-153.05,317.25s6.89,46.21,19.17,65.92c22.44,36,55.32,55.65,100.49,49.1,69.88-10.13,138-55.76,180-111.77C825.4,1791.86,840.9,1768,846.35,1759.19Z"/><path class="cls-6" d="M1612.83,1789.62c13.61-21.86-120.39-290.59-170.61-286-30.33,2.73-121.13,206.61-146.62,284.25-4.56,13.88-2.87,30.17-2.55,33.65,2.09,23,3,45.56,15.29,65.27,22.44,36,55.32,55.65,100.49,49.1,69.88-10.13,138-55.76,180-111.77C1590.92,1821.27,1607.39,1798.39,1612.83,1789.62Z"/><path d="M1704.41,558.64a3.8,3.8,0,0,1-1.28-2.9,5.19,5.19,0,0,1,1.8-3.13l2.48.77c-.17,1.15-.33,2.29-.49,3.46C1706.14,557.38,1705.3,558,1704.41,558.64Z"/><path d="M1716.28,545.82c-.12.58-.23,1.14-.35,1.69,1.8,1.39,1.81,1.4.91,4.47a10.71,10.71,0,0,1-2.42-4.94C1714.21,545.84,1714.55,545.63,1716.28,545.82Z"/><path d="M1738.77,504.92a22.78,22.78,0,0,1,2.44-.69c.11,0,.42.39.43.61.06,1-.82,1.37-1.51,1.75-.34.19-1.14.19-1.27,0S1738.78,505.64,1738.77,504.92Z"/><path d="M1700.38,608.72a3.63,3.63,0,0,1,2.21,1.21,2.14,2.14,0,0,1-.07,2C1701,611.52,1700.88,610.19,1700.38,608.72Z"/><path d="M1707.83,538.73c-1.18-.75-1.34-1.39-.8-2.24a2.93,2.93,0,0,1,3.84-1.28,5.3,5.3,0,0,0-2.17,1.15A3.27,3.27,0,0,0,1707.83,538.73Z"/><path d="M1691.6,603.61c-.33-1.69-.67-3.37-1-5.25,1.5.85,2,2.9,1.49,5.13Z"/><path d="M1715.43,558.41c.91,1.84.84,2.09-.28,3.3a2.35,2.35,0,0,1-.84-1.64A2.93,2.93,0,0,1,1715.43,558.41Z"/><path d="M1706.71,620.87c-.53-1.73-1.1-3.48-1.64-5.34a1.23,1.23,0,0,1,1.47.9,19.59,19.59,0,0,1,.75,3.25c0,.36-.39.78-.61,1.17Z"/><path d="M1723.94,515.43c.06,1.34.14,2.44.21,3.5-1-.25-2-1.13-1.88-1.82A2,2,0,0,1,1723.94,515.43Z"/><path d="M1729.82,523.12c.93-.76.38-3.08,2.64-2.58C1731.79,522.6,1731.42,523,1729.82,523.12Z"/><path d="M1709,609.51c-1.29,1.77-2.9.3-4.72.79C1705.89,608.38,1707.5,609.55,1709,609.51Z"/><path d="M1729.13,509.56c-.82-2.07-.27-3,2.58-4.42C1730.79,506.67,1730,508.07,1729.13,509.56Z"/><path d="M1722.82,548.83a3.79,3.79,0,0,1-1,2.37,9.45,9.45,0,0,1-2,1.64c-.19-1.1.84-1.37,1.33-2Z"/><path d="M1739.49,501.94c.28-1.18.52-2.4,1.72-3.16C1741.77,500.1,1741.5,500.49,1739.49,501.94Z"/><path d="M1711.42,543.52l-1.13,1.06-1,1a1.25,1.25,0,0,1-.19-1.93A1.68,1.68,0,0,1,1711.42,543.52Z"/><path d="M1726.35,540.91a3.14,3.14,0,0,1-.89,3.26C1724.75,542.65,1725.41,541.73,1726.35,540.91Z"/><path d="M1716.19,574.56c.84.94,1.41,1.88.68,3.2A3,3,0,0,1,1716.19,574.56Z"/><path d="M1688.84,587c.17-.85.27-1.73.52-2.56.31-1,.52-1,1.74-.12-.7,1-1.29,1.91-1.94,2.88Z"/><path d="M1714.22,534.21a2.88,2.88,0,0,1-.67,2.74c-.51.69-1,.29-1.31-.42Z"/><path d="M1684.47,595a26.21,26.21,0,0,1-.09,2.81,3.74,3.74,0,0,1-1.18,2.49l.57-2.66Z"/><path d="M1720.28,591.47c0,1,0,2,.1,3.08-1.11-1-.69-2-.53-3.06Z"/><path d="M1728.1,543.31c.14-1.2.13-1.2,1.17-1.62C1729.23,542.7,1729.24,542.69,1728.1,543.31Z"/><path d="M1717,591.2c-.78-.7-1.17-1.43-.58-2.12l.6,0Z"/><polygon points="1761.01 488.58 1758.76 489.28 1758.58 488.79 1760.83 487.98 1761.01 488.58"/><path d="M1705.61,571.26c-1.6-.81-1.57-.41-.32-1.72C1705.42,570.23,1705.51,570.74,1705.61,571.26Z"/><polygon points="1727.41 554.15 1726.54 556.12 1726.08 555.92 1726.8 553.84 1727.41 554.15"/><path d="M1717.21,555.51c0-.53-.14-.93,0-1.14s.73-.51.91-.41c.63.33.29.73-.07,1A8.36,8.36,0,0,1,1717.21,555.51Z"/><path d="M1734,507.44l2-1c-.6,1.08-.59,1.08-1.8,1.35Z"/><path d="M1698.88,606.13l-1.18-1.81c1.39.21,1.54.85,1.65,1.51Z"/><path d="M1717.85,561.5l.63-1.38c.54.88.31,1.25-.19,1.56Z"/><path d="M1695.33,610.23l1.28-1.45c.3,1.33-.21,1.66-.87,1.86Z"/><path d="M1714.6,570c.38-.1.65-.25.82-.18a.61.61,0,0,1,.22.57.71.71,0,0,1-.61.26C1714.89,570.64,1714.79,570.33,1714.6,570Z"/><path d="M1731.69,510.56a2.46,2.46,0,0,1,.69.12,9,9,0,0,1,0,1c-.17-.05-.44-.05-.49-.16A5.24,5.24,0,0,1,1731.69,510.56Z"/><path d="M1718.66,519.54c.38,0,.76,0,1.14,0a.7.7,0,0,1,0,.35c-.36.14-.73.26-1.1.39Z"/><path d="M1726.08,538.4l-1.14,1.2c-.12-.38-.25-.63-.2-.69a12.4,12.4,0,0,1,1-.87Z"/><path d="M1693.91,599.36a10.55,10.55,0,0,1,1.13-.12,2.86,2.86,0,0,1,.12.53l-1.19.16Z"/><polygon points="1731.57 544.23 1731 544.96 1730.68 544.73 1731.21 543.92 1731.57 544.23"/><polygon points="1742.02 514.24 1740.31 513.95 1740.35 513.45 1742.09 513.6 1742.02 514.24"/><polygon points="1712.94 561.76 1712.44 563.03 1712.05 562.9 1712.43 561.52 1712.94 561.76"/><path d="M1710.77,571.18c.32-.74.5-1,.64-1.34l.33.06c0,.24.12.52,0,.71S1711.38,570.83,1710.77,571.18Z"/><polygon points="1725.35 550.37 1724.65 551.56 1724.28 551.38 1724.88 550.14 1725.35 550.37"/><polygon points="1714.7 531.83 1713.64 532.79 1713.37 532.51 1714.33 531.43 1714.7 531.83"/><polygon points="1702.67 563.37 1701.46 562.85 1701.64 562.4 1702.88 562.84 1702.67 563.37"/><path d="M1698.51,585.16c.33-.13.65-.34.75-.26a.75.75,0,0,1,.25.65c0,.17-.37.27-.57.4Z"/><path d="M1714.09,608.1l.1.89-.36,0c0-.3-.09-.59-.12-.89Z"/><path d="M1721.58,564l-.22.84c-.11,0-.33-.08-.33-.12a7.3,7.3,0,0,1,0-.81Z"/><polygon points="1722.19 579.09 1722.3 577.9 1722.74 577.97 1722.58 579.14 1722.19 579.09"/><path d="M1700.91,605.46l-.76-.91.18-.25a2,2,0,0,1,.62.37,1.78,1.78,0,0,1,.22.65Z"/><path d="M1742.55,517.49c-.08-.28-.21-.54-.16-.6a2.64,2.64,0,0,1,.63-.31c.09.21.31.51.24.6S1742.85,517.37,1742.55,517.49Z"/><polygon points="1706.63 598.5 1707.76 598.84 1707.67 599.2 1706.47 598.97 1706.63 598.5"/><polygon points="1751.35 500.39 1752.15 499.84 1752.38 500.11 1751.6 500.79 1751.35 500.39"/><polygon points="1727.87 520.84 1728.69 520.35 1728.91 520.64 1728.16 521.26 1727.87 520.84"/><polygon points="1712.97 619.32 1712.5 618.52 1712.79 618.33 1713.39 619.07 1712.97 619.32"/><polygon points="1775.17 480.55 1773.73 480.58 1773.71 480.3 1775.12 480.13 1775.17 480.55"/><path d="M1706.68,620.85c-.1.53,0,1.16-.93,1.38-.14-.85.51-1.05,1-1.36Z"/><path d="M1705.42,563.33c.13.32.29.58.24.64a2.33,2.33,0,0,1-.59.36c-.08-.15-.27-.37-.22-.46S1705.16,563.56,1705.42,563.33Z"/><polygon points="1694.91 593.92 1695.4 595.12 1695.04 595.27 1694.55 594.08 1694.91 593.92"/><path d="M1700.19,597.83c-.06.5-.06.77-.08,1a4.5,4.5,0,0,1-.36-.53C1699.73,598.28,1699.89,598.15,1700.19,597.83Z"/><path d="M1713.23,540.69c-.07.33,0,.56-.16.66s-.33,0-.5,0c0-.13,0-.31,0-.38A2.86,2.86,0,0,1,1713.23,540.69Z"/><path d="M1709.68,538.79a2,2,0,0,1,.11-.52s.22,0,.33,0a2.15,2.15,0,0,1,0,.51A1.53,1.53,0,0,1,1709.68,538.79Z"/><polygon points="1719.99 617.27 1719.57 616.48 1719.86 616.33 1720.42 617.04 1719.99 617.27"/><path d="M1711.45,612a5.62,5.62,0,0,1,.34.64s-.16.14-.25.21l-.5-.68Z"/><polygon points="1698.46 581.14 1697.94 582.12 1697.7 582.01 1698.11 580.99 1698.46 581.14"/><path d="M1707.71,540.91l.33-.13,0,.48c-.12,0-.28,0-.34,0S1707.72,541,1707.71,540.91Z"/><path d="M1720.15,503.72l.42-.12c0,.18,0,.4-.06.53s-.31.1-.48.14C1720.08,504.08,1720.12,503.89,1720.15,503.72Z"/><path d="M1710.88,590.71l.45-.24c.06.1.19.25.16.29a1.74,1.74,0,0,1-.4.3Z"/><path d="M1715.57,598.32c.08.07.24.15.23.2s-.15.17-.23.25-.26-.15-.24-.21S1715.48,598.4,1715.57,598.32Z"/><path d="M1694.13,581.58c0,.12.15.25.13.36s-.18.15-.27.22c0-.12-.15-.25-.13-.35S1694,581.65,1694.13,581.58Z"/><path d="M1711.38,565.41l-.21-.3.38-.21c0,.11.11.24.09.33S1711.47,565.35,1711.38,565.41Z"/><path d="M1692.67,575.53c0,.09.17.26.15.28a1.68,1.68,0,0,1-.37.27c0-.12-.09-.26-.06-.36S1692.57,575.59,1692.67,575.53Z"/><path d="M1718.16,609.05l.34.12c-.06.09-.09.23-.17.26s-.22-.06-.33-.1Z"/><path d="M1714.53,606.81c.08-.13.13-.23.19-.32a2,2,0,0,1,.37.34s-.09.18-.14.28Z"/><path d="M1694.42,534.72l.06.18-.31.09a.65.65,0,0,1,.06-.21S1694.35,534.74,1694.42,534.72Z"/><path d="M1676.47,596a2.37,2.37,0,0,1,.23-.3s.14.09.14.14a3,3,0,0,1-.08.41Z"/><path d="M1722.72,521.24l.16-.08c0,.1.09.19.12.29l-.16.08Z"/><path d="M1749.69,522.29l0-.31c.1,0,.25,0,.3.11s0,.2,0,.3Z"/><path d="M1698.73,619l.18.26-.14.09a2.23,2.23,0,0,1-.19-.24Z"/><path d="M1727.38,518.23c0-.09.08-.19.13-.28l.15.06a2.24,2.24,0,0,1-.13.27S1727.43,518.25,1727.38,518.23Z"/><path d="M1718.23,563.77a3,3,0,0,1,.32.06s0,.16,0,.18a2.08,2.08,0,0,1-.3.12Z"/><path d="M1713.9,597.06l-.27-.19c.09-.07.17-.19.26-.2s.17.12.26.18Z"/><path d="M1732.73,526l.17.08-.21.22c0-.06-.1-.12-.09-.16S1732.68,526.06,1732.73,526Z"/><path d="M1729.26,514.13c0-.1-.15-.23-.11-.3s.18-.12.28-.18c0,.11.14.23.11.31S1729.36,514.08,1729.26,514.13Z"/><path d="M1706.77,561.58l.17.06-.2.2c0-.05-.1-.1-.09-.14S1706.73,561.61,1706.77,561.58Z"/><path d="M1724.58,574.39a1.83,1.83,0,0,1,.33,0,.25.25,0,0,1,.08.15,2.26,2.26,0,0,1-.26.16Z"/><path d="M1708.06,570.26l.09-.15.19.22c-.06,0-.12.08-.17.07S1708.1,570.31,1708.06,570.26Z"/><path d="M1688.64,565.07l.28-.16c0,.06.08.16.06.17a1.57,1.57,0,0,1-.26.19Z"/><path d="M1700.15,577.56l.17-.08.06.29c-.06,0-.14,0-.18,0S1700.16,577.62,1700.15,577.56Z"/><path d="M1713.94,584.79s-.12,0-.14-.08,0-.1,0-.16l.24.12Z"/><path d="M1709.46,510l.31-.16c0,.11,0,.22,0,.33a.3.3,0,0,1-.15.09A2.56,2.56,0,0,1,1709.46,510Z"/><path d="M1720.58,597.64c.08.06.22.11.23.18s-.06.17-.09.26c-.09-.06-.22-.1-.24-.17S1720.54,597.73,1720.58,597.64Z"/><path d="M1699,609.09l-.26.26a2.3,2.3,0,0,1-.1-.35s.08-.1.12-.15Z"/><path d="M1712.73,626.17c0,.05,0,.12,0,.16s-.1,0-.16.07l0-.25Z"/><path d="M1701.67,628.84l.23-.19s.11.12.1.13l-.22.19Z"/><path d="M1750.52,492.52a2.39,2.39,0,0,1-.22.23s-.09-.06-.13-.09a2.4,2.4,0,0,1,.21-.23S1750.47,492.49,1750.52,492.52Z"/><path d="M1742.51,510.24c0-.05-.06-.12,0-.16s.09-.06.13-.09l.09.25Z"/><path d="M1755.36,490.59l.09.15-.26.17-.09-.14A2.4,2.4,0,0,1,1755.36,490.59Z"/><path d="M1710.67,553a2.8,2.8,0,0,1-.31-.09s0-.11,0-.17a2.29,2.29,0,0,1,.31.09S1710.68,553,1710.67,553Z"/><path d="M1702.7,551.91v.19l-.29-.07c0-.06.07-.14.12-.17S1702.64,551.89,1702.7,551.91Z"/><path d="M1746.86,506.24h-.33c0-.07,0-.17,0-.2a1.91,1.91,0,0,1,.32-.16Z"/><path d="M1743.83,503l.29.08a1,1,0,0,1,0,.16l-.29-.08Z"/><path d="M1709.64,559l.06-.16.28.13-.24.16A1,1,0,0,1,1709.64,559Z"/><path d="M1707.85,560.7l-.13-.12.24-.15c0,.06,0,.13,0,.17S1707.9,560.67,1707.85,560.7Z"/><path d="M1745.57,496c0,.05.08.14.07.15a2.61,2.61,0,0,1-.28.17,1.41,1.41,0,0,1-.06-.15A2.46,2.46,0,0,1,1745.57,496Z"/><path d="M1724.07,541.47a1.58,1.58,0,0,1-.31.09s-.09-.14-.06-.17a1.73,1.73,0,0,1,.23-.24Z"/><path d="M1758.81,509.3s.12,0,.14.07,0,.11,0,.16l-.24-.12Z"/><path d="M1725.56,571.14l.12.13-.24.07c0-.05,0-.11,0-.15S1725.51,571.16,1725.56,571.14Z"/><polygon points="1696.48 575.75 1696.49 575.59 1696.62 575.68 1696.48 575.75"/><path d="M1704.93,560.45s.12,0,.16,0,0,.1.05.15l-.26,0Z"/><polygon points="1770.74 477.63 1770.56 477.69 1770.6 477.54 1770.74 477.63"/><polygon points="1757.44 482.5 1757.57 482.58 1757.42 482.65 1757.44 482.5"/><polygon points="1716.62 517.52 1716.68 517.39 1716.75 517.51 1716.62 517.52"/><path d="M1687.46,607.48l-.16.1-.06-.31c.06,0,.14,0,.18,0S1687.44,607.41,1687.46,607.48Z"/><path d="M1717.07,607.17l.16-.07,0,.23c-.06,0-.13,0-.17,0S1717.08,607.22,1717.07,607.17Z"/><path d="M1698,592.11s.09-.11.14-.11.1.06.15.09l-.22.2Z"/><path d="M1739.09,519.9l-.19,0,.13-.27s.12.08.13.13S1739.11,519.85,1739.09,519.9Z"/><path d="M1726.56,516.39c0,.06,0,.13,0,.17s-.1,0-.15.07l0-.28Z"/><path d="M1702.19,572.84l.16-.09,0,.3c-.06,0-.14,0-.18,0S1702.19,572.9,1702.19,572.84Z"/><path d="M1700.1,523.74s.11.1.1.15-.08.12-.12.18l-.18-.25Z"/><polygon points="1704.15 613.73 1704.2 613.6 1704.29 613.71 1704.15 613.73"/><path d="M1789.52,499.69l.24.09s0,.09,0,.13a2.5,2.5,0,0,1-.25-.09Z"/><path d="M1687.33,580.83l.09-.12s.1.06.1.1,0,.08-.08.12Z"/><path d="M1716.16,601.5l.15.1-.22.16s-.07-.11-.06-.16S1716.12,601.53,1716.16,601.5Z"/><path d="M1723.33,524.52s-.06-.12,0-.16.1-.05.16-.07l0,.26Z"/></svg>