<svg xmlns="http://www.w3.org/2000/svg" viewBox="0 0 1200 1200"><defs><style>.cls-1{fill:#fff6f0;}.cls-2{fill:#3856dd;}</style></defs><g id="Layer_1" data-name="Layer 1"><rect class="cls-1" width="1200" height="1200"/><rect class="cls-2" x="103" y="366.51" width="154.5" height="460.84"/><path class="cls-2" d="M329.79,830.3q-24.72,0-39.79-15t-15.07-42V671q0-32.25,13.13-49.39t42.77-17.14q16.17,0,28.79,5.8a45.22,45.22,0,0,1,19.86,17.32q7.25,11.53,7.24,29V695H341.44V662.21q0-9.94-2.59-13.42t-8-3.46q-6.34,0-8.54,4.47t-2.2,11.91v111q0,9.19,2.78,13a9.28,9.28,0,0,0,8,3.78q5.82,0,8.21-4.66t2.4-12.1V732.78h45.8v42q0,29.24-15.14,42.4T329.79,830.3Z"/><path class="cls-2" d="M391.93,828.29l22-221.77h77.25l21.61,221.77H469.7l-3.24-35.79H439l-2.85,35.79Zm50.33-71.19H463L453,644.32h-2.07Z"/><path class="cls-2" d="M522.52,828.29V606.52h69.87q17.48,0,26.4,7.75t12,21.67a155.24,155.24,0,0,1,3,32.7q0,18.14-4.72,29t-17.8,15Q622,714.75,626.36,723t4.33,21.36v83.92h-44.9V741.47q0-9.71-4.07-12t-13.14-2.34V828.29Zm46.32-139.62h11q9.45,0,9.45-20,0-13-2.07-17t-7.77-4H568.84Z"/><path class="cls-2" d="M644.57,828.29V606.52h91.09v42.84H690.89v43.22h43v41.71h-43v50.78h47.75v43.22Z"/><path class="cls-2" d="M749.41,828.29V606.52H840.5v42.84H795.73v43.22h43v41.71h-43v50.78h47.75v43.22Z"/><path class="cls-2" d="M854.25,828.29V606.52h69.87q17.48,0,26.4,7.75t12,21.67a155.24,155.24,0,0,1,3,32.7q0,18.14-4.73,29t-17.79,15q10.74,2.14,15.08,10.4t4.33,21.36v83.92h-44.9V741.47q0-9.71-4.07-12t-13.14-2.34V828.29Zm46.32-139.62h11q9.45,0,9.45-20,0-13-2.07-17c-1.39-2.69-4-4-7.77-4H900.57Z"/><path class="cls-2" d="M1030.38,830.3q-31.19,0-45-15.12t-13.78-48.13V745.38h45V773.1q0,7.68,2.39,12t8.35,4.35q6.21,0,8.6-3.53t2.4-11.59a60.42,60.42,0,0,0-2.07-17.08,38,38,0,0,0-7.19-13.1A148.59,148.59,0,0,0,1015,729.62l-20.45-18.9q-22.9-21-22.9-48.13,0-28.35,13.52-43.22t39.14-14.87q31.32,0,44.45,16.25t13.13,49.4h-46.32V654.9a9.29,9.29,0,0,0-2.65-7,10,10,0,0,0-7.18-2.52q-5.44,0-8,3a11.33,11.33,0,0,0-2.52,7.62,23.59,23.59,0,0,0,2.58,10.08q2.59,5.41,10.22,12.48L1054.32,703a149,149,0,0,1,14.49,15.43,66.48,66.48,0,0,1,10.61,18.9q4,10.78,4,26.28,0,31.25-11.84,49T1030.38,830.3Z"/><path class="cls-2" d="M271.46,590.47l24.37-223.42h85.59l23.94,223.42H357.62L354,554.42H323.65l-3.16,36.05Zm55.77-71.72h22.94l-11-113.61h-2.3Z"/><path class="cls-2" d="M472.88,592.5q-54.06,0-54.05-68.55V427.6q0-62.58,61.93-62.58,25.51,0,39.14,9.08t18.78,26.47Q543.84,418,543.84,443H494.52v-19.8A29.29,29.29,0,0,0,492.3,411q-2.22-4.89-9.25-4.89-8.74,0-11.54,5.21a23.77,23.77,0,0,0-2.79,11.42V531.06q0,9,2.65,14.66t10.39,5.65c5.36,0,8.91-1.88,10.68-5.65s2.66-8.73,2.66-14.91V498.94H481.62V460.35h61.64V590.47H523.05l-8.6-18.79Q501.27,592.5,472.88,592.5Z"/><path class="cls-2" d="M563.19,590.47V367.05H664.11v43.16h-49.6v43.54H662.1v42H614.51v51.16h52.9v43.54Z"/><path class="cls-2" d="M684,590.47V367.05h51.89l23.22,107v-107h48.74V590.47H758.58L733.35,478.76V590.47Z"/><path class="cls-2" d="M889,592.5q-27.37,0-44.08-15.11t-16.7-42.27V432.05q0-32.51,14.55-49.76T890.18,365q17.91,0,31.9,5.84a49,49,0,0,1,22,17.46q8,11.61,8,29.26v38.59H901.93v-33q0-10-2.86-13.52t-8.89-3.49q-7,0-9.46,4.51t-2.44,12V534.49q0,9.27,3.08,13.07t8.82,3.81q6.45,0,9.1-4.7t2.65-12.18V494.25h50.75v42.27q0,29.44-16.77,42.71T889,592.5Z"/><path class="cls-2" d="M1000,590.47V517L959.71,367.05h50l14,75.66,14-75.66h49.89L1047.58,517v73.5Z"/><path class="cls-1" d="M233.86,788.47q0,12.48-7.13,20.09t-19.92,7.62h-48.6q-15.32,0-23.46-6.64t-8.14-21.6a36.46,36.46,0,0,1,2.75-14.54,22.5,22.5,0,0,1,8.23-10q5.47-3.66,13.8-3.66h18.19v22.87H154c-3.15,0-5.28.44-6.37,1.31a4.85,4.85,0,0,0-1.65,4.05q0,3.21,2.13,4.32a12.23,12.23,0,0,0,5.65,1.11h52.73q4.37,0,6.16-1.41a4.78,4.78,0,0,0,1.8-4,4.33,4.33,0,0,0-2.22-4.15,12,12,0,0,0-5.74-1.21h-19V759.45h19.92q13.89,0,20.14,7.64T233.86,788.47Z"/><path class="cls-1" d="M232.9,751.8H127.57V716.5q0-8.82,3.68-13.33a18.12,18.12,0,0,1,10.29-6,69.57,69.57,0,0,1,15.53-1.53q8.63,0,13.77,2.39t7.12,9q1-5.41,4.94-7.61A20.65,20.65,0,0,1,193,697.16H232.9v22.68H191.66c-3.07,0-5,.68-5.71,2.06s-1.11,3.58-1.11,6.63H232.9Zm-66.31-23.4v-5.56c0-3.17-3.17-4.77-9.52-4.77q-6.16,0-8.08,1c-1.27.7-1.91,2-1.91,3.92v5.36Z"/><path class="cls-1" d="M232.9,688H127.57V642h20.35v22.62h20.52v-21.7h19.81v21.7h24.12V640.49H232.9Z"/><path class="cls-1" d="M232.9,636.05,127.57,624.94v-39L232.9,575v21.77l-17,1.63v13.86l17,1.43Zm-33.81-25.43V600.16l-53.57,5v1Z"/><path class="cls-1" d="M232.9,559.77H147.8v13.66H127.57V523.1H147.8v13.66h85.1Z"/><path class="cls-1" d="M232.9,517.74H127.57V495.52H232.9Z"/><path class="cls-1" d="M232.9,475.78,127.51,490v-21.9l71.7-8.43-71.7-7.52V430.23L232.9,444.41Z"/><path class="cls-1" d="M232.9,423.56H127.57v-46h20.35v22.61h20.52v-21.7h19.81v21.7h24.12V376H232.9Z"/></g></svg>