<svg id="Layer_3" data-name="Layer 3" xmlns="http://www.w3.org/2000/svg" viewBox="0 0 2414.56 2100"><defs><style>.cls-1{fill:#fff;}.cls-10,.cls-11,.cls-12,.cls-13,.cls-15,.cls-2,.cls-3,.cls-6{fill:none;stroke-linecap:round;stroke-linejoin:round;}.cls-10,.cls-11,.cls-15,.cls-2{stroke:#231f20;}.cls-2{stroke-width:3.07px;}.cls-3{stroke:#070606;stroke-width:4.24px;}.cls-4{fill:#231f20;}.cls-5{fill:#3856dd;}.cls-6{stroke:#91b6ed;}.cls-12,.cls-6{stroke-width:4.28px;}.cls-7{fill:#91b6ed;}.cls-8{fill:#ff71af;}.cls-9{fill:#e8d2ca;}.cls-10{stroke-width:3.31px;}.cls-11{stroke-width:4.71px;}.cls-12{stroke:#ff71af;}.cls-13{stroke:#fff;}.cls-13,.cls-15{stroke-width:3.32px;}.cls-14{fill:#f4a2a2;}.cls-16{fill:#4dccc8;}</style></defs><path class="cls-1" d="M976.59,1234.89v521.63c0,16.67-12.9,30.19-28.81,30.19H270.14c-15.91,0-28.81-13.52-28.81-30.19V1234.89c0-16.67,12.9-30.19,28.81-30.19H947.78C963.69,1204.7,976.59,1218.22,976.59,1234.89Z"/><path class="cls-1" d="M976.59,1234.89v56.41H241.33v-56.41c0-16.67,12.9-30.19,28.81-30.19H947.78C963.69,1204.7,976.59,1218.22,976.59,1234.89Z"/><path class="cls-2" d="M976.59,1234.89v521.63c0,16.67-12.9,30.19-28.81,30.19H270.14c-15.91,0-28.81-13.52-28.81-30.19V1234.89c0-16.67,12.9-30.19,28.81-30.19H947.78C963.69,1204.7,976.59,1218.22,976.59,1234.89Z"/><path class="cls-2" d="M976.59,1234.89v56.41H241.33v-56.41c0-16.67,12.9-30.19,28.81-30.19H947.78C963.69,1204.7,976.59,1218.22,976.59,1234.89Z"/><ellipse class="cls-1" cx="918.37" cy="1248" rx="12.29" ry="13.75"/><ellipse class="cls-1" cx="870.57" cy="1248" rx="12.29" ry="13.75"/><ellipse class="cls-1" cx="819.5" cy="1248" rx="12.29" ry="13.75"/><ellipse class="cls-3" cx="918.37" cy="1248" rx="12.29" ry="13.75"/><ellipse class="cls-3" cx="870.57" cy="1248" rx="12.29" ry="13.75"/><ellipse class="cls-3" cx="819.5" cy="1248" rx="12.29" ry="13.75"/><rect class="cls-2" x="321.64" y="1376.88" width="576.94" height="51"/><rect class="cls-4" x="321.64" y="1376.88" width="47.14" height="51"/><rect class="cls-2" x="321.64" y="1481.91" width="576.94" height="51"/><rect class="cls-4" x="492.87" y="1481.91" width="47.14" height="51"/><rect class="cls-2" x="321.64" y="1587.26" width="576.94" height="51"/><rect class="cls-5" x="647.69" y="1587.26" width="47.14" height="51"/><rect class="cls-2" x="647.69" y="1587.26" width="47.14" height="51"/><path class="cls-1" d="M923.86,608.2v565.59c0,18.09-8,32.74-17.94,32.74H389.45c-9.91,0-17.94-14.65-17.94-32.74V608.2c0-18.08,8-32.74,17.94-32.74H905.92C915.83,575.46,923.86,590.12,923.86,608.2Z"/><path class="cls-2" d="M923.86,608.2v565.59c0,18.09-8,32.74-17.94,32.74H389.45c-9.91,0-17.94-14.65-17.94-32.74V608.2c0-18.08,8-32.74,17.94-32.74H905.92C915.83,575.46,923.86,590.12,923.86,608.2Z"/><path class="cls-4" d="M923.86,608.2v61.16H371.51V608.2c0-18.08,8-32.74,17.94-32.74H905.92C915.83,575.46,923.86,590.12,923.86,608.2Z"/><ellipse class="cls-5" cx="866.77" cy="625.8" rx="11.7" ry="13.1"/><ellipse class="cls-5" cx="821.24" cy="625.8" rx="11.7" ry="13.1"/><ellipse class="cls-5" cx="772.59" cy="625.8" rx="11.7" ry="13.1"/><path class="cls-1" d="M2156.26,1189.91v568.26c0,18.17-14.06,32.89-31.38,32.89H1386.65c-17.33,0-31.38-14.72-31.38-32.89V1189.91c0-18.16,14-32.89,31.38-32.89h738.23C2142.2,1157,2156.26,1171.75,2156.26,1189.91Z"/><path class="cls-2" d="M2156.26,1189.91v568.26c0,18.17-14.06,32.89-31.38,32.89H1386.65c-17.33,0-31.38-14.72-31.38-32.89V1189.91c0-18.16,14-32.89,31.38-32.89h738.23C2142.2,1157,2156.26,1171.75,2156.26,1189.91Z"/><path class="cls-2" d="M2156.26,1189.91v61.45h-801v-61.45c0-18.16,14-32.89,31.38-32.89h738.23C2142.2,1157,2156.26,1171.75,2156.26,1189.91Z"/><ellipse class="cls-5" cx="2092.84" cy="1204.19" rx="13.39" ry="14.98"/><ellipse class="cls-5" cx="2040.77" cy="1204.19" rx="13.39" ry="14.98"/><ellipse class="cls-5" cx="1985.12" cy="1204.19" rx="13.39" ry="14.98"/><path class="cls-6" d="M2077.46,1707.34H1455.28L1527.42,1471c21.73-71.18,102.43-87,143.12-28l95.83,138.8,116.26-77.57c40-26.69,91.13-10.42,113.78,36.22Z"/><ellipse class="cls-6" cx="1785.96" cy="1406.83" rx="56.54" ry="62.63"/><path class="cls-4" d="M671.25,709.41v227.7l-145.36-161C563.09,734.9,614.47,709.41,671.25,709.41Z"/><path class="cls-7" d="M816.62,776.1l-145.36,161h0V709.41C728,709.41,779.41,734.9,816.62,776.1Z"/><path class="cls-8" d="M876.83,937.11H671.26l145.36-161C853.82,817.3,876.83,874.22,876.83,937.11Z"/><path class="cls-5" d="M876.83,937.11c0,62.89-23,119.81-60.21,161l-145.36-161Z"/><path class="cls-7" d="M816.62,1098.12c-37.21,41.2-88.6,66.69-145.37,66.69V937.11h0Z"/><path class="cls-5" d="M671.25,937.11v227.7c-56.78,0-108.16-25.49-145.36-66.69Z"/><path class="cls-7" d="M671.25,937.11l-145.36,161c-37.2-41.2-60.21-98.12-60.21-161Z"/><path class="cls-9" d="M671.25,937.11H465.68c0-62.89,23-119.81,60.21-161Z"/><path class="cls-10" d="M671.25,709.41v227.7l-145.36-161C563.09,734.9,614.47,709.41,671.25,709.41Z"/><path class="cls-10" d="M816.62,776.1l-145.36,161h0V709.41C728,709.41,779.41,734.9,816.62,776.1Z"/><path class="cls-10" d="M876.83,937.11H671.26l145.36-161C853.82,817.3,876.83,874.22,876.83,937.11Z"/><path class="cls-10" d="M876.83,937.11c0,62.89-23,119.81-60.21,161l-145.36-161Z"/><path class="cls-10" d="M816.62,1098.12c-37.21,41.2-88.6,66.69-145.37,66.69V937.11h0Z"/><path class="cls-10" d="M671.25,937.11v227.7c-56.78,0-108.16-25.49-145.36-66.69Z"/><path class="cls-10" d="M671.25,937.11l-145.36,161c-37.2-41.2-60.21-98.12-60.21-161Z"/><path class="cls-10" d="M671.25,937.11H465.68c0-62.89,23-119.81,60.21-161Z"/><rect class="cls-1" x="858.92" y="339.22" width="785" height="1452.58" rx="37.46"/><rect class="cls-2" x="858.92" y="339.22" width="785" height="1452.58" rx="37.46"/><rect class="cls-5" x="882.43" y="364.31" width="739.24" height="1402.41" rx="37.46"/><rect class="cls-2" x="882.43" y="364.31" width="739.24" height="1402.41" rx="37.46"/><ellipse class="cls-4" cx="1242.55" cy="426.6" rx="15.98" ry="17.7"/><rect class="cls-4" x="1643.93" y="444.3" width="12.73" height="106.46"/><rect class="cls-4" x="1643.93" y="581.03" width="12.73" height="138.25"/><rect class="cls-4" x="1574.6" y="410.52" width="7.46" height="22.5" rx="1.91"/><path class="cls-11" d="M1583.93,406.08h-1v-3.74h-9.21v3.74h-1a1.91,1.91,0,0,0-1.8,2v27a1.9,1.9,0,0,0,1.8,2h11.21a1.9,1.9,0,0,0,1.8-2v-27A1.91,1.91,0,0,0,1583.93,406.08Z"/><rect class="cls-4" x="1553.83" y="405.91" width="5.7" height="33.67"/><rect class="cls-4" x="1545.36" y="413.96" width="5.7" height="25.63"/><rect class="cls-4" x="1536.89" y="419.76" width="5.7" height="19.83"/><rect class="cls-4" x="1528.41" y="428.74" width="5.7" height="10.85"/><path class="cls-11" d="M1484.05,418.19c3.83-7.34,11-12.28,19.2-12.28s15.38,4.94,19.21,12.28"/><path class="cls-11" d="M1489.07,422.73a15.63,15.63,0,0,1,28.37,0"/><path class="cls-11" d="M1495.2,427.06a8.87,8.87,0,0,1,16.11,0"/><ellipse class="cls-4" cx="1503.26" cy="432.47" rx="3.6" ry="3.98"/><rect class="cls-12" x="943.97" y="505.41" width="618.17" height="507.76"/><rect class="cls-13" x="943.97" y="1056.19" width="618.17" height="253.88"/><rect class="cls-6" x="943.97" y="1350.09" width="618.17" height="355.96"/><line class="cls-12" x1="943.97" y1="505.41" x2="1562.14" y2="1013.17"/><line class="cls-12" x1="1562.14" y1="505.41" x2="943.97" y2="1013.17"/><line class="cls-13" x1="943.97" y1="1056.19" x2="1562.14" y2="1310.07"/><line class="cls-13" x1="1562.14" y1="1056.19" x2="943.97" y2="1310.07"/><line class="cls-6" x1="943.97" y1="1350.09" x2="1562.14" y2="1706.05"/><line class="cls-6" x1="1562.14" y1="1350.09" x2="943.97" y2="1706.05"/><path class="cls-4" d="M2219.12,1796.56H898c-24.55,0-44.46-22-44.46-49.25v-84.92c0-27.2,19.91-49.26,44.46-49.26H2219.12l162.67,78.22c10.65,5.13,10.65,21.87,0,27Z"/><line class="cls-13" x1="2219.12" y1="1613.13" x2="2219.12" y2="1796.56"/><line class="cls-13" x1="2366.72" y1="1684.11" x2="2366.72" y2="1725.59"/><path class="cls-13" d="M1728.63,1704.85h0c0,11.45,8.38,20.74,18.72,20.74h348.52c10.34,0,18.72-9.29,18.72-20.74h0c0-11.46-8.38-20.74-18.72-20.74H1747.35C1737,1684.11,1728.63,1693.39,1728.63,1704.85Z"/><line class="cls-13" x1="1924.15" y1="1684.11" x2="1924.15" y2="1725.59"/><path class="cls-14" d="M1072.81,625c-35.14-33.31-67.32-16.07-96.8,47.28l-199.12,219,70.52,76.58,214.34-248.13Z"/><path class="cls-15" d="M1072.81,625c-35.14-33.31-67.32-16.07-96.8,47.28l-199.12,219,70.52,76.58,214.34-248.13Z"/><path class="cls-9" d="M1072.81,625l-11.06,94.78-55.33,64-82-54.76L976,672.31C1005.49,609,1037.67,591.72,1072.81,625Z"/><path class="cls-15" d="M1072.81,625l-11.06,94.78-55.33,64-82-54.76L976,672.31C1005.49,609,1037.67,591.72,1072.81,625Z"/><path class="cls-9" d="M1054.84,648.22l18-23.19,18.29,5.18,32.7,9.27L1177.91,656l29.67,15.87,15.42,8.25,1.92,1,8.3,123.15L1216.6,849l-52.1,136.73L970,902.81l25.39-140.52A231.45,231.45,0,0,1,1004,721C1012.74,692,1036.88,671.39,1054.84,648.22Z"/><path class="cls-15" d="M1072.81,625l18.29,5.18,32.7,9.27L1177.91,656l29.67,15.87,15.42,8.25,1.92,1,8.3,123.15L1216.6,849l-52.1,136.73L970,902.81l25.39-140.52A231.45,231.45,0,0,1,1004,721c8.75-29,18.25-33.39,36.21-56.56"/><path class="cls-14" d="M1122.1,601.17c-15.83-3.77-29.58-16.44-32.14-34.48-1.77-12.36-2.23-25.23-.24-37.27,2.48-15.11,8.81-28.89,21.27-38.61,13.41-10.43,30.48-14.15,46.8-12.48a68.12,68.12,0,0,1,19.22,4.75,55.7,55.7,0,0,1,6.82,3.42c19.48,11.48,34.5,35.53,32.61,60.4-1.11,14.69-9.28,29-21.34,34.86l-.31,1.44L1179,656.56l28.59,15.28c-12.21,13.74-24.94,27.16-40.37,35.95-17.3,9.85-38.9,13-56,2.84-13.47-8-22.67-23.63-25.2-40.32a77,77,0,0,1,5.14-40.1l21.35,6Z"/><path class="cls-15" d="M1118.36,550.26a31.49,31.49,0,0,1-13.42-2.39,7.22,7.22,0,0,1-2.88-1.87,3.45,3.45,0,0,1-.66-3.43c.57-1.29,2-1.74,3.28-2,6.27-1.2,12.68-.9,19-.59"/><path class="cls-15" d="M1115.33,554.71c.83,6.38,12.82,6.13,15.12,0"/><ellipse class="cls-4" cx="1134.97" cy="536.12" rx="5.42" ry="4.16" transform="translate(-116.49 633.21) rotate(-29.72)"/><ellipse class="cls-4" cx="1109.51" cy="534.85" rx="4.16" ry="5.42" transform="translate(94.96 1233.24) rotate(-60.28)"/><path class="cls-15" d="M1194.79,583.2,1179,656.56l28.59,15.28c-12.21,13.73-24.94,27.16-40.37,35.94-17.31,9.86-38.9,13-56.06,2.85-13.46-8-22.67-23.63-25.19-40.32a77.24,77.24,0,0,1,5.13-40.1l21.37,6,9.63-35.09c-15.82-3.77-29.56-16.44-32.14-34.48-1.76-12.36-2.22-25.23-.23-37.27.4-2.46.9-4.88,1.53-7.25a67.86,67.86,0,0,1,3.37-9.9A53.78,53.78,0,0,1,1111,490.81c13.4-10.43,30.49-14.14,46.8-12.48a68.12,68.12,0,0,1,19.22,4.75,54.31,54.31,0,0,1,6.82,3.42c19.48,11.48,34.5,35.53,32.61,60.41-1.11,14.68-9.28,29-21.34,34.85Z"/><path class="cls-14" d="M1237.72,851l114.42,313.74c58.08,11.49,85.86-22.25,76-75.81L1336.9,835.3Z"/><path class="cls-15" d="M1213.59,784.82l138.55,379.92c58.08,11.49,85.86-22.25,76-75.81L1314.3,772.51c-13.13-87.3-40.6-96.22-70.94-89L1223,680.09"/><path class="cls-9" d="M1207.14,786.55c-.4-20.87-2.3-82,9.48-98.33,2-2.8,4.14-5.53,6.37-8.14l20.37,3.46c30.34-7.25,63.88,3.21,77,90.5l29.32,76.19L1227.6,862.78Z"/><path class="cls-15" d="M1223,680.08l20.37,3.46c30.34-7.25,63.88,3.21,77,90.5l29.32,76.19L1227.6,862.78l-20.46-76.23"/><path class="cls-14" d="M754.23,930.19c6.13,19.08,15.32,37.68,29.88,49.94s46.17,10.12,63.3-12.21L839.11,948Z"/><path class="cls-15" d="M754.23,930.19c6.13,19.08,15.32,37.68,29.88,49.94s46.17,10.12,63.3-12.21"/><polygon class="cls-16" points="993.53 846.28 993.36 846.45 995.41 846.9 993.53 846.28"/><polygon class="cls-14" points="1170.94 1640.34 1005.48 1640.34 872.19 1520.93 1061.21 1520.93 1170.94 1640.34"/><polygon class="cls-14" points="558.45 1520.93 474.05 1621.95 303.04 1621.95 382.67 1520.93 558.45 1520.93"/><path class="cls-4" d="M1169.31,1005.3c-1.29,70.2-21.64,123.88-72.59,151L935.93,1332l149.25,189-219.62,10.65-132.95-135.7c-28.16-27.77-22.14-53.51-4.06-78.55L618.8,1520.93H382.67l212.84-297.06c5.13-40.54,191.28-173.53,191.28-173.53L970,902.8l194.5,61A157.06,157.06,0,0,1,1169.31,1005.3Z"/><line class="cls-15" x1="1342.54" y1="850.96" x2="1370.01" y2="957.16"/><line class="cls-13" x1="935.93" y1="1331.95" x2="906.09" y2="1364.76"/><line class="cls-15" x1="1011.97" y1="1470.77" x2="1056.68" y2="1544.04"/><polyline class="cls-13" points="635.84 1376.88 728.55 1317.33 952.75 1070.86"/><path class="cls-1" d="M1394.5,1010.57l-675.62-95.7c-48.08-6.81-82.07-55.5-75.93-108.76l.81-7c6.15-53.25,50.11-90.9,98.19-84.09l675.63,95.7c48.08,6.81,82.07,55.5,75.92,108.76l-.81,7C1486.54,979.73,1442.58,1017.38,1394.5,1010.57Z"/><path class="cls-15" d="M1394.5,1010.57l-675.62-95.7c-48.08-6.81-82.07-55.5-75.93-108.76l.81-7c6.15-53.25,50.11-90.9,98.19-84.09l675.63,95.7c48.08,6.81,82.07,55.5,75.92,108.76l-.81,7C1486.54,979.73,1442.58,1017.38,1394.5,1010.57Z"/><path class="cls-14" d="M1390.86,1041.44l-38.72,123.3-197.91-157.19-21.34-16.95A78.32,78.32,0,0,1,1103,976c-8.33-6.56-15.46-14.77-22.37-23.1-13.8-16.64-19.29-41.2-36-54.11a498.09,498.09,0,0,1-53.84-48.26c-5-5.22-10.12-10.81-12.61-17.93-1.74-5-1.54-11.82,2.67-14.51,2.14-1.36,4.77-1.28,7.22-.86,9.44,1.63,17.74,7.62,25.67,13.52,15.91,11.8,32,22.63,47.66,34.85a329.11,329.11,0,0,1-51.83-51.13c-2.79-3.44-5.6-7.09-6.8-11.52s-.39-9.87,3-12.57c4.94-3.93,11.75-.26,16.78,3.54,9.59,7.26,19.33,14.7,28.72,22.61-7.35-7.6-14.52-15.4-21.4-23.53-3.93-4.64-7.93-9.75-8.82-16s2.79-13.74,8.53-13.93c3.28-.11,6.21,2.06,8.88,4.17,14.64,11.57,29.41,24,43.52,37.08q-15.42-16.11-29.62-33.56c-2.3-2.82-4.63-5.79-5.63-9.41s-.31-8.11,2.51-10.26c3-2.31,7.17-1.18,10.53.48,7.65,3.78,14.2,9.79,20.63,15.72,12.9,11.88,27.08,22.34,39.85,34.39-5.93-13.27-12.45-27.53-9.62-41.9.52-2.6,1.42-5.27,3.32-6.88,2.67-2.27,6.61-1.79,9.47.16s4.88,5.08,6.78,8.14q14,22.36,26,46.13a615.5,615.5,0,0,1,36.16,87.87c1.23,3.77,2.89,8.16,3.91,12.2Z"/><path class="cls-15" d="M1390.86,1041.44,1196.22,907.36c-1-4.05-2.68-8.44-3.9-12.21a616.22,616.22,0,0,0-36.17-87.87q-12-23.71-26-46.13c-1.91-3.06-3.92-6.19-6.78-8.14s-6.8-2.43-9.47-.17c-1.9,1.62-2.81,4.29-3.32,6.89-2.83,14.38,3.69,28.64,9.63,41.9-12.78-12-27-22.51-39.86-34.39-6.44-5.94-13-12-20.63-15.73-3.36-1.65-7.5-2.78-10.53-.47-2.82,2.15-3.51,6.63-2.5,10.25s3.32,6.6,5.61,9.42q14.18,17.44,29.63,33.56c-14.11-13.06-28.89-25.51-43.52-37.08-2.67-2.11-5.61-4.29-8.88-4.18-5.74.2-9.42,7.67-8.53,14s4.9,11.39,8.82,16c6.87,8.13,14.05,15.93,21.4,23.53-9.4-7.91-19.13-15.35-28.72-22.61-5-3.8-11.84-7.47-16.79-3.53-3.39,2.69-4.21,8.13-3,12.56s4,8.08,6.8,11.51a328.75,328.75,0,0,0,51.83,51.14c-15.65-12.22-31.74-23.05-47.66-34.86-7.94-5.89-16.23-11.88-25.68-13.51-2.43-.42-5.07-.5-7.21.86-4.21,2.68-4.41,9.48-2.67,14.5,2.48,7.14,7.57,12.72,12.61,17.94a499,499,0,0,0,53.84,48.26c16.72,12.92,22.21,37.47,36,54.11,6.91,8.33,14,16.55,22.37,23.1a78.32,78.32,0,0,0,29.89,14.62l219.25,174.14"/><line class="cls-15" x1="1051.27" y1="816.51" x2="1085.18" y2="846.28"/><line class="cls-15" x1="1081.98" y1="804.27" x2="1109.22" y2="825.48"/><path class="cls-9" d="M78,1738.7c-11.55,23.68-15.28,52.1,29.7,51.73H548.19c35.2-.94,37.94-23,30.42-51.73l-26.73-35L107.71,1719.3Z"/><path class="cls-15" d="M78,1738.7c-11.55,23.68-15.28,52.1,29.7,51.73H548.19c35.2-.94,37.94-23,30.42-51.73l-26.73-35L107.71,1719.3Z"/><path class="cls-7" d="M550,1632l28.58,106.69c-55.34-27.91-117.56-29.7-188.06,0H78l16.62-57.12c16.38-37.06,51.82-46.41,98.18-39.87L291,1611c36-110.45,77.49-65.3,119.74,0C479.25,1570.13,546,1533.18,550,1632Z"/><path class="cls-15" d="M550,1632l28.58,106.69c-55.34-27.91-117.56-29.7-188.06,0H78l16.62-57.12c16.38-37.06,51.82-46.41,98.18-39.87L291,1611c36-110.45,77.49-65.3,119.74,0C479.25,1570.13,546,1533.18,550,1632Z"/><path class="cls-15" d="M321.64,1612.76c-47.91-37.55-84.66-76.14-103.81-116.34a37.71,37.71,0,0,1-3.46-19.19c1.39-17.07,8-25.52,19.12-26.7,9.57-1,18.85,4.08,24.8,12.84C289,1508.58,308.77,1559,321.64,1612.76Z"/><path class="cls-15" d="M325,1614c-34.05-52.94-57.26-102.79-63.38-147.74a37.92,37.92,0,0,1,2.44-19.38c6.4-15.61,15.19-21.15,26-18.22,9.34,2.53,16.59,10.74,19.59,21.17C325.14,1503.69,328.83,1558.53,325,1614Z"/><line class="cls-15" x1="550.03" y1="1632.01" x2="529.98" y2="1687.3"/><line class="cls-15" x1="192.81" y1="1641.71" x2="261.26" y2="1670.96"/><path class="cls-4" d="M1216.44,546.9c-1.11,14.69-9.28,29-21.34,34.86l-.31,1.44a17.72,17.72,0,0,1-2.37-2.6c-2.85-3.81-4.46-8.56-6-13.23-2.43-7.63-4.68-15.41-5.3-23.47a11.61,11.61,0,0,1-6,6.47c-3,1.33-5.1,0-7.63-2-7.5-5.94-10.19-17-11.23-26.64a34.64,34.64,0,0,1,10.57-28.22,25.49,25.49,0,0,1,17-7C1203.31,498,1218.33,522,1216.44,546.9Z"/><polygon class="cls-4" points="1164.5 963.83 1154.23 1007.55 1132.89 990.6 1164.5 963.83"/><path class="cls-14" d="M753,908.9a87.74,87.74,0,0,1,10.91-35.8,613,613,0,0,1,55.93-83.82c15.78-19.85,36.76-33.87,55.12-50.78,6.44-5.94,13-12,20.63-15.73,3.8-1.87,8.59-3.07,11.65.61a9.11,9.11,0,0,1,1.85,6.55c-.39,4.87-3.26,8.56-6.08,12a541.58,541.58,0,0,1-53.22,56.75c20.58-21.61,44-42,67.11-60.27,3.56-2.82,7.61-5.75,12.29-3.21a10.87,10.87,0,0,1,5.23,8.75c.72,8.28-4.16,14.62-8.93,20.25-16.13,19.07-33.84,36.43-51.87,53.29,17.15-20.22,38.51-36.72,59.19-52.37,5.23-3.95,12.38-7.76,17.36-3a11,11,0,0,1,3,9c-.49,5.89-3.93,10.41-7.35,14.62A328.75,328.75,0,0,1,894,836.84c15.65-12.22,31.74-23.05,47.66-34.86,7.94-5.89,16.23-11.88,25.68-13.51,3.82-.66,8.15-.48,10.25,4.81a13.32,13.32,0,0,1,.36,8.1c-2.07,8.34-7.74,14.58-13.34,20.39A498.09,498.09,0,0,1,910.73,870c-16.72,12.92-22.21,37.47-36,54.11-6.91,8.33-14,16.55-22.37,23.1a77.86,77.86,0,0,1-33.45,15.4C770.29,963.53,750.31,944.21,753,908.9Z"/><path class="cls-15" d="M753,908.9a87.74,87.74,0,0,1,10.91-35.8,613,613,0,0,1,55.93-83.82c15.78-19.85,36.76-33.87,55.12-50.78,6.44-5.94,13-12,20.63-15.73,3.8-1.87,8.59-3.07,11.65.61a9.11,9.11,0,0,1,1.85,6.55c-.39,4.87-3.26,8.56-6.08,12a541.58,541.58,0,0,1-53.22,56.75c20.58-21.61,44-42,67.11-60.27,3.56-2.82,7.61-5.75,12.29-3.21a10.87,10.87,0,0,1,5.23,8.75c.72,8.28-4.16,14.62-8.93,20.25-16.13,19.07-33.84,36.43-51.87,53.29,17.15-20.22,38.51-36.72,59.19-52.37,5.23-3.95,12.38-7.76,17.36-3a11,11,0,0,1,3,9c-.49,5.89-3.93,10.41-7.35,14.62A328.75,328.75,0,0,1,894,836.84c15.65-12.22,31.74-23.05,47.66-34.86,7.94-5.89,16.23-11.88,25.68-13.51,3.82-.66,8.15-.48,10.25,4.81a13.32,13.32,0,0,1,.36,8.1c-2.07,8.34-7.74,14.58-13.34,20.39A498.09,498.09,0,0,1,910.73,870c-16.72,12.92-22.21,37.47-36,54.11-6.91,8.33-14,16.55-22.37,23.1a77.86,77.86,0,0,1-33.45,15.4C770.29,963.53,750.31,944.21,753,908.9Z"/><ellipse class="cls-14" cx="1192.98" cy="541.43" rx="22.04" ry="24.41"/><ellipse class="cls-15" cx="1192.98" cy="541.43" rx="22.04" ry="24.41"/><line class="cls-15" x1="1185.28" y1="530.37" x2="1194.04" y2="551.82"/><line class="cls-15" x1="1190.49" y1="543.14" x2="1200.03" y2="530.37"/><polygon class="cls-4" points="1122.1 601.17 1147.2 601.17 1118.26 615.13 1122.1 601.17"/><path class="cls-9" d="M732.61,1738.7c-11.54,23.68-15.28,52.1,29.71,51.73h440.47c35.21-.94,37.94-23,30.43-51.73l-26.74-35L762.32,1719.3Z"/><path class="cls-15" d="M732.61,1738.7c-11.54,23.68-15.28,52.1,29.71,51.73h440.47c35.21-.94,37.94-23,30.43-51.73l-26.74-35L762.32,1719.3Z"/><path class="cls-7" d="M945.59,1611c-78.15-101.6,58.08-37.19,149.35,11.31,31.25-84.66,81.4-63.58,109.7,9.7l28.58,106.69c-55.35-27.91-117.56-29.7-188.07,0H732.61l16.62-57.12c16.39-37.06,51.82-46.41,98.18-39.87Z"/><path class="cls-15" d="M945.59,1611c-78.15-101.6,58.08-37.19,149.35,11.31,31.25-84.66,81.4-63.58,109.7,9.7l28.58,106.69c-55.35-27.91-117.56-29.7-188.07,0H732.61l16.62-57.12c16.39-37.06,51.82-46.41,98.18-39.87Z"/><path class="cls-15" d="M952.75,1640.87c-58.39-6.53-107.53-20-142.08-44.59a33.65,33.65,0,0,1-11.55-14.8c-6.38-15.62-4.35-26.6,4.76-33.67,7.88-6.12,18.23-6.74,27.29-2.36C878,1568,917.64,1601.11,952.75,1640.87Z"/><line class="cls-15" x1="847.41" y1="1641.71" x2="898.58" y2="1647.89"/><line class="cls-15" x1="1204.64" y1="1632.01" x2="1201.14" y2="1687.3"/><path class="cls-15" d="M956.2,1640.12c-53.18-27.5-95.55-58.21-120.87-94a36.71,36.71,0,0,1-6.49-18.2c-1.38-17.08,3.8-26.7,14.51-30,9.26-2.89,19.22.29,26.47,7.74C907.28,1544.05,934.89,1589.76,956.2,1640.12Z"/><path class="cls-4" d="M1149.75,526.92a9.87,9.87,0,0,0,4.28-.62,4.27,4.27,0,0,0,2.56-3.58,4.88,4.88,0,0,0-1.94-3.75c-2.4-2-5.59-2.37-8.6-2.64-5.71-.52-11.58-1-17.07.78-5.94,2-5.26,9,.83,8.79C1136.45,525.67,1143.09,526.88,1149.75,526.92Z"/><path class="cls-4" d="M1116.45,519a4.29,4.29,0,0,1-2.56,3.59,9.9,9.9,0,0,1-4.29.62c-6.13-.05-12.24-1.06-18.35-1-2.08-4.95-1.09-8.33,3.37-9.9a63.55,63.55,0,0,1,11.28.35c3,.27,6.21.62,8.61,2.64A4.94,4.94,0,0,1,1116.45,519Z"/><path class="cls-8" d="M1090.72,512.75,1220.14,527a5.37,5.37,0,0,0,5.78-5.09l1.66-20.55a5.51,5.51,0,0,0-4.69-6.06L1095,481a5.33,5.33,0,0,0-5.74,4.65l-3.22,20.55A5.56,5.56,0,0,0,1090.72,512.75Z"/><path class="cls-8" d="M1093.26,495.78l15.51-29.9a38.62,38.62,0,0,1,32-20.78,202.88,202.88,0,0,1,42.25,1.84,38.76,38.76,0,0,1,31.83,28.3l9.73,36.89Z"/><path class="cls-15" d="M1227.58,501.39l-1.66,20.55a5.37,5.37,0,0,1-5.78,5.09l-129.42-14.29a5.54,5.54,0,0,1-4.64-6.5l3.22-20.55A5.34,5.34,0,0,1,1095,481l5.55.62L1220,495l2.85.32A5.5,5.5,0,0,1,1227.58,501.39Z"/><path class="cls-15" d="M1220,495l-119.46-13.36,8.18-15.77a38.63,38.63,0,0,1,32-20.78,202.2,202.2,0,0,1,42.25,1.84,38.76,38.76,0,0,1,31.83,28.3Z"/><ellipse class="cls-15" cx="1383.08" cy="897.59" rx="22.93" ry="25.4"/><line class="cls-15" x1="1400.53" y1="914.07" x2="1424.93" y2="937.11"/></svg>