<svg id="Layer_3" data-name="Layer 3" xmlns="http://www.w3.org/2000/svg" viewBox="0 0 2414.56 2100"><defs><style>.cls-1{fill:#91b6ed;}.cls-2,.cls-5,.cls-8{fill:none;}.cls-11,.cls-2,.cls-5,.cls-8{stroke:#231f20;stroke-linecap:round;stroke-linejoin:round;}.cls-2{stroke-width:3.23px;}.cls-3{fill:#ff71af;}.cls-4{fill:#fff;}.cls-11,.cls-5{stroke-width:3.26px;}.cls-6{fill:#3856dd;}.cls-7{fill:#8c6742;}.cls-8{stroke-width:3.05px;}.cls-11,.cls-9{fill:#e8d2ca;}.cls-10{fill:#231f20;}</style></defs><path class="cls-1" d="M2156.25,1555.68c-115.83-58.66-199.24-83.44-321.06-136.6-27.75-12.11-58.92-24.1-89-17.09-19.6,4.57-35.56,16.66-54,24-34,13.44-74.41,9.58-109-2.74s-64.51-32.32-94.42-51.65q-113.76-73.53-234.72-138.28c-51.61-27.63-113.2-54.94-170.44-37.37-15.65,4.8-30.33,12.88-46.89,13.94-18.7,1.21-36.38-6.72-52.87-14.41-227-105.84-418.8-215.2-645.79-321v85.7L95.27,684.86h437l-97.67,41.67c227,105.85,322.37,148.26,549.36,254.1,16.49,7.69,34.17,15.62,52.87,14.41,16.56-1.06,31.24-9.14,46.89-13.94,57.24-17.57,118.83,9.74,170.44,37.37q120.81,64.66,234.72,138.28c29.91,19.33,59.87,39.33,94.42,51.65s75,16.18,109,2.74c18.46-7.3,34.42-19.39,54-24,30-7,61.2,5,89,17.09,121.82,53.16,238.73,82.64,349.27,151.71Z"/><path class="cls-2" d="M2156.25,1555.68c-115.83-58.66-199.24-83.44-321.06-136.6-27.75-12.11-58.92-24.1-89-17.09-19.6,4.57-35.56,16.66-54,24-34,13.44-74.41,9.58-109-2.74s-64.51-32.32-94.42-51.65q-113.76-73.53-234.72-138.28c-51.61-27.63-113.2-54.94-170.44-37.37-15.65,4.8-30.33,12.88-46.89,13.94-18.7,1.21-36.38-6.72-52.87-14.41-227-105.84-418.8-215.2-645.79-321v85.7L95.27,684.86h437l-97.67,41.67c227,105.85,322.37,148.26,549.36,254.1,16.49,7.69,34.17,15.62,52.87,14.41,16.56-1.06,31.24-9.14,46.89-13.94,57.24-17.57,118.83,9.74,170.44,37.37q120.81,64.66,234.72,138.28c29.91,19.33,59.87,39.33,94.42,51.65s75,16.18,109,2.74c18.46-7.3,34.42-19.39,54-24,30-7,61.2,5,89,17.09,121.82,53.16,238.73,82.64,349.27,151.71Z"/><path class="cls-3" d="M522.12,1525.53v-85.7c227,105.84,418.8,215.2,645.78,321,16.51,7.69,34.18,15.62,52.88,14.42,16.56-1.08,31.24-9.15,46.89-14,46.66-14.32,207.74,59.25,252.42,80.43H1920a195.1,195.1,0,0,1-41.21-9.88c-34.53-12.32-176-90.37-205.93-109.71q-113.77-73.53-234.71-138.28c-51.62-27.63-113.22-54.93-170.45-37.37-15.65,4.8-30.33,12.88-46.89,14-18.7,1.2-36.37-6.73-52.88-14.42-227-105.84-322.37-148.26-549.36-254.09l97.67-41.67h-437Z"/><path class="cls-2" d="M522.12,1525.53v-85.7c227,105.84,418.8,215.2,645.78,321,16.51,7.69,34.18,15.62,52.88,14.42,16.56-1.08,31.24-9.15,46.89-14,46.66-14.32,207.74,59.25,252.42,80.43H1920a195.1,195.1,0,0,1-41.21-9.88c-34.53-12.32-176-90.37-205.93-109.71q-113.77-73.53-234.71-138.28c-51.62-27.63-113.22-54.93-170.45-37.37-15.65,4.8-30.33,12.88-46.89,14-18.7,1.2-36.37-6.73-52.88-14.42-227-105.84-322.37-148.26-549.36-254.09l97.67-41.67h-437Z"/><path class="cls-4" d="M1659.25,1598.05c2.54,16.55-4.18,33-5.75,49.66a82.49,82.49,0,0,0,24.8,66.4c9.49,9,21.16,15.79,29.49,25.9,7.46,9,11.77,20.17,16.58,30.85a311.67,311.67,0,0,0,34.06,58c12,16.1,26.29,31.6,45.12,38.54,11.56,4.27,24.07,5,36.38,5.57a1409.26,1409.26,0,0,0,253.61-11.52c23.61-94.59,17.06-193.65,16.65-291.15C2109.62,1435.14,2121,1298.4,2094,1166c-2.34-11.45-5-23-10.92-33.13-9.16-15.7-25-26.19-41-34.82-13.34-7.19-27.86-13.64-43-12.93-21.41,1-39.72,16.16-52.4,33.45s-21.42,37.21-34.23,54.41c-5.11,6.86-11,13.36-18.39,17.66-17,9.86-38.31,6.34-57.54,2.21-38-8.16-81.5-16.45-112.64,6.82-8.85,6.62-16.1,15.5-26,20.44-21.75,10.85-47.85-.58-72,1.91-29.11,3-52.47,26.13-66.75,51.67-18.72,33.48-22.22,68.62-20.78,106.17.91,23.78-3.32,49.93,2.87,73.16,7.82,29.37,32.12,55.72,54.36,75.17C1618.24,1548.08,1654.18,1564.93,1659.25,1598.05Z"/><path class="cls-5" d="M1659.25,1598.05c2.54,16.55-4.18,33-5.75,49.66a82.49,82.49,0,0,0,24.8,66.4c9.49,9,21.16,15.79,29.49,25.9,7.46,9,11.77,20.17,16.58,30.85a311.67,311.67,0,0,0,34.06,58c12,16.1,26.29,31.6,45.12,38.54,11.56,4.27,24.07,5,36.38,5.57a1409.26,1409.26,0,0,0,253.61-11.52c23.61-94.59,17.06-193.65,16.65-291.15C2109.62,1435.14,2121,1298.4,2094,1166c-2.34-11.45-5-23-10.92-33.13-9.16-15.7-25-26.19-41-34.82-13.34-7.19-27.86-13.64-43-12.93-21.41,1-39.72,16.16-52.4,33.45s-21.42,37.21-34.23,54.41c-5.11,6.86-11,13.36-18.39,17.66-17,9.86-38.31,6.34-57.54,2.21-38-8.16-81.5-16.45-112.64,6.82-8.85,6.62-16.1,15.5-26,20.44-21.75,10.85-47.85-.58-72,1.91-29.11,3-52.47,26.13-66.75,51.67-18.72,33.48-22.22,68.62-20.78,106.17.91,23.78-3.32,49.93,2.87,73.16,7.82,29.37,32.12,55.72,54.36,75.17C1618.24,1548.08,1654.18,1564.93,1659.25,1598.05Z"/><path class="cls-6" d="M1226.21,1032.62l14.51-35.6-61.07-177.67,156.64-44.64,70.08,136L1420,948.22l8.08,28.84c3.63,27.39-.42,55.29-14.76,83.87l-3.08,5.3-66.13-12.08-.22.21-88.7-15.35-.4-1.18Z"/><path class="cls-5" d="M1179.65,819.35l156.64-44.64,70.08,136L1420,948.22l8.08,28.84c3.63,27.39-.42,55.29-14.76,83.87l-3.08,5.3-66.13-12.08-.22.21-88.7-15.35-.4-1.18"/><path class="cls-7" d="M831.51,432.47c-1-2.07-2-4.37-1.49-6.57.74-2.9,4.09-4.64,7.22-4.46s6,1.89,8.31,3.91c16.41,14.21,32.66,28.73,49.05,43,11.93,9.94,17.47,23.07,23.28,36.59,6.76,15.73,22.52,54.38,27.87,70.6l78.66,132.69,19.44-23.39,102.06-107.05a45.63,45.63,0,0,1,59.55-8.23h0a45.61,45.61,0,0,1,9.82,67.48L1072.56,794.55l-32.82,36c-14.45,15.85-40.44,15.54-55.08-.66l-104.21-221c-18.21-15.25-31.41-45.84-43.87-78.69-11.93-9.05-22.5-19.85-33.75-29.67-5.35-4.66-10.73-9.36-15.06-14.9-1.47-1.88-2.85-3.95-3.1-6.27s1-4.9,3.35-5.51c2-.54,4.17.52,6,1.6,19,11.29,34.13,27.62,53.41,38.48A267,267,0,0,1,823,487.67c-6.22-7.67-14.72-16.75-18.26-25.87-.8-2.06-1.42-4.39-.49-6.37,1.4-3,5.8-3.62,8.92-2.2,5.67,2.59,11.44,9.94,16.14,14.25L845.17,482l21.43,19.61L818,449c-3-3.52-6.14-8.63-3.25-12.15,1.76-2.14,5.14-2.5,7.86-1.59s4.93,2.83,7.06,4.69c18.27,16,35.56,33,53.2,49.64C879.87,485.42,833.83,437,831.51,432.47Z"/><path class="cls-8" d="M831.51,432.47c-1-2.07-2-4.37-1.49-6.57.74-2.9,4.09-4.64,7.22-4.46s6,1.89,8.31,3.91c16.41,14.21,32.66,28.73,49.05,43,11.93,9.94,17.47,23.07,23.28,36.59,6.76,15.73,22.52,54.38,27.87,70.6l78.66,132.69,19.44-23.39,102.06-107.05a45.63,45.63,0,0,1,59.55-8.23h0a45.61,45.61,0,0,1,9.82,67.48L1072.56,794.55l-32.82,36c-14.45,15.85-40.44,15.54-55.08-.66l-104.21-221c-18.21-15.25-31.41-45.84-43.87-78.69-11.93-9.05-22.5-19.85-33.75-29.67-5.35-4.66-10.73-9.36-15.06-14.9-1.47-1.88-2.85-3.95-3.1-6.27s1-4.9,3.35-5.51c2-.54,4.17.52,6,1.6,19,11.29,34.13,27.62,53.41,38.48A267,267,0,0,1,823,487.67c-6.22-7.67-14.72-16.75-18.26-25.87-.8-2.06-1.42-4.39-.49-6.37,1.4-3,5.8-3.62,8.92-2.2,5.67,2.59,11.44,9.94,16.14,14.25L845.17,482l21.43,19.61L818,449c-3-3.52-6.14-8.63-3.25-12.15,1.76-2.14,5.14-2.5,7.86-1.59s4.93,2.83,7.06,4.69c18.27,16,35.56,33,53.2,49.64C879.87,485.42,833.83,437,831.51,432.47Z"/><path class="cls-9" d="M804.89,578.6l72.42,17a4,4,0,0,0,4.79-3l34.59-147.31a4,4,0,0,0-3-4.79l-72.42-17a4,4,0,0,0-4.79,3l-34.6,147.31A4,4,0,0,0,804.89,578.6Z"/><path class="cls-5" d="M804.89,578.6l72.42,17a4,4,0,0,0,4.79-3l34.59-147.31a4,4,0,0,0-3-4.79l-72.42-17a4,4,0,0,0-4.79,3l-34.6,147.31A4,4,0,0,0,804.89,578.6Z"/><path class="cls-6" d="M808.65,575.32,875.41,591a4,4,0,0,0,4.79-3l32.73-139.42a4,4,0,0,0-3-4.79l-66.76-15.71a4,4,0,0,0-4.79,3L805.69,570.53A4,4,0,0,0,808.65,575.32Z"/><path class="cls-5" d="M808.65,575.32,875.41,591a4,4,0,0,0,4.79-3l32.73-139.42a4,4,0,0,0-3-4.79l-66.76-15.71a4,4,0,0,0-4.79,3L805.69,570.53A4,4,0,0,0,808.65,575.32Z"/><circle class="cls-10" cx="875.13" cy="443.72" r="2.5"/><path class="cls-7" d="M903.49,592.2c-10.86-6.47-18.06-18.24-18.59-30.39-.29-6.49,1.2-13.06-.24-19.42-3.89-17.24-12-34.08-17-51.13-1.18-4-1.72-9.35,2.15-11.16,3.56-1.67,7.56,1.35,10.17,4.26,8.74,9.71,14.7,21.13,22.25,31.49,8.94,12.27,17.38,23.88,23.15,37.91"/><path class="cls-8" d="M903.49,592.2c-10.86-6.47-18.06-18.24-18.59-30.39-.29-6.49,1.2-13.06-.24-19.42-3.89-17.24-12-34.08-17-51.13-1.18-4-1.72-9.35,2.15-11.16,3.56-1.67,7.56,1.35,10.17,4.26,8.74,9.71,14.7,21.13,22.25,31.49,8.94,12.27,17.38,23.88,23.15,37.91"/><path class="cls-1" d="M1200.71,700.23,1169.82,657,1055.41,531.64c56.46-27.58,85.13-18.48,141.1,25.16l74,66.14Z"/><path class="cls-7" d="M1517.76,1616.94l67.33-180.43c-5.89-41.36,3.74-58,22.46-60.18l22.87-61.29-27.58-8.86c-23.19-11.87-47.12-12.71-71.35-9.13h-.73l-48.91.69-35.47-11.39-36.61,98.11,38.28,19.62,21.48,22.16,5.49,5.66.82,25.39h0l1.52,47.15c-15.25,60.27-18.33,84.74,10.83,97.12l3.7,1.92Z"/><path class="cls-2" d="M1517.76,1616.94l67.33-180.43c-5.89-41.36,3.74-58,22.46-60.18l22.87-61.29-27.58-8.86c-23.19-11.87-47.12-12.71-71.35-9.13h-.73l-48.91.69-35.47-11.39-36.61,98.11,38.28,19.62,21.48,22.16,5.49,5.66.82,25.39h0l1.52,47.15c-15.25,60.27-18.33,84.74,10.83,97.12l3.7,1.92Z"/><path class="cls-4" d="M1517.76,1616.94l67.33-180.43c-5.89-41.36,3.74-58,22.46-60.18l22.87-61.29-27.58-8.86c-23.19-11.87-47.12-12.71-71.35-9.13h-.73l10.13,60.79-71.36,68.4a19,19,0,0,0-4.69,7.08,17.32,17.32,0,0,0,5.84,20.2l5.16,3.77h0l1.52,47.15c-15.25,60.27-18.33,84.74,10.83,97.12l3.7,1.92Z"/><path class="cls-2" d="M1517.76,1616.94l67.33-180.43c-5.89-41.36,3.74-58,22.46-60.18l22.87-61.29-27.58-8.86c-23.19-11.87-47.12-12.71-71.35-9.13h-.73l10.13,60.79-71.36,68.4a19,19,0,0,0-4.69,7.08,17.32,17.32,0,0,0,5.84,20.2l5.16,3.77h0l1.52,47.15c-15.25,60.27-18.33,84.74,10.83,97.12l3.7,1.92Z"/><path class="cls-2" d="M1517.76,1616.94l67.33-180.43c-5.89-41.36,3.74-58,22.46-60.18l22.87-61.29-27.58-8.86L1491.89,1603.5Z"/><path class="cls-10" d="M1517.76,1616.94l67.33-180.43c-5.89-41.36,3.74-58,22.46-60.18l22.87-61.29-27.58-8.86L1491.89,1603.5Z"/><polygon class="cls-6" points="1197.16 1070.44 1525.97 1297.09 1428.13 1420.49 1127.01 1230.25 1197.16 1070.44"/><polygon class="cls-5" points="1197.16 1070.44 1525.97 1297.09 1428.13 1420.49 1127.01 1230.25 1197.16 1070.44"/><path class="cls-3" d="M264.88,737.62l27.8,38.08,65,89.07,8.78,4.45c23.4-74.8,69.43-162.68,111.12-219.42l-10.88-5L338,657.39l-30.88,3C270.67,663.62,248.7,703.76,264.88,737.62Z"/><path class="cls-4" d="M366.49,869.22l1021.43,510.85,274,139,121-260.64-275.16-127.71L477.61,649.8C435.92,706.54,389.89,794.42,366.49,869.22Z"/><path class="cls-5" d="M264.88,737.62l27.8,38.08,65,89.07,8.78,4.45c23.4-74.8,69.43-162.68,111.12-219.42l-10.88-5L338,657.39l-30.88,3C270.67,663.62,248.7,703.76,264.88,737.62Z"/><polygon class="cls-3" points="1387.92 1380.07 1661.97 1519.02 1782.99 1258.38 1507.83 1130.67 1387.92 1380.07"/><polygon class="cls-5" points="1387.92 1380.07 1661.97 1519.02 1782.99 1258.38 1507.83 1130.67 1387.92 1380.07"/><polygon class="cls-4" points="1305.32 1037.03 1837.36 1167.67 1926.72 1293.98 1804.73 1268.82 1305.32 1037.03"/><polygon class="cls-11" points="1926.73 1293.98 1804.73 1268.82 1782.86 1258.67 1782.99 1258.39 1507.83 1130.67 1323.51 1041.49 1837.37 1167.67 1926.73 1293.98"/><polygon class="cls-4" points="1661.97 1519.01 1766.73 1578.81 1619.67 1618.59 1254.07 1312.19 1661.97 1519.01"/><polygon class="cls-11" points="1661.97 1519.01 1766.73 1578.81 1619.67 1618.59 1254.07 1312.19 1661.97 1519.01"/><circle class="cls-1" cx="1008.08" cy="1049.3" r="62.89" transform="translate(-255.1 327.06) rotate(-16.39)"/><circle class="cls-5" cx="1008.08" cy="1049.3" r="62.89" transform="translate(-255.1 327.06) rotate(-16.39)"/><circle class="cls-1" cx="588.06" cy="835.5" r="62.89" transform="translate(-418.55 660.54) rotate(-45)"/><circle class="cls-5" cx="588.06" cy="835.5" r="62.89" transform="translate(-418.55 660.54) rotate(-45)"/><circle class="cls-1" cx="803.47" cy="948.57" r="62.89" transform="translate(-435.41 845.97) rotate(-45)"/><circle class="cls-5" cx="803.47" cy="948.57" r="62.89" transform="translate(-435.41 845.97) rotate(-45)"/><path class="cls-5" d="M1783,1258.39l-.13.28L1662,1519l-274-139L366.49,869.22c23.4-74.8,69.44-162.68,111.12-219.41l845.9,391.68,184.32,89.18Z"/><polygon class="cls-4" points="1244.54 1159.4 1749.2 1331.15 1851.97 1442.1 1696.37 1441.67 1244.54 1159.4"/><polygon class="cls-11" points="1244.54 1159.4 1749.2 1331.15 1851.97 1442.1 1696.37 1441.67 1244.54 1159.4"/><path class="cls-6" d="M1290,1015.28,1028,1340.53c-64.64,15.3-145.78-26.61-125.46-91.75L1121.3,886.72l40.44-90.25L1310,833.35Z"/><path class="cls-5" d="M1290,1015.28,1028,1340.53c-64.64,15.3-145.78-26.61-125.46-91.75L1121.3,886.72l40.44-90.25L1310,833.35"/><path class="cls-7" d="M877.65,515.93c8.55,12.25,16.79,31.66,33.27,31,11.71-.46,16.82-1.39,23.81-11.36l24.65,36.22c45.22,17,76.77-3.41,90.78-35-21.86-12.71-39.75-33.13-54.91-58.84,2-15.38-.1-29-4.83-44.55C987,422.08,977.71,410,969.71,402A74.34,74.34,0,0,0,925,381.29c-16.38-1.48-35,8.7-48.08,19a67.77,67.77,0,0,0-26,54.91,63.27,63.27,0,0,0,5,22.93c.71,1.67,1.61,3.51,2.61,5.43,3.71,7.07,6.4,11.28,10,16.86C868.83,508.6,866.8,519.47,877.65,515.93Z"/><path class="cls-2" d="M877.65,515.93c8.55,12.25,16.79,31.66,33.27,31,11.71-.46,16.82-1.39,23.81-11.36l24.65,36.22c45.22,17,76.77-3.41,90.78-35-21.86-12.71-39.75-33.13-54.91-58.84,2-15.38-.1-29-4.83-44.55C987,422.08,977.71,410,969.71,402A74.34,74.34,0,0,0,925,381.29c-16.38-1.48-35,8.7-48.08,19a67.77,67.77,0,0,0-26,54.91,63.27,63.27,0,0,0,5,22.93c.71,1.67,1.61,3.51,2.61,5.43,3.71,7.07,6.4,11.28,10,16.86C868.83,508.6,866.8,519.47,877.65,515.93Z"/><path class="cls-10" d="M876.46,493.19c1.81.9,4.3-.5,5.57-3.11s.83-5.45-1-6.35-4.31.5-5.58,3.12S874.65,492.3,876.46,493.19Z"/><path class="cls-10" d="M836.13,465.6a15.12,15.12,0,0,0,2.75.5c4.74.44,9.53-1,14-2.84,1.51-.62,24.93-12.06,23-14.23,4.21,4.74,7.19,10.56,11.57,15.12,7.22,7.52,13.73,6.59,22.57,2.89,2.88-1.21,5.25-.61,8.09,0,10.29,2.39,20.53,5,30.79,7.44,5.08,6.82,10.61,13,18.2,16.84a30.24,30.24,0,0,0,15.07,3.25,24.92,24.92,0,0,0,10.21-2.71c4.38-2.25,9.82-5.46,8.28-11.06-.63-2.29-2.52-4.07-3.15-6.26-1.66-5.91-.12-13.55-.06-19.68a124.12,124.12,0,0,0-1.64-23.06c-2.17-12.15-7-24-15.47-32.51-3.5-3.54-7.79-6.56-12.72-7.1-.42-4.95-4-8.82-7.81-11.8a60,60,0,0,0-25.31-11.7,73.4,73.4,0,0,0-29.76.82c-10.09,2.46-18.93,8.8-28.35,13.41-14.52,7.12-30.77,10.3-44.22,19.48-4.81,3.28-9.55,8.07-9.6,13.94,0,5.06,3.41,9.22,6.67,12.89a12.49,12.49,0,0,0-7.83,10,19.17,19.17,0,0,0,1,8c.24.61,4.41,6.08,4.8,5.21a7.6,7.6,0,0,0,.23,6.14A12.9,12.9,0,0,0,836.13,465.6Z"/><path class="cls-2" d="M836.13,465.6a15.12,15.12,0,0,0,2.75.5c4.74.44,9.53-1,14-2.84,1.51-.62,24.93-12.06,23-14.23,4.21,4.74,7.19,10.56,11.57,15.12,7.22,7.52,13.73,6.59,22.57,2.89,2.88-1.21,5.25-.61,8.09,0,10.29,2.39,20.53,5,30.79,7.44,5.08,6.82,10.61,13,18.2,16.84a30.24,30.24,0,0,0,15.07,3.25,24.92,24.92,0,0,0,10.21-2.71c4.38-2.25,9.82-5.46,8.28-11.06-.63-2.29-2.52-4.07-3.15-6.26-1.66-5.91-.12-13.55-.06-19.68a124.12,124.12,0,0,0-1.64-23.06c-2.17-12.15-7-24-15.47-32.51-3.5-3.54-7.79-6.56-12.72-7.1-.42-4.95-4-8.82-7.81-11.8a60,60,0,0,0-25.31-11.7,73.4,73.4,0,0,0-29.76.82c-10.09,2.46-18.93,8.8-28.35,13.41-14.52,7.12-30.77,10.3-44.22,19.48-4.81,3.28-9.55,8.07-9.6,13.94,0,5.06,3.41,9.22,6.67,12.89a12.49,12.49,0,0,0-7.83,10,19.17,19.17,0,0,0,1,8c.24.61,4.41,6.08,4.8,5.21a7.6,7.6,0,0,0,.23,6.14A12.9,12.9,0,0,0,836.13,465.6Z"/><path class="cls-2" d="M1200.71,700.23,1169.82,657,1055.41,531.64c56.46-27.58,85.13-18.48,141.1,25.16l74,66.14Z"/><path class="cls-1" d="M1016,805.86l69.4,112.43,293.27-107.95c-39.37-77.82-112.81-155.79-194.3-233.81l-129-44.89-82.25,27.81L945.36,556l1.37,70.57-20.52,70.13C946,756.82,978,761.86,1016,805.86Z"/><path class="cls-2" d="M1184.41,576.53c78.62,72.65,146.45,149.41,194.3,233.81L1085.44,918.29,1016,805.86c-38.09-44-70.07-49-89.83-109.18l20.52-70.13L945.36,556l27.8,3.47,82.25-27.81"/><rect class="cls-10" x="775.05" y="481.99" width="44.95" height="33.92" transform="translate(1583.5 1015.88) rotate(-178.7)"/><rect class="cls-8" x="775.05" y="481.99" width="44.95" height="33.92" transform="translate(1583.5 1015.88) rotate(-178.7)"/><rect class="cls-3" x="658.02" y="468.08" width="119.48" height="58.11" transform="translate(1424.05 1010.44) rotate(-178.7)"/><rect class="cls-8" x="658.02" y="468.08" width="119.48" height="58.11" transform="translate(1424.05 1010.44) rotate(-178.7)"/><rect class="cls-10" x="589.71" y="452.11" width="74.41" height="85.92" transform="translate(1242.43 1004.25) rotate(-178.7)"/><rect class="cls-8" x="589.71" y="452.11" width="74.41" height="85.92" transform="translate(1242.43 1004.25) rotate(-178.7)"/><path class="cls-7" d="M665.23,839.18c-31.82,18.64-64.69-30.63-58-60.19l8.87-39.26,42.35-179.24c.89-19.61,4.71-42,14.46-58.73,5.14-8.79,13.72-18.1,16.9-27.66s2.88-17.5,11.29-25a5.44,5.44,0,0,1,3-1.62c1.69-.16,3.17,1.06,4.23,2.32a17.74,17.74,0,0,1,3.79,15c1.79-3.19,2.74-6.79,4.63-9.93s5.17-5.93,9-5.8,6.94,3.14,8.29,6.52,1.24,7.1,1.12,10.7a53.65,53.65,0,0,1,5.6-10.28c2.07-3,5.83-6.07,9.15-4.32a7.36,7.36,0,0,1,2.51,2.57,36.69,36.69,0,0,1,4.52,9.4c4.83-15.86,1.45-35.36,9.22-50.64,1-2,2.3-4.19,4.47-5.11,2.84-1.21,6.4.24,8.23,2.68s2.23,5.62,2,8.6c-1.31,20.9-3,41.88-4.36,62.82-.64,15-7.93,27.09-15.39,39.66-8.67,14.61-29.34,45.23-39.3,59.09L701.2,764.61Z"/><path class="cls-5" d="M665.23,839.18c-31.82,18.64-64.69-30.63-58-60.19l8.87-39.26,42.35-179.24c.89-19.61,4.71-42,14.46-58.73,5.14-8.79,13.72-18.1,16.9-27.66s2.88-17.5,11.29-25a5.44,5.44,0,0,1,3-1.62c1.69-.16,3.17,1.06,4.23,2.32a17.74,17.74,0,0,1,3.79,15c1.79-3.19,2.74-6.79,4.63-9.93s5.17-5.93,9-5.8,6.94,3.14,8.29,6.52,1.24,7.1,1.12,10.7a53.65,53.65,0,0,1,5.6-10.28c2.07-3,5.83-6.07,9.15-4.32a7.36,7.36,0,0,1,2.51,2.57,36.69,36.69,0,0,1,4.52,9.4c4.83-15.86,1.45-35.36,9.22-50.64,1-2,2.3-4.19,4.47-5.11,2.84-1.21,6.4.24,8.23,2.68s2.23,5.62,2,8.6c-1.31,20.9-3,41.88-4.36,62.82-.64,15-7.93,27.09-15.39,39.66-8.67,14.61-29.34,45.23-39.3,59.09L701.2,764.61Z"/><line class="cls-8" x1="756.89" y1="463.63" x2="755.81" y2="480.57"/><line class="cls-8" x1="735.11" y1="466.26" x2="734.5" y2="478.76"/><line class="cls-8" x1="712.08" y1="464.77" x2="711.15" y2="476.54"/><polygon class="cls-7" points="875.38 607.4 620.14 743.25 665.23 839.18 937.26 694.77 875.38 607.4"/><line class="cls-5" x1="665.23" y1="839.18" x2="833.42" y2="749.89"/><polyline class="cls-5" points="769.43 663.79 708.88 696.02 701.2 764.61"/><ellipse class="cls-7" cx="925.84" cy="465.81" rx="26.26" ry="25.03" transform="translate(144.23 1146.42) rotate(-67.76)"/><path class="cls-2" d="M939.56,487.21c11.68-8.24,15-24.5,7.44-36.32s-23.19-14.72-34.87-6.48-15,24.5-7.44,36.32"/><path class="cls-2" d="M939.92,455.88a16.19,16.19,0,0,0-23.2-4.31,18,18,0,0,0-5,24.16"/><line class="cls-2" x1="916.72" y1="451.57" x2="921.75" y2="480.8"/><path class="cls-7" d="M1427.4,1640.09l-8.33-189.47c-21.85-35.22-19.42-54-2.77-63.19l-2.83-64.37-29.3,2.59c-26.38-1.83-49.1,6.62-70.35,19.19l-.67.29-44.05.32-45.48-7.32-78.91,77.74L1278.07,1474l28.85,11.82,7.38,3,10.8,22.7h0l20.06,42.15c9.56,60.51,16.34,83.88,48.51,83.87l4.21.32Z"/><path class="cls-2" d="M1427.4,1640.09l-8.33-189.47c-21.85-35.22-19.42-54-2.77-63.19l-2.83-64.37-29.3,2.59c-26.38-1.83-49.1,6.62-70.35,19.19l-.67.29-44.05.32-45.48-7.32-78.91,77.74L1278.07,1474l28.85,11.82,7.38,3,10.8,22.7h0l20.06,42.15c9.56,60.51,16.34,83.88,48.51,83.87l4.21.32Z"/><path class="cls-4" d="M1427.4,1640.09l-8.33-189.47c-21.85-35.22-19.42-54-2.77-63.19l-2.83-64.37-29.3,2.59c-26.38-1.83-49.1,6.62-70.35,19.19l-.67.29,33.5,51.21-39.73,89.47a18.3,18.3,0,0,0-1.58,8.22,17.13,17.13,0,0,0,13.44,16.06l6.32,1.44h0l20.06,42.15c9.56,60.51,16.34,83.88,48.51,83.87l4.21.32Z"/><path class="cls-2" d="M1427.4,1640.09l-8.33-189.47c-21.85-35.22-19.42-54-2.77-63.19l-2.83-64.37-29.3,2.59c-26.38-1.83-49.1,6.62-70.35,19.19l-.67.29,33.5,51.21-39.73,89.47a18.3,18.3,0,0,0-1.58,8.22,17.13,17.13,0,0,0,13.44,16.06l6.32,1.44h0l20.06,42.15c9.56,60.51,16.34,83.88,48.51,83.87l4.21.32Z"/><path class="cls-10" d="M1427.4,1640.09l-8.33-189.47c-21.85-35.22-19.42-54-2.77-63.19l-2.83-64.37-29.3,2.59,13.71,312.22Z"/><polygon class="cls-6" points="1231.87 1481.74 942.1 1329.83 1032.74 1196.92 1313.74 1336.95 1231.87 1481.74"/><polyline class="cls-5" points="1067.62 1214.3 1313.74 1336.95 1303.52 1356.06 1231.87 1481.74 942.1 1329.83"/><path class="cls-1" d="M1005.32,610c-16.59-65.29-88.25-80.25-143-18l-95.91,64.12,72.69,106.65L926.29,710l76.4-78.46Z"/><path class="cls-2" d="M1005.32,610c-16.59-65.29-88.25-80.25-143-18l-95.91,64.12,72.69,106.65L926.29,710l47.13-23.33"/><path class="cls-10" d="M865,485.33c-4.26,1.08-6.48-3.64-5.37-7.22,1.72-5.58,8.24-12,13.55-14.38,2-.87,4.49-.82,6,.67s1.66,4.32.68,6.39a17.58,17.58,0,0,1-4.46,5.16c-2.73,2.47-6.7,8.32-10.29,9.34Z"/><line class="cls-2" x1="934.73" y1="535.57" x2="952.77" y2="509.59"/><path class="cls-4" d="M888.33,511.53a10.37,10.37,0,0,1,3.15-2.37c1.51-.65,4-.66,4.45,1.31a12.86,12.86,0,0,1-2.61,10,7.6,7.6,0,0,1-1.38,1.51,4.68,4.68,0,0,1-5,.57C882,520,885.71,514.21,888.33,511.53Z"/><path class="cls-2" d="M888.33,511.53a10.37,10.37,0,0,1,3.15-2.37c1.51-.65,4-.66,4.45,1.31a12.86,12.86,0,0,1-2.61,10,7.6,7.6,0,0,1-1.38,1.51,4.68,4.68,0,0,1-5,.57C882,520,885.71,514.21,888.33,511.53Z"/><path class="cls-6" d="M1563.92,849.87V786.44c168,78.34,310,159.27,477.95,237.61,12.21,5.69,25.29,11.56,39.14,10.66,12.25-.79,23.12-6.76,34.69-10.32,42.37-13,88,7.21,126.15,27.66q37.79,20.22,74.68,41.65l21.62-146.28q-47.39-28.17-96.3-54.35c-38.19-20.45-83.78-40.66-126.15-27.66-11.57,3.55-22.44,9.53-34.69,10.32-13.85.89-26.93-5-39.14-10.66-168-78.34-238.59-109.73-406.58-188.07l72.28-30.83h-323.4Z"/><path class="cls-2" d="M1563.92,849.87V786.44c168,78.34,310,159.27,477.95,237.61,12.21,5.69,25.29,11.56,39.14,10.66,12.25-.79,23.12-6.76,34.69-10.32,42.37-13,88,7.21,126.15,27.66q37.79,20.22,74.68,41.65l21.62-146.28q-47.39-28.17-96.3-54.35c-38.19-20.45-83.78-40.66-126.15-27.66-11.57,3.55-22.44,9.53-34.69,10.32-13.85.89-26.93-5-39.14-10.66-168-78.34-238.59-109.73-406.58-188.07l72.28-30.83h-323.4Z"/></svg>