<svg id="Layer_3" data-name="Layer 3" xmlns="http://www.w3.org/2000/svg" viewBox="0 0 2414.56 2100"><defs><style>.cls-1{fill:#3856dd;}.cls-2{fill:#e8d2ca;}.cls-3,.cls-5{fill:none;stroke:#231f20;stroke-linecap:round;stroke-linejoin:round;}.cls-3{stroke-width:3.29px;}.cls-4{fill:#ff71af;}.cls-5{stroke-width:3.61px;}.cls-6{fill:#fff;}.cls-7{fill:#91b6ed;}.cls-8{fill:#231f20;}.cls-9{fill:#f7f7f7;}.cls-10{fill:#191919;}.cls-11{fill:#c3996c;}.cls-12{fill:#ed5448;}</style></defs><polygon class="cls-1" points="2066.19 1717.77 1886.81 1622.49 1939.45 1818.66 1840.06 1641.53 1778.29 1835.02 1790.44 1632.27 1633.87 1761.65 1753.7 1597.66 1552.04 1621.85 1741.51 1548.68 1558.78 1460 1757.73 1500.88 1651.95 1327.49 1797.22 1469.44 1801.98 1266.39 1847.44 1464.35 1961.22 1296.1 1892.44 1487.21 2079.13 1407.18 1917.94 1530.77 2118.25 1564.37 1915.84 1581.2 2066.19 1717.77"/><polygon class="cls-2" points="2095.96 741.43 2008.08 668.7 1959.21 771.77 1938.64 659.58 1834.95 707.12 1891.32 607.95 1781.32 577.72 1888.25 537.98 1823.42 444.12 1930.87 482.41 1941.54 368.84 1999.24 467.23 2080.42 387.09 2061.37 499.56 2175.07 490.35 2088.19 564.26 2181.21 630.29 2067.14 631.06 2095.96 741.43"/><polygon class="cls-3" points="2095.96 741.43 2008.08 668.7 1959.21 771.77 1938.64 659.58 1834.95 707.12 1891.32 607.95 1781.32 577.72 1888.25 537.98 1823.42 444.12 1930.87 482.41 1941.54 368.84 1999.24 467.23 2080.42 387.09 2061.37 499.56 2175.07 490.35 2088.19 564.26 2181.21 630.29 2067.14 631.06 2095.96 741.43"/><circle class="cls-4" cx="306.06" cy="1202.76" r="230.33"/><circle class="cls-5" cx="306.06" cy="1202.76" r="230.33"/><path class="cls-6" d="M290.46,1550.7a79.06,79.06,0,0,0-39.8,10.9c-43,24.88-60,84.45-38,133,10.54,23.25,22.56,49.71,35.75,78.67,18.77,41.23,47.06,75.23,81.79,98.34a197.6,197.6,0,0,0,107.86,33.51h1.62a197.06,197.06,0,0,0,106.66-31.7c35-22.52,63.76-56,83.08-97,9.41-19.93,25.2-23.59,33.77-24s24.58,1.76,35.42,20.74l26.85,47c21.08,36.92,50.36,66.63,84.66,85.9A195.5,195.5,0,0,0,915,1931.33a198.57,198.57,0,0,0,102.64-34.7c32.8-22.37,59.84-54.67,78.2-93.4l13.13-27.7c9.42-19.88,25.18-23.53,33.74-23.93s24.53,1.74,35.38,20.66l65.32,113.83c26.29,45.8,80.44,58.84,121,29.14s52.06-90.92,25.78-136.72l-65.32-113.82c-21.13-36.83-50.43-66.44-84.72-85.63a195.6,195.6,0,0,0-104.72-25,198.55,198.55,0,0,0-102.51,34.77c-32.76,22.36-59.76,54.63-78.1,93.32l-13.13,27.7c-9.43,19.9-25.21,23.54-33.78,23.93s-24.55-1.78-35.39-20.74l-26.84-47c-21.1-37-50.41-66.68-84.75-86A195.3,195.3,0,0,0,656,1555a198.52,198.52,0,0,0-102.68,34.84c-32.81,22.43-59.84,54.79-78.16,93.6-9.95,21.08-26.62,24.09-35.74,24s-25.75-3.38-35.43-24.63c-13.13-28.85-25.11-55.2-35.59-78.34C352.88,1570.35,322.23,1550.7,290.46,1550.7Z"/><path class="cls-3" d="M290.46,1550.7a79.06,79.06,0,0,0-39.8,10.9c-43,24.88-60,84.45-38,133,10.54,23.25,22.56,49.71,35.75,78.67,18.77,41.23,47.06,75.23,81.79,98.34a197.6,197.6,0,0,0,107.86,33.51h1.62a197.06,197.06,0,0,0,106.66-31.7c35-22.52,63.76-56,83.08-97,9.41-19.93,25.2-23.59,33.77-24s24.58,1.76,35.42,20.74l26.85,47c21.08,36.92,50.36,66.63,84.66,85.9A195.5,195.5,0,0,0,915,1931.33a198.57,198.57,0,0,0,102.64-34.7c32.8-22.37,59.84-54.67,78.2-93.4l13.13-27.7c9.42-19.88,25.18-23.53,33.74-23.93s24.53,1.74,35.38,20.66l65.32,113.83c26.29,45.8,80.44,58.84,121,29.14s52.06-90.92,25.78-136.72l-65.32-113.82c-21.13-36.83-50.43-66.44-84.72-85.63a195.6,195.6,0,0,0-104.72-25,198.55,198.55,0,0,0-102.51,34.77c-32.76,22.36-59.76,54.63-78.1,93.32l-13.13,27.7c-9.43,19.9-25.21,23.54-33.78,23.93s-24.55-1.78-35.39-20.74l-26.84-47c-21.1-37-50.41-66.68-84.75-86A195.3,195.3,0,0,0,656,1555a198.52,198.52,0,0,0-102.68,34.84c-32.81,22.43-59.84,54.79-78.16,93.6-9.95,21.08-26.62,24.09-35.74,24s-25.75-3.38-35.43-24.63c-13.13-28.85-25.11-55.2-35.59-78.34C352.88,1570.35,322.23,1550.7,290.46,1550.7Z"/><path class="cls-3" d="M676.52,1883.11c47.88-157.4,151.62-307.88,306-364.69,106.67-39.24,224.86-30,336.76-10.05s223,50,336.63,50.91S1890,1527,1964.39,1441.07c70.2-81.12,88-193.49,108.33-298.82S2124,924.21,2209,858.78"/><path class="cls-2" d="M1945.74,299.14v905.35a26.37,26.37,0,0,1-26.36,26.36h-1554A26.36,26.36,0,0,1,339,1204.49V299.14a26.36,26.36,0,0,1,26.36-26.35h1554A26.36,26.36,0,0,1,1945.74,299.14Z"/><path class="cls-3" d="M1945.74,299.14v905.35a26.37,26.37,0,0,1-26.36,26.36h-1554A26.36,26.36,0,0,1,339,1204.49V299.14a26.36,26.36,0,0,1,26.36-26.35h1554A26.36,26.36,0,0,1,1945.74,299.14Z"/><path class="cls-3" d="M1945.73,299.14v61.18H339V299.14a26.36,26.36,0,0,1,26.36-26.35h1554A26.35,26.35,0,0,1,1945.73,299.14Z"/><circle class="cls-4" cx="1888.32" cy="312.58" r="11.57"/><circle class="cls-4" cx="1781.97" cy="312.58" r="11.57"/><circle class="cls-4" cx="1835.15" cy="312.58" r="11.57"/><path class="cls-1" d="M1452.43,895.23v275.59L1257.54,976A274.79,274.79,0,0,1,1452.43,895.23Z"/><path class="cls-4" d="M1647.3,976l-194.87,194.87V895.23A274.73,274.73,0,0,1,1647.3,976Z"/><path class="cls-7" d="M1728,1170.82H1452.43L1647.3,976A274.75,274.75,0,0,1,1728,1170.82Z"/><path class="cls-8" d="M1728,1170.82a276.76,276.76,0,0,1-6.56,60h-209l-60-60H1728Z"/><polygon class="cls-9" points="1512.45 1230.85 1452.43 1230.85 1452.43 1170.83 1512.45 1230.85"/><polygon class="cls-1" points="1452.43 1170.83 1452.43 1230.85 1392.42 1230.85 1452.43 1170.83"/><path class="cls-2" d="M1452.43,1170.82h0l-60,60H1183.37a276.76,276.76,0,0,1-6.56-60Z"/><path class="cls-4" d="M1452.43,1170.82H1176.82A274.71,274.71,0,0,1,1257.54,976Z"/><circle class="cls-3" cx="771.34" cy="792.27" r="269.23" transform="translate(-334.3 777.47) rotate(-45)"/><rect class="cls-9" x="755.94" y="507.64" width="31.28" height="31.28"/><rect class="cls-8" x="755.94" y="1045.86" width="31.28" height="31.28"/><rect class="cls-8" x="1025.05" y="776.75" width="31.28" height="31.28" transform="translate(1833.07 -248.3) rotate(90)"/><rect class="cls-8" x="486.83" y="776.75" width="31.28" height="31.28" transform="translate(1294.86 289.91) rotate(90)"/><polygon class="cls-3" points="492.13 525.69 1044.66 520.39 1036.47 1063.53 509.09 1068.83 492.13 525.69"/><rect class="cls-8" x="755.94" y="507.64" width="31.28" height="31.28"/><rect class="cls-8" x="479.73" y="507.64" width="31.28" height="31.28"/><rect class="cls-8" x="1029.03" y="507.64" width="31.28" height="31.28"/><rect class="cls-8" x="1013.39" y="1045.86" width="31.28" height="31.28"/><rect class="cls-8" x="495.36" y="1045.86" width="31.28" height="31.28"/><rect class="cls-4" x="1665.71" y="412.66" width="103.43" height="102.54"/><rect class="cls-7" x="1769.14" y="412.66" width="104.33" height="102.54"/><rect class="cls-9" x="1665.71" y="515.21" width="103.43" height="102.54"/><rect class="cls-8" x="1769.14" y="515.21" width="104.33" height="102.54"/><rect class="cls-1" x="1665.71" y="617.75" width="103.43" height="102.54"/><rect class="cls-1" x="1769.14" y="617.75" width="104.33" height="102.54"/><rect class="cls-7" x="1665.71" y="720.29" width="103.43" height="102.54"/><rect class="cls-4" x="1769.14" y="720.29" width="104.33" height="102.54"/><rect class="cls-3" x="1665.71" y="412.66" width="103.43" height="102.54"/><rect class="cls-3" x="1769.14" y="412.66" width="104.33" height="102.54"/><rect class="cls-3" x="1665.71" y="515.21" width="103.43" height="102.54"/><rect class="cls-3" x="1769.14" y="515.21" width="104.33" height="102.54"/><rect class="cls-3" x="1665.71" y="617.75" width="103.43" height="102.54"/><rect class="cls-3" x="1769.14" y="617.75" width="104.33" height="102.54"/><rect class="cls-3" x="1665.71" y="720.29" width="103.43" height="102.54"/><rect class="cls-3" x="1769.14" y="720.29" width="104.33" height="102.54"/><path class="cls-8" d="M1421.43,681.78l-24.63-59.45L1387,620l.92,100.43-10,.1L1377,620.1l-8.44,2.49L1345,682.48a72.52,72.52,0,0,0,1.25,66.69l7.74,14.29,29.75-.28h.44l29.75-.28,7.48-14.42A72.56,72.56,0,0,0,1421.43,681.78Z"/><rect class="cls-8" x="1354.16" y="769.93" width="59.94" height="23.59" transform="translate(-7.16 12.81) rotate(-0.53)"/><rect class="cls-8" x="1369.66" y="587.87" width="23.85" height="23.85" transform="matrix(1, -0.01, 0.01, 1, -5.48, 12.78)"/><rect class="cls-8" x="1476.57" y="478.75" width="23.85" height="23.85" transform="translate(-4.46 13.76) rotate(-0.53)"/><rect class="cls-8" x="1262.48" y="480.73" width="23.85" height="23.85" transform="translate(-4.5 11.79) rotate(-0.53)"/><path class="cls-3" d="M1488.51,491.88a107,107,0,0,1-214.09,2"/><path class="cls-3" d="M1518.15,827.78l-35.7,91.94c-2.17,5.6,1,12.07,7.18,14.45h0c6.14,2.38,12.88-.22,15-5.82l35.69-91.94Z"/><path class="cls-10" d="M1559.49,787.21l-14.17,36.49-22.24-8.63,14.17-36.5c1.88-4.83,8.38-6.81,14.51-4.43a13.7,13.7,0,0,1,6.87,5.61A8.5,8.5,0,0,1,1559.49,787.21Z"/><rect class="cls-10" x="1524.92" y="805.48" width="13.63" height="40.51" transform="translate(207.59 1954.76) rotate(-68.78)"/><path class="cls-8" d="M788.31,472.32c3.1,17.25,6,35.53-8.12,45.68a35.07,35.07,0,0,1-9.48,4.67c-12.76,4.2-26.64,2-39.83-.55-5.53,29.31-11.58,59.33-27.51,84.54a121.57,121.57,0,0,1-41.89,40.2,82.3,82.3,0,0,1-12.54,5.91l-40.18-92.9,35.08-36.41-45.54,12.2-39.79-92c6,2.54,11.94,5.23,17.83,8,11.41,5.32,24.24,11,36.12,6.86,12.57-4.37,19-17.86,25.16-29.64a40.87,40.87,0,0,1,6.15-9.33A29.74,29.74,0,0,1,656.94,412c19.51-5.86,40.2,2.16,59,10,13.11,4.85,25.9,10.88,38.8,16.28C773.8,446.27,784.48,451,788.31,472.32Z"/><path class="cls-9" d="M1617,1166.16c-1.42,3.54-9.93,1.38-14.76-2.39l-57-44.49a230.31,230.31,0,0,1,53.22,48.91c1.59,2,3.22,4.26,3.2,6.83,0,4.19-4.69,7.11-8.88,6.88s-7.87-2.66-11.34-5l-58.9-39.87,45.68,39.44c6.54,5.65,13.76,13.84,10.4,21.8-10.48-1.74-19.57-8-28.28-14.09L1500.07,1149l42.9,37.06c3.58,3.1,7.33,6.44,8.69,11s-.9,10.47-5.57,11.23c-3.53.57-6.77-1.87-9.51-4.17L1476.63,1154c-20.39-17-49-40.9-49.13-70.27-.13-26.89,24.16-43.1,48.88-37,53.24,13.17,108.2,68.13,138.25,112.23C1617,1162.43,1617.57,1164.75,1617,1166.16Z"/><path class="cls-11" d="M1284.12,1454.46l63,93.66a945.2,945.2,0,0,0,148.1,171.61l185.38,168.78,63.78-92.8-230.11-313.84c-9.16-39.43-35.28-70.19-70.58-96.26Z"/><path class="cls-11" d="M1493.52,1348.34l59.56,47.75a620.33,620.33,0,0,0,159.59,92.73l289.85,106.33c27.09-25.1,62.35-42.33,60-95.79L1704.87,1285c-30.88-37.17-65.41-49.26-100.52-57.44Z"/><path class="cls-1" d="M741.93,1002.92c46.89,63.14,137.31,31.38,234.34,41.47V962L786.51,913.27Z"/><path class="cls-11" d="M1606.23,1091.28c8.15,3.58,17.09,8.31,19.55,16.87.5,1.75.64,3.79-.47,5.23a6.74,6.74,0,0,1-4.09,2.06c-14,3.08-28.48-.18-42.41-3.43-40.36-9.42-78.72-18.74-106.26-52.16-1.87-2.27-3.78-5-3.23-7.92,1-5.33,8.45-5.73,13.78-4.72C1527.07,1055.56,1565.51,1073.44,1606.23,1091.28Z"/><path class="cls-11" d="M983.35,485.21c-1.61-17.29-8.65-31.27-17-45.14l7.46-4.94a5,5,0,0,0,2.27-4.3,5.07,5.07,0,0,0-4.47-4.81c-4.42-.58-10.33-2.49-17-5.07-8.22-14.18-12.77-29.9-22.95-43.32-25.12-33.12-69.36-37.71-106.07-22.42-40.1,16.7-61.38,62.09-43.17,103.17,6.72,15.15,17.73,28.11,30.38,38.82,9.49,8,20.08,15,31.83,19.1,13.21,4.62,27.4,5.51,41.37,6.35,24.28,1.47,90.82,10.43,96.73-23.34A53.29,53.29,0,0,0,983.35,485.21Z"/><path class="cls-8" d="M937.35,419.24c1.13,2.88.46,5.83-1.48,6.6s-4.45-.95-5.57-3.83-.47-5.84,1.48-6.6S936.22,416.36,937.35,419.24Z"/><path class="cls-8" d="M930.9,399.44a12.67,12.67,0,0,0,3.49-4.52,4.66,4.66,0,0,0-1.09-5.26,5.64,5.64,0,0,0-2.39-1,19.59,19.59,0,0,0-12,1.86,51.48,51.48,0,0,0-10.24,6.86c-3.12,2.51-18,13.23-11.39,17.68,5.93,4,15.09-1.56,19.85-4.74A109.06,109.06,0,0,0,930.9,399.44Z"/><path class="cls-11" d="M830.57,501.3,879.9,605.08l119-3.36C977.7,573.8,958.15,546.47,950,523.11q-.86-2.48-1.55-4.89Z"/><path class="cls-11" d="M1284.13,830.24l-64,58-49.18-54.06L1143.45,804,1111,768.32l-69.8-183.41c36-7.93,74.46,28.69,114.68,97.19Z"/><polygon class="cls-8" points="1236.29 793.36 1170.91 834.18 1143.45 803.99 1236.29 793.36"/><path class="cls-1" d="M1041.2,584.91c36-7.94,74.46,28.7,114.68,97.19l105.36,110.67-147.66,37.47L1111,768.32Z"/><path class="cls-11" d="M1220.09,888.24l51.85,63.16a632.3,632.3,0,0,0,69.54,72.18l120.69,106.86,78.38-19.16-113.06-132.5a632.06,632.06,0,0,0-78.19-82.32l-65.18-66.22Z"/><path class="cls-4" d="M2250.26,1393.27l-77,155.06c-19.24,17.8-45.16,32-30.22,55.31l-36.39,66.66a14.11,14.11,0,0,1-19.81,5.25l-26.46-16.33c-1.09-.46-2.18-1-3.26-1.44q-5.33-2.4-10.5-5.2c-24.29-13.17-45.93-32.65-65.36-57.38l3-5.47,2.58-1.7,41.83-27.37a18.84,18.84,0,0,0,4.37-3.55,16.85,16.85,0,0,0,2.8-6c5.6-18.79,3-35.43-1.87-52.55-1.66-5.88-3.61-11.82-5.57-17.92-1.14-3.55-2.27-7.47-.82-10.89,1.25-3,4.26-4.9,7.38-5.7a32.21,32.21,0,0,1,9.61-.41l31.6,1.9,39-28.69,58-63.21c13.84-15.07,30.36-9.38,45.35-2.06,3.48,1.69,6.88,3.48,10.14,5.12l13.54,1.82A10.38,10.38,0,0,1,2250.26,1393.27Z"/><path class="cls-4" d="M1969.47,1838.33,1816,1918.39c-26,3.07-55.31-.75-57,26.93l-68.64,32.48a14.1,14.1,0,0,1-19.11-7.4l-11.78-28.78c-.61-1-1.21-2-1.8-3.08q-2.9-5.08-5.42-10.39c-11.89-24.94-17.93-53.42-19.09-84.86l5.63-2.66,3.09.14,49.93,2.48a18.53,18.53,0,0,0,5.62-.29,16.81,16.81,0,0,0,5.8-3.21c15.58-11.89,23.27-26.87,29.41-43.57,2.12-5.74,4-11.69,6-17.78,1.17-3.54,2.56-7.37,5.74-9.29,2.76-1.65,6.33-1.45,9.32-.26a31.58,31.58,0,0,1,8,5.33l24.43,20.13,48.44-.23,84.13-16.95c20.06-4,30.07,10.28,37.88,25,1.82,3.41,3.51,6.86,5.19,10.1l9.87,9.44A10.38,10.38,0,0,1,1969.47,1838.33Z"/><path class="cls-8" d="M1969.47,1838.33,1816,1918.39c-26,3.07-55.31-.75-57,26.93l-68.64,32.48a14.1,14.1,0,0,1-19.11-7.4l-11.78-28.78c-.61-1-1.21-2-1.8-3.08l299-136.38c1.82,3.41,3.51,6.86,5.19,10.1l9.87,9.44A10.38,10.38,0,0,1,1969.47,1838.33Z"/><path class="cls-3" d="M1489.24,1069.66c5,14.4,17.36,25.4,31.26,31.7s29.32,8.37,44.55,9.3"/><path class="cls-7" d="M1981.27,1444.47,1704.87,1285c-30.88-37.17-65.41-49.26-100.52-57.44l-433.76-308-28.22,272,351.15,156.76,59.56,47.75a620.33,620.33,0,0,0,159.59,92.73l130.47,125.43Z"/><polygon class="cls-4" points="2068.26 857.8 2016.14 937.82 1935.22 1062.06 1883.04 1067.27 1775.87 853.65 1827.04 822.76 1973.75 844.07 2068.26 857.8"/><path class="cls-4" d="M529,1409.61l108.18,239.3-85.82,38.8c-40.46,18.3-95.56-16.17-123.06-77l-8.61-19.06c-27.5-60.82-17-125,23.49-143.25Z"/><path class="cls-1" d="M1895.92,1028.4c-7.26-16.06-8.2-32.66-3.67-44.69-12-4.54-23.86-16.22-31.12-32.27s-8.18-32.37-3.8-44.36c-11.9-4.63-23.6-16.24-30.79-32.16-8.89-19.66-8.3-40.15.2-52L653.12,1353.48l108.19,239.3,1172.9-530.26C1919.93,1060.61,1904.63,1047.65,1895.92,1028.4Z"/><polygon class="cls-8" points="2068.26 857.8 2016.14 937.82 1973.75 844.07 2068.26 857.8"/><rect class="cls-2" x="576.99" y="1369.88" width="136.27" height="262.62" transform="translate(-561.13 399.06) rotate(-24.33)"/><polygon class="cls-8" points="589.73 1670.34 561.85 1482.38 637.13 1648.91 589.73 1670.34"/><path class="cls-7" d="M1698.57,1713.43l-184.33,124.75-49.34-128.11c-56.07-51.06-75.5-99-117.82-161.94l-62.95-93.67-270.81-254.93c-65.74-30.73-73.28-93-71.1-160.56.45-13.91,1.31-28,2.16-42.18.63-10.34,1.24-20.69,1.69-30.95L932.31,900l244.56-6.27,84,195.89,182.77,296c35.3,26.07,61.42,56.83,70.58,96.26Z"/><path class="cls-8" d="M865.5,454.05c3.42,1.77,7.88.6,10.53-2.19a13.9,13.9,0,0,0,3.35-10.69,29.49,29.49,0,0,0-3.51-10.9c-1.25-2.44-2.64-4.8-4-7.16L864,409.73c11.11-4.31,21.41-11.46,28.19-21.26a53.5,53.5,0,0,0,9.9-28.49,11.26,11.26,0,0,0-8.34-11.28c-26.92-7.17-56.31-7.18-80.24,8.68a93.37,93.37,0,0,0-21.67,20.36c-7.08,9-15,19.45-16.94,30.78-2.12,12.06-4.11,24.31-3,36.51a79.58,79.58,0,0,0,15.55,39.82c8.59,11.59,28.23,25.22,41,31.93,3.37,1.77,4,6.12,6.56,8.94,2.15,2.36,4.58,4.71,7.68,5.49a3.27,3.27,0,0,0,1.52.08,3.38,3.38,0,0,0,2.1-2.29c1-2.71.84-5.71.53-8.6a127,127,0,0,0-3.93-20.72Z"/><circle class="cls-11" cx="834.1" cy="471.98" r="40.61" transform="translate(-31.45 883.45) rotate(-54.93)"/><path class="cls-8" d="M1014.38,1015.46,942.22,1039c.45-13.91,1.31-28,2.16-42.18Z"/><path class="cls-3" d="M806.32,470.56a27.82,27.82,0,1,1,55.56,2.83"/><path class="cls-1" d="M1188.57,909.61a4.49,4.49,0,0,1-2.93,1.67c-34.81,9.17-58.56,24-85.27,48.4-25.53,23.36-52.12,48.65-86,55.78-38.15,8-76.54-8.71-113.16-22.09-22.24-8.19-50.5-18.87-74.63-17.5C801,977.33,770.68,994,746.44,1002.3a8.11,8.11,0,0,1-4.5.63c-2.72-.69-3.91-3.82-4.59-6.54-10.9-43-2.42-90.59,22.66-127.22C775.9,846,781.32,827,793.49,801.62c20.09-41.84,4.74-91.31,10.14-137.41,3.63-31,19.37-47.07,45.58-63,2.66-1.6,29.93-12.41,33.46-14.1-2.76,1.39-5.46,2.91-8.12,4.5A303.44,303.44,0,0,0,1005,625.09c7.29.2,15,0,21.29-3.58,12-6.81,14.16-23.21,9.58-36.52l5.31-.08L1065.56,635c45.44,29.57,64.27,48.7,67.41,142.75l9.41,32.92c16.12,31.4,30.79,63,45.71,94.9C1188.69,906.82,1189.3,908.38,1188.57,909.61Z"/><path class="cls-3" d="M943.73,1008.57c-14.35-4.52-28.56-10.1-42.51-15.2-22.24-8.19-50.5-18.87-74.63-17.5C801,977.33,770.68,994,746.44,1002.3a8.11,8.11,0,0,1-4.5.63"/><path class="cls-1" d="M803.63,839.64c42.09,41.71,135.89,1.16,237.57,1.16L1006,753.11Z"/><path class="cls-3" d="M803.63,839.64c42.09,41.71,135.89,1.16,237.57,1.16L1006,753.11Z"/><polygon class="cls-11" points="1148.64 887.46 1060.34 926.65 1005.9 863.43 975.54 828.17 951.23 799.94 1044.85 752.01 1148.64 887.46"/><polygon class="cls-8" points="1049.94 817.73 1005.9 863.43 975.54 828.17 1049.94 817.73"/><path class="cls-1" d="M953.08,631.35a55.37,55.37,0,0,0-26.62-19c-32.1-10.65-78.8-7-87.54,33.07-3.95,18.14,2.74,36.86,2.14,55.41-.78,24.48-14,46.52-25,68.41s-20.15,47.19-12.45,70.44C827.3,831.68,852,824.35,877,824s49.35,7,74,11.41c23.78,4.3,47.55,5,70.22-4.29,23.15-9.49,43.7-22.75,65.52-27.39-20.73-26.05-66.89-84.84-80.73-103Z"/><path class="cls-11" d="M1060.33,926.65,1103,980.54a446.75,446.75,0,0,0,75,74.53L1318,1163.36l48.26-45.28L1244.48,981.62q-11.18-12.52-23.27-24.19l-72.57-70Z"/><path class="cls-11" d="M1307.49,1075.3c13.54,6,28.92,5.75,43.47,8.51,15.91,3,30.85,9.67,45.63,16.29l67.14,30a8.4,8.4,0,0,1,5,8.94c-1.07,6.26-8.68,6.42-14.31,5.4-18.32-3.33-31.81-3.5-49.39-9.67l75.42,65.13c4.44,3.84,9.07,7.93,10,14.13a9.27,9.27,0,0,1-2.92,8.44c-4.76,4.06-11.43,1.09-16.52-2a391.33,391.33,0,0,1-61.84-47.3q28.58,29.38,59.36,56.54c4.25,3.75,9,8.86,6.8,14.35a8.65,8.65,0,0,1-6.65,5.13c-5.72,1-10.67-1.92-15.24-4.88-24.07-15.6-48.54-36.63-65.88-59.48a197.52,197.52,0,0,0,46.52,45.75c7.73,5.4,16.55,11.37,20.17,19.59a4.59,4.59,0,0,1-4.5,6.43c-7.94-.59-15.71-3.62-22.54-7.82-8.58-5.28-15.91-12.32-23.16-19.31-8.9-8.57-17.69-16-26.59-24.58a373.8,373.8,0,0,1,44.6,46.21,4,4,0,0,1-3.19,6.55c-8.13-.22-16.34-4.8-23.38-9.46a412.06,412.06,0,0,1-124.16-129Z"/><path class="cls-12" d="M937.44,456c19.86,13.48,38.65,25.47,34.37,5.23C965.25,443.88,950.66,452.15,937.44,456Z"/><path class="cls-3" d="M971.81,461.26c-8.33,1.83-22.93-1.87-38-6"/><line class="cls-3" x1="850.22" y1="486.29" x2="835.51" y2="444.19"/><polygon class="cls-8" points="950 523.11 888.32 515.42 960.8 546.27 950 523.11"/><path class="cls-11" d="M1026.31,621.51c-6.34,3.61-14,3.78-21.29,3.58-45.26-1.15-92.84-12.74-133.1-33.44,2.66-1.59,8-3.11,10.75-4.5.06,0,.1-.06.15-.08L1035.89,585C1040.47,598.3,1038.27,614.7,1026.31,621.51Z"/><path class="cls-3" d="M838.92,645.38c-3.95,18.14,2.74,36.86,2.14,55.41-.78,24.48-14,46.52-25,68.41s-20.15,47.19-12.45,70.44C827.3,831.68,852,824.35,877,824s49.35,7,74,11.41c23.78,4.3,47.55,5,70.22-4.29,23.15-9.49,43.7-22.75,65.52-27.39-20.73-26.05-66.89-84.84-80.73-103L970.7,654.47"/><path class="cls-3" d="M1147.91,821.53,1133,777.72c-3.14-94.05-22-113.18-67.41-142.75l-41.08-37.74"/><line class="cls-3" x1="1419.39" y1="1243.33" x2="1377.45" y2="1204.93"/><line class="cls-3" x1="1387.55" y1="1184.87" x2="1444.44" y2="1238.28"/><line class="cls-3" x1="1409.16" y1="1173.21" x2="1448.44" y2="1211.58"/><line class="cls-3" x1="1284.13" y1="1454.46" x2="1366.21" y2="1508.35"/><line class="cls-3" x1="1464.9" y1="1710.07" x2="1527.14" y2="1748.82"/><line class="cls-3" x1="1514.24" y1="1481.87" x2="1547.69" y2="1577.82"/><line class="cls-3" x1="1493.52" y1="1348.34" x2="1657.66" y2="1385.61"/><polygon class="cls-8" points="1606.93 1821.46 1657.66 1741.12 1577.94 1795.07 1606.93 1821.46"/><polygon class="cls-8" points="1935.76 1570.66 1950.84 1481.87 1891.74 1554.51 1935.76 1570.66"/><path class="cls-3" d="M1777,1789.9c-6.48-4.24-14.16-9-21.42-6.29-5.42,2-8.54,7.5-12.31,11.88a38.8,38.8,0,0,1-30.15,13.23c-8.72-.28-17.83-3.47-25.9-.16-9.43,3.88-13.53,16.4-9.51,25.76s14.57,15,24.75,14.69,19.76-5.71,26.67-13.21c3.4-3.69,6.42-8,10.94-10.21,6.7-3.25,14.67-.92,22.09-1.63,9.76-.93,22.17-8.58,27-17.32C1796.26,1793.9,1787.08,1796.5,1777,1789.9Z"/><path class="cls-3" d="M1783.94,1785.83c-3.36-7-7.49-15-15.1-16.45-5.68-1.07-11.18,2-16.67,3.82a38.81,38.81,0,0,1-32.65-4.23c-7.33-4.73-13.48-12.17-22.11-13.5-10.07-1.55-20.05,7.06-21.44,17.16s4.76,20.33,13.62,25.35,19.88,5.31,29.66,2.45c4.82-1.41,9.63-3.56,14.64-3.1,7.42.68,13,6.79,19.76,10,8.84,4.23,23.42,4.09,32.09-.89C1798.37,1799.19,1789.16,1796.67,1783.94,1785.83Z"/><path class="cls-3" d="M2063.2,1456.65c-6.47-4.24-14.16-9-21.42-6.29-5.42,2-8.54,7.5-12.31,11.87a38.82,38.82,0,0,1-30.14,13.24c-8.73-.28-17.83-3.48-25.91-.16-9.42,3.87-13.52,16.4-9.51,25.76s14.57,15,24.76,14.69,19.76-5.72,26.66-13.21c3.41-3.7,6.42-8,10.94-10.22,6.71-3.25,14.68-.91,22.1-1.62,9.75-.94,22.17-8.59,27-17.33C2082.45,1460.65,2073.27,1463.24,2063.2,1456.65Z"/><path class="cls-3" d="M2070.13,1452.57c-3.35-7-7.49-15-15.1-16.44-5.67-1.08-11.18,2-16.67,3.81a38.81,38.81,0,0,1-32.65-4.22c-7.33-4.74-13.48-12.18-22.11-13.5-10.07-1.55-20,7.06-21.43,17.15s4.75,20.34,13.62,25.36,19.87,5.3,29.65,2.45c4.82-1.41,9.64-3.56,14.64-3.11,7.42.68,13.05,6.79,19.77,10,8.83,4.24,23.42,4.1,32.08-.89C2084.56,1465.93,2075.35,1463.42,2070.13,1452.57Z"/><path class="cls-8" d="M2250.26,1393.27l-77,155.06c-19.24,17.8-45.16,32-30.22,55.31l-36.39,66.66a14.11,14.11,0,0,1-19.81,5.25l-26.46-16.33c-1.09-.46-2.18-1-3.26-1.44l161.46-286.2c3.48,1.69,6.88,3.48,10.14,5.12l13.54,1.82A10.38,10.38,0,0,1,2250.26,1393.27Z"/><path class="cls-8" d="M2262.86,900.7l-40.13-32.53-7.82,2.13L2254,940.82l-7,3.89-39.08-70.52-5,5,6.31,51.27a58.23,58.23,0,0,0,26.4,46.59l10.93,7.12,20.88-11.58.32-.17,20.88-11.57-.24-13.05A58.23,58.23,0,0,0,2262.86,900.7Z"/><rect class="cls-8" x="2250.72" y="976.04" width="48.12" height="18.94" transform="translate(-192.61 1226.01) rotate(-28.99)"/><rect class="cls-8" x="2193.8" y="848.52" width="19.15" height="19.15" transform="translate(-139.8 1175.43) rotate(-28.99)"/><rect class="cls-8" x="2227.51" y="730.6" width="19.15" height="19.15" transform="translate(-78.43 1176.99) rotate(-28.99)"/><rect class="cls-8" x="2077.18" y="813.91" width="19.15" height="19.15" transform="translate(-137.64 1114.58) rotate(-28.99)"/><path class="cls-3" d="M2237.55,741a85.93,85.93,0,1,1-150.33,83.3"/><rect class="cls-8" x="663.17" y="1869.76" width="26.71" height="26.71"/><rect class="cls-8" x="1129.02" y="1481.4" width="26.71" height="26.71"/><rect class="cls-8" x="1714.67" y="1537.76" width="26.71" height="26.71"/><rect class="cls-8" x="2049.27" y="1174.98" width="26.71" height="26.71"/></svg>