<svg id="Layer_3" data-name="Layer 3" xmlns="http://www.w3.org/2000/svg" xmlns:xlink="http://www.w3.org/1999/xlink" viewBox="0 0 2377.3 2100"><defs><style>.cls-1,.cls-12,.cls-13,.cls-16,.cls-18,.cls-2,.cls-24,.cls-25,.cls-4{fill:none;}.cls-12,.cls-13,.cls-14,.cls-16,.cls-18,.cls-2,.cls-24,.cls-25,.cls-4{stroke:#231f20;stroke-linecap:round;stroke-linejoin:round;}.cls-2{stroke-width:2.82px;}.cls-3,.cls-6{fill:#fff;}.cls-4{stroke-width:2.8px;}.cls-5{fill:url(#linear-gradient);}.cls-6{opacity:0.45;}.cls-7{clip-path:url(#clip-path);}.cls-8{fill:url(#linear-gradient-2);}.cls-9{clip-path:url(#clip-path-2);}.cls-10,.cls-14{fill:#ff71af;}.cls-11{fill:url(#linear-gradient-3);}.cls-12{stroke-width:3.14px;}.cls-13,.cls-14{stroke-width:3.91px;}.cls-15{fill:#2d4695;}.cls-16{stroke-width:3.86px;}.cls-17{fill:#3856dd;}.cls-18{stroke-width:3.72px;}.cls-19{fill:#91b6ed;}.cls-20{fill:url(#linear-gradient-4);}.cls-21{fill:#231f20;}.cls-22{fill:#e8d2ca;}.cls-23{fill:#ab7b46;}.cls-24{stroke-width:2.64px;}.cls-25{stroke-width:4px;}.cls-26{fill:url(#linear-gradient-5);}.cls-27{fill:url(#linear-gradient-6);}.cls-28{fill:url(#linear-gradient-7);}</style><linearGradient id="linear-gradient" x1="1798.58" y1="725.25" x2="2144.78" y2="725.25" gradientTransform="matrix(-1, 0, 0, 1, 3878.29, 0)" gradientUnits="userSpaceOnUse"><stop offset="0.02" stop-color="#f0ede4"/><stop offset="0.23" stop-color="#fff"/><stop offset="0.41" stop-color="#e2e2e2"/><stop offset="0.56" stop-color="#dbdae0"/><stop offset="0.75" stop-color="#91b6ed"/><stop offset="1" stop-color="#3856dd"/></linearGradient><clipPath id="clip-path"><path class="cls-1" d="M151.59,964.79a51.7,51.7,0,0,1,46.62-7.49L135.6,872l85.08-62.43a51.76,51.76,0,1,1,49.17-36.09L354.93,711l161,219.33-78.43,57.56a51.75,51.75,0,1,0-53.81,39.49l-87.09,63.91L234,1006a51.75,51.75,0,1,1-82.36-41.22Z"/></clipPath><linearGradient id="linear-gradient-2" x1="3114.21" y1="1358.23" x2="3501.96" y2="1358.23" gradientTransform="matrix(1, 0, 0, -1, -2982.34, 2259.41)" xlink:href="#linear-gradient"/><clipPath id="clip-path-2"><path class="cls-2" d="M151.59,964.79a51.7,51.7,0,0,1,46.62-7.49L135.6,872l85.08-62.43a51.76,51.76,0,1,1,49.17-36.09L354.93,711l161,219.33-78.43,57.56a51.75,51.75,0,1,0-53.81,39.49l-87.09,63.91L234,1006a51.75,51.75,0,1,1-82.36-41.22Z"/></clipPath><linearGradient id="linear-gradient-3" x1="3089.48" y1="1453.2" x2="3399.3" y2="1453.2" gradientTransform="matrix(-1, 0, 0, 1, 3878.29, 0)" gradientUnits="userSpaceOnUse"><stop offset="0.02" stop-color="#dddad3"/><stop offset="0.23" stop-color="#fff"/><stop offset="0.41" stop-color="#e2e2e2"/><stop offset="0.56" stop-color="#dbdae0"/><stop offset="0.75" stop-color="#ff71af"/><stop offset="1" stop-color="#3856dd"/></linearGradient><linearGradient id="linear-gradient-4" x1="2576.03" y1="527.03" x2="2670.28" y2="527.03" gradientTransform="matrix(-0.99, 0.14, 0.14, 0.99, 4035.94, 285.72)" gradientUnits="userSpaceOnUse"><stop offset="0.02" stop-color="#f0ede4"/><stop offset="0.23" stop-color="#fff"/><stop offset="0.41" stop-color="#e2e2e2"/><stop offset="0.56" stop-color="#dbdae0"/><stop offset="0.75" stop-color="#91b6ed"/><stop offset="0.97" stop-color="#91b6ed"/></linearGradient><linearGradient id="linear-gradient-5" x1="1729.03" y1="1669.5" x2="1856.43" y2="1669.5" gradientTransform="matrix(-1, 0, 0, 1, 3878.29, 0)" gradientUnits="userSpaceOnUse"><stop offset="0.02" stop-color="#f0ede4"/><stop offset="0.19" stop-color="#fff"/><stop offset="0.36" stop-color="#e2e2e2"/><stop offset="0.56" stop-color="#dbdae0"/><stop offset="0.75" stop-color="#91b6ed"/><stop offset="0.97" stop-color="#3856dd"/></linearGradient><linearGradient id="linear-gradient-6" x1="1665.34" y1="1524.14" x2="1792.73" y2="1524.14" xlink:href="#linear-gradient-5"/><linearGradient id="linear-gradient-7" x1="1901.96" y1="1608.52" x2="2029.36" y2="1608.52" xlink:href="#linear-gradient-5"/></defs><path class="cls-3" d="M1852.82,914c1.51,12.45-.18,21.52-11.35,20.54l-9.41,12.71c3.35,17.69-1.3,27.82-18.84,25.72-49.44,10.11-90.29-12.17-123.68-62.62-2.59-18.1,2.8-26.24,16.37-24.18l11.47-19c-8-14.23,3.54-18.48,16.13-22.18Z"/><line class="cls-4" x1="1841.47" y1="934.52" x2="1717.38" y2="867.12"/><path class="cls-4" d="M1832.06,947.23c-46.66-13.11-89.82-37.32-126.15-61.08"/><path class="cls-4" d="M1813.22,973c-34.87-11.15-77-33.44-123.68-62.62"/><path class="cls-5" d="M1733.51,844.94c26.37-32.81,12.63-64.91,6.88-101.37-3.69-23.44-7.4-47.15-5.5-70.8a151.87,151.87,0,0,1,43-93.76c37.9-38.3,83.65-44.07,134.56-42.17,30.26,1.13,62.14,12.56,87,29.8,58.29,40.36,92.39,121.39,76.17,191.62-9.41,40.75-36.5,77.76-74,96.21-17.1,8.4-35.84,12.91-54.61,16.22-17.65,3.11-35.61,5.26-52.51,11.24s-33,16.37-41.7,32.05Z"/><path class="cls-4" d="M1811.37,890l100.54-139.12c11.21-15.51,36-3.51,30.22,14.74-.06.17-.11.34-.17.51a16.94,16.94,0,0,1-19.12,11.1l-26.51-4.78-41.73-25.79,16.31-24.12c8.07-11.93-.84-28.27-15.22-27.47l-.52,0c-12.57.87-20,14.59-14.12,25.75l13.55,25.81-77.4,123.57"/><path class="cls-6" d="M1859.43,643.06c-4.7,5.14-9.17,10.81-15.4,13.94-10.87,5.47-25.27,1.09-32.39-8.78s-7.16-23.9-1.34-34.59c3.57-6.56,9-11.89,14.71-16.74,19-16.18,58.92-44.2,77.61-12.44C1919.09,612.43,1874.42,626.68,1859.43,643.06Z"/><path class="cls-6" d="M1800.81,726.52c-2.79,4.61-8,8.23-13.29,7.47-3.76-.53-6.93-3.11-9.32-6-5.87-7.21-8.09-16.89-7.53-26.16.46-7.47,2.75-15.06,7.79-20.59,8.92-9.79,27.66-9.41,31.56,5C1812.54,695.6,1805.54,718.71,1800.81,726.52Z"/><path class="cls-4" d="M1852.82,914c1.51,12.45-.18,21.52-11.35,20.54l-9.41,12.71c3.35,17.69-1.3,27.82-18.84,25.72-49.44,10.11-90.29-12.17-123.68-62.62-2.59-18.1,2.8-26.24,16.37-24.18l11.47-19c-8-14.23,3.54-18.48,16.13-22.18Z"/><g class="cls-7"><path class="cls-3" d="M151.59,964.79a51.7,51.7,0,0,1,46.62-7.49L135.6,872l85.08-62.43a51.76,51.76,0,1,1,49.17-36.09L354.93,711l161,219.33-78.43,57.56a51.75,51.75,0,1,0-53.81,39.49l-87.09,63.91L234,1006a51.75,51.75,0,1,1-82.36-41.22Z"/><rect class="cls-8" x="131.87" y="707.3" width="387.75" height="387.75" transform="translate(551.46 1832.45) rotate(-173.75)"/></g><g class="cls-9"><path class="cls-2" d="M151.59,964.79a51.7,51.7,0,0,1,46.62-7.49L135.6,872l85.08-62.43a51.76,51.76,0,1,1,49.17-36.09L354.93,711l161,219.33-78.43,57.56a51.75,51.75,0,1,0-53.81,39.49l-87.09,63.91L234,1006a51.75,51.75,0,1,1-82.36-41.22Z"/><rect class="cls-2" x="131.87" y="707.3" width="387.75" height="387.75" transform="translate(551.46 1832.45) rotate(-173.75)"/></g><path class="cls-2" d="M151.59,964.79a51.7,51.7,0,0,1,46.62-7.49L135.6,872l85.08-62.43a51.76,51.76,0,1,1,49.17-36.09L354.93,711l161,219.33-78.43,57.56a51.75,51.75,0,1,0-53.81,39.49l-87.09,63.91L234,1006a51.75,51.75,0,1,1-82.36-41.22Z"/><rect class="cls-10" x="1429.52" y="299.98" width="37.21" height="37.21" transform="translate(1272.63 1790.92) rotate(-95.61)"/><rect class="cls-10" x="1388.94" y="266.58" width="37.21" height="37.21" transform="translate(1261.34 1713.87) rotate(-95.61)"/><rect class="cls-10" x="704.16" y="1825.15" width="37.21" height="37.21" transform="translate(1720.68 3554.31) rotate(171.15)"/><polygon class="cls-11" points="382.11 1560.02 540.61 1491.32 512.77 1661.8 576.26 1501.16 677.13 1641.39 608.43 1482.9 778.91 1510.74 618.27 1447.24 758.5 1346.38 600.01 1415.07 627.85 1244.59 564.35 1405.23 463.49 1265 532.18 1423.49 361.7 1395.66 522.35 1459.15 382.11 1560.02"/><polygon class="cls-12" points="382.11 1560.02 540.61 1491.32 512.77 1661.8 576.26 1501.16 677.13 1641.39 608.43 1482.9 778.91 1510.74 618.27 1447.24 758.5 1346.38 600.01 1415.07 627.85 1244.59 564.35 1405.23 463.49 1265 532.18 1423.49 361.7 1395.66 522.35 1459.15 382.11 1560.02"/><path class="cls-13" d="M1506.26,750c-1.47,1.63-3,3.23-4.54,4.81l-.55.57c-4.45,4.5-9.15,8.78-14,12.82Z"/><polyline class="cls-14" points="1499.47 757.03 1501.17 755.39 1501.72 754.82"/><path class="cls-15" d="M1633,559.09c22.71,42.44,7.26,95.56-25.71,134a166.33,166.33,0,0,1-18.81,18.73,163.46,163.46,0,0,1-17.57,12.85,221.84,221.84,0,0,1-41.29,20.11c7.91-26.33,7.33-53.85-5.55-78-21.12-39.5-67.11-58.11-110.5-71-204.39-60.48-465.34-25.61-670.71,44.37-15.78,5.36-31.59,11.22-47.09,17.85-7.9,3.36-15.74,7-23.42,10.8-2.86,1.4-5.68,2.86-8.48,4.34,1.23-2.65,2.52-5.28,3.87-7.85a202.44,202.44,0,0,1,11.78-20A209.08,209.08,0,0,1,695,625c.66-.75,1.31-1.49,2-2.22a214.87,214.87,0,0,1,20.52-20.2c38-32.94,121.84-83.42,169.78-99.75,205.35-70,430.84-75.18,635.21-14.69C1565.9,501,1611.86,519.61,1633,559.09Z"/><path class="cls-16" d="M1633,559.09c22.71,42.44,7.26,95.56-25.71,134a166.33,166.33,0,0,1-18.81,18.73,163.46,163.46,0,0,1-17.57,12.85,221.84,221.84,0,0,1-41.29,20.11c7.91-26.33,7.33-53.85-5.55-78-21.12-39.5-67.11-58.11-110.5-71-204.39-60.48-465.34-25.61-670.71,44.37-15.78,5.36-31.59,11.22-47.09,17.85-7.9,3.36-15.74,7-23.42,10.8-2.86,1.4-5.68,2.86-8.48,4.34,1.23-2.65,2.52-5.28,3.87-7.85a202.44,202.44,0,0,1,11.78-20A209.08,209.08,0,0,1,695,625c.66-.75,1.31-1.49,2-2.22a214.87,214.87,0,0,1,20.52-20.2c38-32.94,121.84-83.42,169.78-99.75,205.35-70,430.84-75.18,635.21-14.69C1565.9,501,1611.86,519.61,1633,559.09Z"/><path class="cls-15" d="M1975.49,1262.73c-7.39,34.54-26.28,62.2-51.86,84-19.23,16.38-42.21,29.46-67,39.67.92-3.19,1.75-6.47,2.45-9.79,24.91-116.21-102.34-190.9-212.1-209.4-147.21-24.76-302-15.24-450.33,27.69a667.8,667.8,0,0,0-145.18,61.69c-16.24,9.32-32.08,19.35-47.34,30.07a389.15,389.15,0,0,1,31.58-39.72,470.88,470.88,0,0,1,43.06-41.83c.16-.16.36-.31.55-.48,5.88-4.84,12-9.81,18.3-15l.25-.18c63.94-49.85,140.93-87,215.13-108.49,148.29-43,303.13-52.49,450.33-27.69C1873.15,1071.84,2000.4,1146.52,1975.49,1262.73Z"/><path class="cls-13" d="M1975.49,1262.73c-7.39,34.54-26.28,62.2-51.86,84-19.23,16.38-42.21,29.46-67,39.67.92-3.19,1.75-6.47,2.45-9.79,24.91-116.21-102.34-190.9-212.1-209.4-147.21-24.76-302-15.24-450.33,27.69a667.8,667.8,0,0,0-145.18,61.69c-16.24,9.32-32.08,19.35-47.34,30.07a389.15,389.15,0,0,1,31.58-39.72,470.88,470.88,0,0,1,43.06-41.83c.16-.16.36-.31.55-.48,5.88-4.84,12-9.81,18.3-15l.25-.18c63.94-49.85,140.93-87,215.13-108.49,148.29-43,303.13-52.49,450.33-27.69C1873.15,1071.84,2000.4,1146.52,1975.49,1262.73Z"/><path class="cls-17" d="M1906.56,1811.13l-117.45,112.21c-257.09,45.65-514.5,17.21-732.8-81C937,1788.67,819.24,1695.13,825.79,1554.68c2.56-55.08,23.57-106.5,56.54-152.79,6.29-7.94,12-15.48,17.76-23.1,28.35-37.23,59.63-76.39,178.72-173.64a514.16,514.16,0,0,0-43.46,41.22,419.57,419.57,0,0,0-32.25,38.7c-34.86,47.47-57.19,100.45-59.84,157.39-6.51,140.45,111.19,234,230.53,287.68C1392.09,1828.33,1649.48,1856.81,1906.56,1811.13Z"/><path class="cls-18" d="M1906.56,1811.13l-117.45,112.21c-257.09,45.65-514.5,17.21-732.8-81C937,1788.67,819.24,1695.13,825.79,1554.68c2.56-55.08,23.57-106.5,56.54-152.79,6.29-7.94,12-15.48,17.76-23.1,28.35-37.23,59.63-76.39,178.72-173.64a514.16,514.16,0,0,0-43.46,41.22,419.57,419.57,0,0,0-32.25,38.7c-34.86,47.47-57.19,100.45-59.84,157.39-6.51,140.45,111.19,234,230.53,287.68C1392.09,1828.33,1649.48,1856.81,1906.56,1811.13Z"/><path class="cls-19" d="M1584.31,1130.06a1472.56,1472.56,0,0,1,114.42,122.76c7.24,8.72,14.8,18.68,14.51,30.08s-13.63,21.75-22.29,14.59c3.07,21,11.94,41,13.61,62.07s-7,45.59-26.49,51c-12.33,3.46-25.62-1.66-36.61-8.81s-20.77-16.38-32.3-22.51a344.5,344.5,0,0,1,14.64,47c2.79,11.87,4.28,26.25-4.3,34.32-7.94,7.46-20.58,5.49-30.62,1.13-38.24-16.62-60.46-58-78.85-96.72Q1466,1272,1428.34,1176.1Z"/><path class="cls-17" d="M1548.85,1122.06a536.7,536.7,0,0,1,77.36,86.53c10.43,14.58,20.37,30.31,22.92,48.06.56,3.95.59,8.45-2.13,11.37-2,2.15-5,3-7.91,3.35-16.93,2.31-33.35-5.83-48.5-13.74,4,13.33,7.17,30-3.21,39.29-6.81,6.09-17.39,6.25-25.86,2.8s-15.3-9.88-21.93-16.17a115.78,115.78,0,0,1,3.49,21.57,11.24,11.24,0,0,1-.7,5.82c-1.78,3.54-6.79,4.34-10.41,2.73s-6.16-4.91-8.5-8.1a731.91,731.91,0,0,1-86.9-154.16Z"/><path class="cls-20" d="M1468.13,1177.13c-7.34-17.05-10.46-45,13.41-50.19,9-2,18.33.35,27.13,3,30.24,9.17,49.36,34.31,54.85,65.33.85,4.76,1.06,10.35-2.46,13.67-5.51,5.21-14.38.52-20.32-4.19,1.4,6.06,1.75,12.7-1,18.26s-9.49,9.49-15.39,7.5c-2.75-.93-5-3-7.1-4.93l-15.88-14.69.85,6.81c-3,2.08-6.83-.94-9.19-3.73C1483.4,1202.62,1474,1190.8,1468.13,1177.13Z"/><path class="cls-21" d="M1313.34,662.9,1428.55,1110l13.51,52.43,185.27-16.08-13.17-52.45L1523.54,733c-15-60-57.41-109.48-106.39-122.95C1369.65,597,1338.54,622.91,1313.34,662.9Z"/><polygon class="cls-21" points="1428.55 1110.04 1442.06 1162.47 1627.33 1146.39 1614.16 1093.94 1428.55 1110.04"/><path class="cls-22" d="M807.09,564.88c16.71-10.27,34.39-15.71,52.58-10,13.09,4.14,23.85,13.52,37.89,9.35,18.71-5.56,42.91,5.23,63.46,2.58,28-3.61,58-12.54,86.3-10.49,8.93.65,55.43,9.23,53.33,24.9l-21.08,157L945.7,731.33c-14.16,3.23-22.6,5.6-37.07,6.83-9.17.77-18-3.27-26.91-5.4-27.84-6.59-55.2,7.41-83.25,4.75,0,0-58.28-17.8-76.26-41.66-25.39-33.69-12.34-50.1,16-72.35C757.68,608.22,781.21,580.77,807.09,564.88Z"/><path class="cls-23" d="M1518,1669.75c25.32-29.73,41.88-43.76,49.84-104.62l-.39-48.45-33.28-70.29L1458.4,1453s64.16,126.84,65.21,142.9Z"/><path class="cls-19" d="M1517.59,1714c-9.71-8.73-13.84-14.13-8.41-28.35a62.35,62.35,0,0,1,5.76-11.38c16.56-25.9,28.34-56.38,34.58-86.7,1.31-6.4,16.51-83.35,14.22-83.11,21-2.23,34.32,16.71,41.8,36.5l23.56,52.77-12.65,6.91-20.75-33.27-11.4,31.35-3,43.12a23.83,23.83,0,0,1-6.89,15.19Z"/><path class="cls-24" d="M1517.59,1714c-9.71-8.73-13.84-14.13-8.41-28.35a62.35,62.35,0,0,1,5.76-11.38c16.56-25.9,28.34-56.38,34.58-86.7,1.31-6.4,16.51-83.35,14.22-83.11,21-2.23,34.32,16.71,41.8,36.5l23.56,52.77-12.65,6.91-20.75-33.27-11.4,31.35-3,43.12a23.83,23.83,0,0,1-6.89,15.19Z"/><path class="cls-23" d="M1176.11,1453.64c20.57-41.68,35.6-62.69,27.08-135.23l-14.54-55.81-58.85-71.43L1060,1249.49s95.24,99,101.12,117.24Z"/><path class="cls-19" d="M1188.53,1504.87c-13.75-7.26-20.08-12.28-18-30.28a74.25,74.25,0,0,1,3.33-14.8c11.59-34.71,16.31-73.31,14.69-110.11-.34-7.77-5.19-101-7.76-100,23.64-8.7,44.46,9.3,58.86,30l42.54,54.05-12.6,11.65L1236,1312.93l-4,39.5,9.15,50.62a28.39,28.39,0,0,1-3.54,19.53Z"/><path class="cls-12" d="M1188.53,1504.87c-13.75-7.26-20.08-12.28-18-30.28a74.25,74.25,0,0,1,3.33-14.8c11.59-34.71,16.31-73.31,14.69-110.11-.34-7.77-5.19-101-7.76-100,23.64-8.7,44.46,9.3,58.86,30l42.54,54.05-12.6,11.65L1236,1312.93l-4,39.5,9.15,50.62a28.39,28.39,0,0,1-3.54,19.53Z"/><path class="cls-10" d="M859.51,1015.4l79.69,102.29,143,196.13c52.43-6.87,86.19-44.28,106.67-84.88l-80.39-121.28,78,30.62c52.77,24.43,85.39,50.67,118.66,39.54l91.09,175.48,72.32,142.26c34.3,11.18,64.44,2.71,90.72-24l-46.63-166c-11.4-47.41-5.46-88-12.92-147.2-5.76-57-24-88-42.69-118L1151.17,936,962.56,862.62c-84.75-14.86-117.89,20.63-123.64,82.83A99.13,99.13,0,0,0,859.51,1015.4Z"/><path class="cls-12" d="M859.51,1015.4l79.69,102.29,143,196.13c52.43-6.87,86.19-44.28,106.67-84.88l-80.39-121.28,78,30.62c52.77,24.43,85.39,50.67,118.66,39.54l91.09,175.48,72.32,142.26c34.3,11.18,64.44,2.71,90.72-24l-46.63-166c-11.4-47.41-5.46-88-12.92-147.2-5.76-57-24-88-42.69-118L1151.17,936,962.56,862.62c-84.75-14.86-117.89,20.63-123.64,82.83A99.13,99.13,0,0,0,859.51,1015.4Z"/><path class="cls-22" d="M1381.81,641.44l-88.51-31-205.78-51.38L1062.83,767.4c-54.82,74.39,2.83,125.71,42.69,136.54,23.47,35.2,18.65,38.74,51.47,75.68,110.55,116.19,206.11,96.14,300,60.69l-24.39-168.59Z"/><path class="cls-19" d="M1596.15,890.49l-295.89-37.65a10,10,0,0,0-11.21,9.45l-9.75,225.64a10,10,0,0,0,9,10.34l301.24,29.41a10,10,0,0,0,10.92-9.71l4.41-217.4A10,10,0,0,0,1596.15,890.49Z"/><path class="cls-23" d="M1464.62,1177c-4,9.6-7.44,20-5.6,30.29,2.25,12.55,12.11,22.61,23.32,28.68a5.24,5.24,0,0,0,3.31.89c2.42-.44,3-3.6,3-6.06a280.45,280.45,0,0,0-5.21-54.92c-.9-4.62-1.38-19.54-8.07-19C1470,1157.33,1466.43,1172.67,1464.62,1177Z"/><polygon class="cls-23" points="1476.15 832.1 1512.15 994.91 1546.04 1192.22 1489.63 1199.35 1419.01 1003.76 1373.64 833.49 1476.15 832.1"/><path class="cls-22" d="M1371.2,945.93a32.84,32.84,0,0,1,1.66-23.83c1.22-2.57,2.88-5.11,2.82-8-.11-5.43-6.14-8.61-8.75-13.39-4.87-8.92,2.22-25.86,1.2-35.75-1.09-10.62-3.76-21.8-5.24-32.54l-6.59-47.82c-10.57-84.53-35.92-129.75,25.51-143.21,51.13,17.78,103.66,61.1,111.82,177.77,1.34,19,16.23,114,13.35,136.07l-98.72,35C1394.76,981.1,1376.47,964.35,1371.2,945.93Z"/><path class="cls-21" d="M1381.81,641.44c-14.78-18.87-32-21-50-17.49l14.7,208.38a34.07,34.07,0,0,0,20.27,28.79h0Z"/><path class="cls-21" d="M1081.74,567,1032,551.83l12.79,186.37c.78,11.28,8.48,21.13,20,25.57h0Z"/><path class="cls-23" d="M1537.55,1258.25c-.31-.12-.63-.24-.94-.38-2.76,5.63-11.3,7.25-15.93,3a9.45,9.45,0,0,1-17.8-.91c-3.11,2.39-7.91,1.08-10.57-1.82s-3.68-6.88-4.55-10.71c-6.22-27.74-10.74-57.53-12-85.93l57.69-9.63c14.31,23.06,17.82,56.54,22.9,90.35C1557.89,1252.87,1547.68,1261.84,1537.55,1258.25Z"/><path class="cls-23" d="M1305.65,643c.43,12.26-3.23,24.31-7.74,35.72-12.86,32.56-98.14,115.9-120.8,110.84-18.43-4.12-43.8-75.64-42.35-94.47,1.57-20.4,4.21-41,11.84-60s20.77-36.39,39-45.59c10.37-5.23,21.93-7.64,33.46-9,15-1.81,30.62-1.92,44.66,3.61C1284.8,592.41,1304.85,620.23,1305.65,643Z"/><line class="cls-12" x1="1305.08" y1="1177.82" x2="1290.47" y2="1153.8"/><line class="cls-25" x1="1108.45" y1="1107.66" x2="1088.67" y2="1079.18"/><path class="cls-23" d="M1264.94,601.11c-.67,18.88,2.64,34.21,10.82,45.2-7.88,56.45-95.81,82.34-127.93,3.48Z"/><path class="cls-12" d="M1177.06,716c-10.37-22-20.16-44-29.23-66.21l117.11-48.68c-.67,18.88,2.64,34.21,10.82,45.2"/><path class="cls-23" d="M1099.91,655.64a43.57,43.57,0,0,0,22.46,7.61c25.26,1.67,50.2-14.51,70.12-27.49,19.7-12.84,30.94-25.28,48.28-40.88,4.34-3.89,26.82-28.47,32.48-37.32,8.82-13.81,13.2-36.76,12-52.82-1-13.74,3.74-29.44-8.3-36.44-2.13-14.49-5.37-26.67-12.63-39.41-11.2-19.66-33-31.73-55.53-36.41-31.46-6.56-67.35-3.73-96.79,9.62-.48.22-.94.44-1.41.68A83.76,83.76,0,0,0,1089,417.86a115.91,115.91,0,0,0-32.49,58.8,96.45,96.45,0,0,0-2.06,16.47c-.22,5.47,1.3,18.51,1.49,19.74,4.8,30.44,6.33,61.57,15,91.31C1076.51,623.57,1084,644.62,1099.91,655.64Z"/><path class="cls-21" d="M1093.62,483.75q1.61,4.32,3.61,8.49a131.82,131.82,0,0,1-39.13,2.24c-2.4-.22-5-.61-6.61-2.41-1.38-1.54-1.67-3.75-1.85-5.81-2.22-25.16-.31-48,17-67.59,25.29-28.62,83.85-49.84,121.31-51.21,26.31-1,52.64,10.11,74.31,24.21,32.68,21.27,61.24,50.16,98.08,62.93,27.12,9.4,56.64,9.25,84.35,16.72s55.87,26.4,60,54.81c-26.35,25.85-52,52.25-82,73.64L1323.07,574l75.09,54.66-84.82,87.79c-20.13,0-39-6.11-52.86-20.7s-20.9-34.27-26.17-53.69c-7-25.74-13-56.88-27.19-79.79-10.21-16.48-20.84-25.48-26.75-44.8-7.93-25.92-18.49-48.59-28.24-73.91a72.09,72.09,0,0,0,9.14,37.4l-47.48,10a7.68,7.68,0,0,1-4.3.07c-1.54-.58-2.52-2.06-3.39-3.45q-9.82-15.74-18.55-32.13A100.56,100.56,0,0,0,1093.62,483.75Z"/><path class="cls-12" d="M1096,518.48l2.47,32.61c-16.56,1-18.06.8-2.22,22.88"/><ellipse class="cls-21" cx="1135.3" cy="533.09" rx="5.22" ry="6.65" transform="translate(-90.18 266.07) rotate(-12.86)"/><ellipse class="cls-21" cx="1072.6" cy="534.92" rx="5.22" ry="6.65" transform="translate(-92.16 252.16) rotate(-12.86)"/><path class="cls-21" d="M1126.05,515.27c-2.75-.78-5.59-1.68-7.87-3.7s-3.87-5.5-3.08-8.52c1.05-4,5.35-5.16,9-5.33a54,54,0,0,1,31.1,8.48c4,2.48,7.31,6.46,4.92,11.34-1.62,3.31-4.17,4.61-7.47,4.29C1144.07,521,1134.53,517.69,1126.05,515.27Z"/><path class="cls-21" d="M1059.63,515a104.5,104.5,0,0,0,16.46,2.53,7.89,7.89,0,0,0,7.82-4.06c2.62-4.41-.68-7.85-4.68-9.93a59,59,0,0,0-21-6.31C1046.38,500.62,1049.57,512.6,1059.63,515Z"/><circle class="cls-23" cx="1240.2" cy="549.4" r="43.66"/><line class="cls-12" x1="1229.22" y1="526.2" x2="1228.7" y2="577.74"/><path class="cls-12" d="M1267.79,543.11a28.29,28.29,0,1,0-55.17,12.59"/><line class="cls-12" x1="984.41" y1="1135.98" x2="907.23" y2="1076.64"/><path class="cls-10" d="M1127.9,585.35c-10.2,21.59-21,36.24-35.12,14.5C1090.92,579.59,1107.64,580.45,1127.9,585.35Z"/><path class="cls-12" d="M1092.78,599.85c8.56.18,20.68-5.31,35.12-14.5"/><path class="cls-23" d="M450.75,332.91c7,7.34,15.12,14.53,18.24,18.13,46,52.95,93.76,94.07,147.86,137.71a525.55,525.55,0,0,1,62,110.46c13.86,36.16,38.39,70,86,98.82C843.4,720.77,885,624.2,838.14,556.52,798,507.46,754.94,460.36,714,412.72c-40.84-47.47-72.09-102-115.41-148.2C591.45,257,584,249.36,574.62,245s-21.28-4.85-29.53,1.41c-2.74,2.09-5,4.86-8.23,6.16-7.93,3.23-16.32-4-24.88-4-12.66,0-19.57,14.41-23.4,26.48-12.44-8.54-32.61,3.11-31.45,18.15.66,8.53-11.31,9.58-14.75,15.35C435.66,319.79,442.64,324.41,450.75,332.91Z"/><path class="cls-23" d="M484.93,386.16c11.72,7.41,19.74,4,27.45-7.19,8.26,4.63,16.09,6.06,25.31,3.12,6.45-2,12.39-6.8,14.22-13.32,13.23,3.68,28.64-4.26,33.31-17.18,27.91,0,16-31.29,6.89-44.53l-31.87-46.5L440.48,310.92C435.34,322.91,457.66,352.92,484.93,386.16Z"/><line class="cls-12" x1="512.38" y1="378.97" x2="468.55" y2="316.92"/><line class="cls-12" x1="551.91" y1="368.77" x2="507.73" y2="298.03"/><line class="cls-12" x1="585.22" y1="351.59" x2="535.83" y2="285.87"/><path class="cls-12" d="M503,387.86a27.8,27.8,0,0,0,9.39-8.89c8.26,4.63,16.09,6.06,25.31,3.12,6.45-2,12.39-6.8,14.22-13.32,13.23,3.68,28.64-4.26,33.31-17.18,27.91,0,16-31.29,6.89-44.53l-31.87-46.5"/><path class="cls-23" d="M625,318.91c-16.61-5.28-34.1-10.13-51.26-7.09-15.43,2.72-29,11.54-42.06,20.16l-25.08,16.54c-5.08,3.35-10.75,7.74-10.68,13.83.08,7.11,7.89,11.42,14.81,13.1a70.19,70.19,0,0,0,41.13-2.55c6.79-2.57,13.36-6.25,20.6-6.76,8.29-.59,16.2,3.05,23.94,6.06,19.22,7.49,43,10.87,58.88-2.31"/><path class="cls-12" d="M625,318.91c-16.61-5.28-34.1-10.13-51.26-7.09-15.43,2.72-29,11.54-42.06,20.16l-25.08,16.54c-5.08,3.35-10.75,7.74-10.68,13.83.08,7.11,7.89,11.42,14.81,13.1a70.19,70.19,0,0,0,41.13-2.55c6.79-2.57,13.36-6.25,20.6-6.76,8.29-.59,16.2,3.05,23.94,6.06,19.22,7.49,43,10.87,58.88-2.31"/><line class="cls-12" x1="1485.65" y1="1236.86" x2="1475.5" y2="1193.27"/><line class="cls-12" x1="1539.06" y1="1239.48" x2="1536.61" y2="1257.87"/><line class="cls-12" x1="1522.7" y1="1240.9" x2="1520.68" y2="1260.89"/><line class="cls-12" x1="1504.88" y1="1242.45" x2="1502.88" y2="1259.98"/><path class="cls-17" d="M669.29,710.81a322.36,322.36,0,0,0,.53,91.46q1.81,12.15,4.54,24c19.62,85.24,69.52,157.51,125.33,220.86a1075.68,1075.68,0,0,0,223.28,192l12.78,7.83,15.76,9.65,18,11a1132.18,1132.18,0,0,0,665.89,147.25c39.46-3.55,82.48-12.48,121.25-28.46,24.75-10.21,47.73-23.29,67-39.67L1821.29,1447.4l-.26.26-8.24,8.11c-49.18,45.41-126.61,67-193.74,73a1132.7,1132.7,0,0,1-638-131.63l-80.19-47.87A1074.68,1074.68,0,0,1,683.34,1161.1C627.51,1097.72,577.65,1025.46,558,940.19c-13.93-60.58-10.3-128.8,14.57-187.75a242.58,242.58,0,0,1,41.22-66.3c2.4-2.71,4.83-5.38,7.35-7.95l.14-.14L632,667.59l0,0Z"/><path class="cls-13" d="M669.29,710.81a322.36,322.36,0,0,0,.53,91.46q1.81,12.15,4.54,24c19.62,85.24,69.52,157.51,125.33,220.86a1075.68,1075.68,0,0,0,223.28,192l12.78,7.83,15.76,9.65,18,11a1132.18,1132.18,0,0,0,665.89,147.25c39.46-3.55,82.48-12.48,121.25-28.46,24.75-10.21,47.73-23.29,67-39.67L1821.29,1447.4l-.26.26-8.24,8.11c-49.18,45.41-126.61,67-193.74,73a1132.7,1132.7,0,0,1-638-131.63l-80.19-47.87A1074.68,1074.68,0,0,1,683.34,1161.1C627.51,1097.72,577.65,1025.46,558,940.19c-13.93-60.58-10.3-128.8,14.57-187.75a242.58,242.58,0,0,1,41.22-66.3c2.4-2.71,4.83-5.38,7.35-7.95l.14-.14L632,667.59l0,0Z"/><path class="cls-17" d="M408,286.05c19.45,91.11,158.65,258.28,230.33,323.66,7.89,7.34,17.61,15.46,29.38,24.46l4.61,3.52c10.17,7.65,21.73,15.88,34.79,24.75,11.64,7.4,23.54,14.32,35.7,20.65,180.62,94.24,432.94,95.8,639.67,85,49.51-2.57,100.91-6.25,147.18-23.36a221.84,221.84,0,0,0,41.29-20.11,163.46,163.46,0,0,0,17.57-12.85l-96,95.53q2.17-2.28,4.25-4.64l-18,17.46,0,0A158.86,158.86,0,0,1,1462,832.32c-55.54,34.85-123.6,40.08-188.44,43.47C1085,885.61,852.59,885,682.43,813.55c-59.81-29.51-112.31-62.68-157-99.78C442.16,636.2,298.65,449.54,291.7,341l-44.08,32.87,21.61-202.78,186.38,84.24Z"/><path class="cls-16" d="M408,286.05c19.45,91.11,158.65,258.28,230.33,323.66,7.89,7.34,17.61,15.46,29.38,24.46l4.61,3.52c10.17,7.65,21.73,15.88,34.79,24.75,11.64,7.4,23.54,14.32,35.7,20.65,180.62,94.24,432.94,95.8,639.67,85,49.51-2.57,100.91-6.25,147.18-23.36a221.84,221.84,0,0,0,41.29-20.11,163.46,163.46,0,0,0,17.57-12.85l-96,95.53q2.17-2.28,4.25-4.64l-18,17.46,0,0A158.86,158.86,0,0,1,1462,832.32c-55.54,34.85-123.6,40.08-188.44,43.47C1085,885.61,852.59,885,682.43,813.55c-59.81-29.51-112.31-62.68-157-99.78C442.16,636.2,298.65,449.54,291.7,341l-44.08,32.87,21.61-202.78,186.38,84.24Z"/><polygon class="cls-26" points="2021.86 1695.82 2023.72 1594.43 2121.56 1621.05 2097.31 1639.24 2149.26 1704.86 2099.1 1744.57 2046.11 1677.63 2021.86 1695.82"/><polygon class="cls-27" points="2085.56 1550.46 2087.41 1449.07 2185.26 1475.7 2161.01 1493.88 2212.96 1559.5 2162.8 1599.21 2109.81 1532.28 2085.56 1550.46"/><polygon class="cls-28" points="1848.93 1634.84 1850.79 1533.45 1948.63 1560.07 1924.38 1578.26 1976.33 1643.88 1926.17 1683.59 1873.18 1616.65 1848.93 1634.84"/><polygon class="cls-13" points="2021.86 1695.82 2023.72 1594.43 2121.56 1621.05 2097.31 1639.24 2149.26 1704.86 2099.1 1744.57 2046.11 1677.63 2021.86 1695.82"/><polygon class="cls-13" points="2085.56 1550.46 2087.41 1449.07 2185.26 1475.7 2161.01 1493.88 2212.96 1559.5 2162.8 1599.21 2109.81 1532.28 2085.56 1550.46"/><polygon class="cls-13" points="1848.93 1634.84 1850.79 1533.45 1948.63 1560.07 1924.38 1578.26 1976.33 1643.88 1926.17 1683.59 1873.18 1616.65 1848.93 1634.84"/></svg>